<svg width="46" height="62" viewBox="0 0 46 62" fill="none" xmlns="http://www.w3.org/2000/svg">
<g clip-path="url(#clip0_849_18)">
<path d="M20.6252 0H30.1986V46.4367C25.295 47.4184 21.685 47.8046 17.7792 47.8046C6.08655 47.7917 0 42.2634 0 31.6458C0 21.4159 6.45617 14.7766 16.4608 14.7766C18.0133 14.7766 19.196 14.9059 20.6252 15.2933V0ZM20.9607 23.6617C19.8395 23.2742 18.9155 23.1451 17.7326 23.1451C12.8906 23.1451 10.0938 26.2708 10.0938 31.7487C10.0938 37.0821 12.7675 40.027 17.6712 40.027C18.7306 40.027 19.5931 39.9639 20.9607 39.7701V23.6617Z" fill="#CECECB"/>
<path d="M45.8539 16.0234V39.2736C45.8539 47.2805 45.2872 51.131 43.6238 54.4507C42.0713 57.6423 40.0261 59.6548 35.8 61.8776L26.9166 57.4473C31.1427 55.3688 33.1879 53.5322 34.494 50.7294C35.8615 47.8632 36.2927 44.5435 36.2927 35.8118V16.0235L45.8539 16.0234ZM35.328 0H44.9014V10.2946H35.328V0Z" fill="#CECECB"/>
</g>
<defs>
<clipPath id="clip0_849_18">
<rect width="46" height="62" fill="white"/>
</clipPath>
</defs>
</svg>
