<svg width="63" height="63" viewBox="0 0 63 63" fill="none" xmlns="http://www.w3.org/2000/svg">
<path d="M36.7741 31.4525C36.7741 28.6285 34.4129 26.3389 31.5 26.3389C28.5874 26.3389 26.2259 28.6285 26.2259 31.4525C26.2259 34.2769 28.5874 36.5663 31.5 36.5663C34.4129 36.5663 36.7741 34.2769 36.7741 31.4525Z" fill="#CECECB"/>
<path fill-rule="evenodd" clip-rule="evenodd" d="M48.6289 21.9588C49.7426 17.5707 51.1426 9.43322 46.2073 6.67438C41.2951 3.92756 34.9028 9.19097 31.5274 12.3503C28.1618 9.22245 21.5899 3.98154 16.6588 6.74915C11.7485 9.50518 13.2628 17.5077 14.4012 21.9234C9.82073 23.1848 1.96875 25.9017 1.96875 31.4526C1.96875 36.9877 9.81256 39.9436 14.3659 41.2038C13.2233 45.6439 11.7849 53.5321 16.7014 56.282C21.6509 59.0491 28.2023 53.9329 31.6091 50.739C35.0061 53.917 41.3371 59.0666 46.2503 56.309C51.1788 53.5427 49.8952 45.5143 48.7567 41.073C53.1706 39.8101 61.0312 36.9186 61.0312 31.4526C61.0312 25.955 53.1372 23.2161 48.6289 21.9588ZM48.0694 38.7194C47.3219 36.425 46.3129 33.9851 45.0787 31.4648C46.2568 29.0038 47.2266 26.5954 47.9532 24.3158C51.2582 25.2449 58.5083 27.3682 58.5083 31.4526C58.5083 35.5753 51.5509 37.7187 48.0694 38.7194ZM44.9859 54.1918C41.3201 56.2491 35.8748 51.3245 33.366 48.9843C35.0304 47.2193 36.6936 45.1675 38.3168 42.889C41.1723 42.6435 43.8697 42.2419 46.316 41.6936C47.1173 44.8351 48.6679 52.1252 44.9859 54.1918ZM17.9621 54.1625C14.2959 52.1128 15.9716 45.0737 16.8123 41.8031C19.2314 42.322 21.9094 42.6953 24.7716 42.9203C26.4055 45.1497 28.1169 47.199 29.8415 48.9937C27.7107 50.9922 21.6454 56.2216 17.9621 54.1625ZM4.49168 31.4526C4.49168 27.3144 11.6985 25.2065 15.0787 24.2798C15.8179 26.6106 16.7874 29.0477 17.9574 31.5122C16.7723 34.0133 15.7889 36.489 15.0429 38.8474C11.8198 37.9528 4.49168 35.5932 4.49168 31.4526ZM17.9229 8.86634C21.6041 6.80038 27.3158 11.8319 29.7594 14.0965C28.0437 15.883 26.348 17.9168 24.7281 20.1334C21.9504 20.3831 19.2913 20.7839 16.8468 21.321C15.9296 17.7595 14.2457 10.9301 17.9229 8.86634ZM40.1217 22.7924C42.0062 23.023 43.8118 23.3297 45.5071 23.7049C44.9981 25.2866 44.3638 26.9406 43.6167 28.6361C42.5337 26.6437 41.3711 24.6913 40.1217 22.7924ZM31.5282 15.8447C32.6919 17.067 33.8574 18.432 35.004 19.9129C32.6783 19.8062 30.3489 19.8058 28.0232 19.9113C29.1708 18.4442 30.3463 17.0812 31.5282 15.8447ZM19.405 28.6343C18.6702 26.9447 18.0416 25.2835 17.5282 23.6791C19.2134 23.3135 21.0105 23.0147 22.8828 22.7879C21.6299 24.6826 20.4693 26.6342 19.405 28.6343ZM22.9365 40.2918C21.0024 40.0826 19.1781 39.7989 17.4934 39.4433C18.0149 37.8108 18.6574 36.1138 19.4079 34.3878C20.4868 36.4087 21.6651 38.3792 22.9365 40.2918ZM31.598 47.2333C30.4022 45.9821 29.2094 44.5983 28.0444 43.1099C30.3833 43.1989 32.7267 43.1991 35.0654 43.0979C33.9153 44.6134 32.7539 45.9993 31.598 47.2333ZM43.6407 34.3C44.4302 36.0447 45.0956 37.7325 45.6242 39.3374C43.9116 39.7164 42.0627 40.0215 40.1147 40.2481C41.3733 38.3133 42.5543 36.3305 43.6407 34.3ZM36.9087 40.5446C33.3311 40.7925 29.7313 40.7897 26.1525 40.5649C24.119 37.6848 22.3087 34.6559 20.7461 31.5114C22.3012 28.3734 24.0983 25.3504 26.1222 22.4749C29.7035 22.2124 33.3069 22.2116 36.8883 22.4764C38.8948 25.3518 40.6891 28.3669 42.2803 31.4766C40.708 34.613 38.9015 37.6421 36.9087 40.5446ZM44.9472 8.79362C48.6293 10.8528 46.9903 18.1662 46.1859 21.3464C43.7356 20.7981 41.0746 20.3901 38.2888 20.1366C36.6658 17.896 34.9843 15.8586 33.2963 14.0952C35.7712 11.7818 41.3006 6.75456 44.9472 8.79362Z" fill="#CECECB"/>
</svg>
