<svg width="579" height="61" viewBox="0 0 579 61" fill="none" xmlns="http://www.w3.org/2000/svg">
<path d="M17.53 5.104C24.9287 5.104 30.426 6.964 34.022 10.684C37.618 14.3627 39.416 19.6533 39.416 26.556C39.416 31.0613 38.5273 35.0087 36.75 38.398C35.014 41.746 32.472 44.35 29.124 46.21C25.776 48.07 21.7253 49 16.972 49C16.352 49 15.5253 48.9793 14.492 48.938C13.4587 48.8967 12.384 48.876 11.268 48.876C10.1933 48.8347 9.20133 48.814 8.292 48.814C6.84533 48.814 5.41933 48.8347 4.014 48.876C2.60867 48.876 1.472 48.9173 0.604 49V47.76C2.00933 47.6773 3.06333 47.512 3.766 47.264C4.51 47.016 5.006 46.52 5.254 45.776C5.502 45.032 5.626 43.916 5.626 42.428V11.676C5.626 10.1467 5.502 9.03066 5.254 8.328C5.006 7.584 4.51 7.088 3.766 6.84C3.06333 6.55067 2.00933 6.38533 0.604 6.344V5.104C1.472 5.14533 2.60867 5.20733 4.014 5.29C5.41933 5.33133 6.804 5.33133 8.168 5.29C9.61467 5.24866 11.2473 5.20733 13.066 5.166C14.8847 5.12467 16.3727 5.104 17.53 5.104ZM15.98 6.22C14.0787 6.22 12.8387 6.57133 12.26 7.274C11.6813 7.97667 11.392 9.40267 11.392 11.552V42.552C11.392 44.7013 11.6813 46.1273 12.26 46.83C12.88 47.5327 14.1407 47.884 16.042 47.884C20.5473 47.884 24.04 47.078 26.52 45.466C29 43.8127 30.736 41.4153 31.728 38.274C32.72 35.1327 33.216 31.3093 33.216 26.804C33.216 22.1747 32.658 18.3513 31.542 15.334C30.4673 12.2753 28.6693 10.002 26.148 8.514C23.668 6.98466 20.2787 6.22 15.98 6.22ZM53.104 49.434C51.4093 49.434 49.942 49.124 48.702 48.504C47.462 47.8427 46.5113 46.9333 45.85 45.776C45.23 44.6187 44.92 43.2753 44.92 41.746C44.92 39.9273 45.3333 38.4393 46.16 37.282C47.028 36.1247 48.1233 35.1947 49.446 34.492C50.7686 33.7893 52.1533 33.2107 53.6 32.756C55.088 32.26 56.4933 31.8053 57.816 31.392C59.1386 30.9373 60.2133 30.4207 61.04 29.842C61.908 29.2633 62.342 28.4987 62.342 27.548V23.704C62.342 21.968 62.0733 20.6453 61.536 19.736C61.04 18.8267 60.358 18.2273 59.49 17.938C58.622 17.6073 57.6506 17.442 56.576 17.442C55.5426 17.442 54.4266 17.5867 53.228 17.876C52.0706 18.1653 51.1406 18.7647 50.438 19.674C51.2233 19.8393 51.9053 20.2527 52.484 20.914C53.0626 21.5753 53.352 22.4227 53.352 23.456C53.352 24.4893 53.0213 25.316 52.36 25.936C51.6986 26.5147 50.8513 26.804 49.818 26.804C48.6193 26.804 47.7306 26.432 47.152 25.688C46.6146 24.9027 46.346 24.0347 46.346 23.084C46.346 22.0093 46.6146 21.1413 47.152 20.48C47.6893 19.8187 48.3713 19.1987 49.198 18.62C50.1486 17.9587 51.368 17.4007 52.856 16.946C54.3853 16.45 56.1006 16.202 58.002 16.202C59.6966 16.202 61.1433 16.4087 62.342 16.822C63.5406 17.194 64.5326 17.752 65.318 18.496C66.3926 19.488 67.0953 20.7073 67.426 22.154C67.7566 23.5593 67.922 25.254 67.922 27.238V44.474C67.922 45.5073 68.0666 46.2513 68.356 46.706C68.6866 47.1607 69.1826 47.388 69.844 47.388C70.2986 47.388 70.7326 47.2847 71.146 47.078C71.5593 46.8713 72.0553 46.5407 72.634 46.086L73.316 47.14C72.448 47.8013 71.6213 48.3593 70.836 48.814C70.0506 49.2273 68.9966 49.434 67.674 49.434C66.4753 49.434 65.4833 49.2273 64.698 48.814C63.9126 48.4007 63.3133 47.8013 62.9 47.016C62.528 46.1893 62.342 45.156 62.342 43.916C61.226 45.776 59.8826 47.1607 58.312 48.07C56.7826 48.9793 55.0466 49.434 53.104 49.434ZM55.336 46.954C56.7 46.954 57.9606 46.5613 59.118 45.776C60.3166 44.9907 61.3913 43.8127 62.342 42.242V30.09C61.846 30.7927 61.1226 31.392 60.172 31.888C59.2213 32.3427 58.188 32.818 57.072 33.314C55.956 33.7687 54.8813 34.3267 53.848 34.988C52.856 35.608 52.0293 36.4347 51.368 37.468C50.7066 38.5013 50.376 39.8447 50.376 41.498C50.376 43.1513 50.81 44.474 51.678 45.466C52.5873 46.458 53.8066 46.954 55.336 46.954ZM103.21 17.07V18.31C102.425 18.3927 101.701 18.744 101.04 19.364C100.379 19.984 99.7588 21.0793 99.1801 22.65L89.0121 49.31C88.8468 49.31 88.6815 49.31 88.5161 49.31C88.3508 49.31 88.1648 49.31 87.9581 49.31L76.5501 21.844C75.8888 20.232 75.2275 19.2607 74.5661 18.93C73.9461 18.558 73.4088 18.372 72.9541 18.372V17.07C73.7808 17.1113 74.6281 17.1733 75.4961 17.256C76.4055 17.2973 77.3768 17.318 78.4101 17.318C79.6915 17.318 81.0348 17.2973 82.4401 17.256C83.8868 17.2147 85.2301 17.1527 86.4701 17.07V18.372C85.4368 18.372 84.5068 18.4547 83.6801 18.62C82.8948 18.744 82.3781 19.1367 82.1301 19.798C81.9235 20.4593 82.1301 21.596 82.7501 23.208L90.5001 42.366L90.1281 42.676L97.1961 24.138C97.7335 22.774 97.9401 21.6993 97.8161 20.914C97.7335 20.0873 97.3201 19.4673 96.5761 19.054C95.8735 18.6407 94.7781 18.3927 93.2901 18.31V17.07C94.0341 17.1113 94.6748 17.1527 95.2121 17.194C95.7495 17.194 96.2661 17.2147 96.7621 17.256C97.2995 17.256 97.8781 17.256 98.4981 17.256C99.4488 17.256 100.296 17.2353 101.04 17.194C101.825 17.1527 102.549 17.1113 103.21 17.07ZM112.278 1.57C113.353 1.57 114.283 1.96266 115.068 2.748C115.853 3.53333 116.246 4.46333 116.246 5.538C116.246 6.61267 115.853 7.54267 115.068 8.328C114.283 9.11333 113.353 9.506 112.278 9.506C111.203 9.506 110.273 9.11333 109.488 8.328C108.703 7.54267 108.31 6.61267 108.31 5.538C108.31 4.46333 108.703 3.53333 109.488 2.748C110.273 1.96266 111.203 1.57 112.278 1.57ZM115.502 16.388V43.234C115.502 44.97 115.853 46.148 116.556 46.768C117.3 47.388 118.519 47.698 120.214 47.698V49C119.511 48.9587 118.437 48.9173 116.99 48.876C115.585 48.7933 114.159 48.752 112.712 48.752C111.307 48.752 109.881 48.7933 108.434 48.876C106.987 48.9173 105.913 48.9587 105.21 49V47.698C106.905 47.698 108.103 47.388 108.806 46.768C109.55 46.148 109.922 44.97 109.922 43.234V23.828C109.922 21.968 109.591 20.604 108.93 19.736C108.269 18.8267 107.029 18.372 105.21 18.372V17.07C106.533 17.194 107.814 17.256 109.054 17.256C110.253 17.256 111.389 17.194 112.464 17.07C113.58 16.9047 114.593 16.6773 115.502 16.388ZM151.584 0.391998V42.242C151.584 44.102 151.915 45.4867 152.576 46.396C153.279 47.264 154.519 47.698 156.296 47.698V49C155.015 48.876 153.734 48.814 152.452 48.814C151.254 48.814 150.096 48.876 148.98 49C147.906 49.124 146.914 49.3513 146.004 49.682V7.832C146.004 5.972 145.674 4.608 145.012 3.74C144.351 2.83066 143.111 2.376 141.292 2.376V1.074C142.615 1.198 143.896 1.26 145.136 1.26C146.335 1.26 147.472 1.198 148.546 1.074C149.662 0.908665 150.675 0.681332 151.584 0.391998ZM138.564 16.202C140.383 16.202 142.078 16.636 143.648 17.504C145.26 18.372 146.335 19.86 146.872 21.968L146.066 22.588C145.488 20.852 144.578 19.5913 143.338 18.806C142.14 18.0207 140.714 17.628 139.06 17.628C136.622 17.628 134.576 18.8887 132.922 21.41C131.31 23.9313 130.525 27.8167 130.566 33.066C130.566 36.414 130.876 39.204 131.496 41.436C132.158 43.6267 133.108 45.28 134.348 46.396C135.63 47.4707 137.18 48.008 138.998 48.008C140.734 48.008 142.305 47.264 143.71 45.776C145.116 44.288 145.963 42.0973 146.252 39.204L146.996 40.072C146.666 43.2133 145.653 45.6313 143.958 47.326C142.305 49.0207 140.052 49.868 137.2 49.868C134.638 49.868 132.385 49.248 130.442 48.008C128.541 46.768 127.074 44.908 126.04 42.428C125.048 39.948 124.552 36.8273 124.552 33.066C124.552 29.3047 125.193 26.184 126.474 23.704C127.797 21.1827 129.512 19.302 131.62 18.062C133.77 16.822 136.084 16.202 138.564 16.202ZM175.645 5.104C176.513 5.14533 177.65 5.18667 179.055 5.228C180.46 5.26933 181.845 5.29 183.209 5.29C185.152 5.29 187.012 5.26933 188.789 5.228C190.566 5.18667 191.827 5.166 192.571 5.166C196.911 5.166 200.176 6.07533 202.367 7.894C204.558 9.71266 205.653 12.048 205.653 14.9C205.653 16.3467 205.343 17.7727 204.723 19.178C204.144 20.542 203.152 21.8027 201.747 22.96C200.383 24.076 198.544 24.9853 196.229 25.688V25.812C199.494 26.2253 202.036 27.0107 203.855 28.168C205.715 29.284 207.017 30.6067 207.761 32.136C208.505 33.6653 208.877 35.2773 208.877 36.972C208.877 39.328 208.278 41.4153 207.079 43.234C205.922 45.0113 204.227 46.4167 201.995 47.45C199.763 48.4833 197.097 49 193.997 49C193.088 49 191.724 48.9793 189.905 48.938C188.086 48.8553 185.896 48.814 183.333 48.814C181.886 48.814 180.46 48.8347 179.055 48.876C177.65 48.876 176.513 48.9173 175.645 49V47.76C177.05 47.6773 178.104 47.512 178.807 47.264C179.551 47.016 180.047 46.52 180.295 45.776C180.543 45.032 180.667 43.916 180.667 42.428V11.676C180.667 10.1467 180.543 9.03066 180.295 8.328C180.047 7.584 179.551 7.088 178.807 6.84C178.104 6.55067 177.05 6.38533 175.645 6.344V5.104ZM191.021 6.344C189.12 6.344 187.88 6.69533 187.301 7.398C186.722 8.10066 186.433 9.52666 186.433 11.676V42.428C186.433 43.8747 186.557 44.97 186.805 45.714C187.053 46.458 187.508 46.954 188.169 47.202C188.83 47.45 189.802 47.574 191.083 47.574C195.134 47.574 198.068 46.644 199.887 44.784C201.747 42.8827 202.677 40.196 202.677 36.724C202.677 33.5413 201.809 31.082 200.073 29.346C198.378 27.61 195.568 26.742 191.641 26.742H185.255C185.255 26.742 185.255 26.5767 185.255 26.246C185.255 25.874 185.255 25.688 185.255 25.688H190.587C193.026 25.688 194.906 25.2333 196.229 24.324C197.552 23.3733 198.461 22.1333 198.957 20.604C199.453 19.0333 199.701 17.3593 199.701 15.582C199.701 12.5233 199.019 10.2293 197.655 8.7C196.332 7.12933 194.121 6.344 191.021 6.344ZM232.447 16.202C233.563 16.202 234.535 16.4293 235.361 16.884C236.229 17.3387 236.891 17.938 237.345 18.682C237.841 19.3847 238.089 20.1907 238.089 21.1C238.089 22.1333 237.759 23.0427 237.097 23.828C236.477 24.6133 235.63 25.006 234.555 25.006C233.687 25.006 232.923 24.7373 232.261 24.2C231.6 23.6213 231.269 22.8153 231.269 21.782C231.269 20.9967 231.476 20.3353 231.889 19.798C232.344 19.2193 232.84 18.7647 233.377 18.434C233.088 18.0207 232.654 17.814 232.075 17.814C230.794 17.814 229.616 18.2067 228.541 18.992C227.467 19.736 226.557 20.7073 225.813 21.906C225.069 23.1047 224.491 24.386 224.077 25.75C223.664 27.0727 223.457 28.3127 223.457 29.47V42.614C223.457 44.6393 224.036 46.0033 225.193 46.706C226.392 47.3673 228.004 47.698 230.029 47.698V49C229.079 48.9587 227.735 48.9173 225.999 48.876C224.263 48.7933 222.424 48.752 220.481 48.752C219.076 48.752 217.671 48.7933 216.265 48.876C214.901 48.9173 213.868 48.9587 213.165 49V47.698C214.86 47.698 216.059 47.388 216.761 46.768C217.505 46.148 217.877 44.97 217.877 43.234V23.828C217.877 21.968 217.547 20.604 216.885 19.736C216.224 18.8267 214.984 18.372 213.165 18.372V17.07C214.488 17.194 215.769 17.256 217.009 17.256C218.208 17.256 219.345 17.194 220.419 17.07C221.535 16.9047 222.548 16.6773 223.457 16.388V24.138C223.912 22.9393 224.553 21.7407 225.379 20.542C226.247 19.302 227.281 18.2687 228.479 17.442C229.678 16.6153 231.001 16.202 232.447 16.202ZM269.605 17.07V18.31C268.819 18.3927 268.096 18.744 267.435 19.364C266.773 19.984 266.153 21.0793 265.575 22.65L255.407 49.31H254.353L242.945 21.844C242.159 20.232 241.374 19.2607 240.589 18.93C239.845 18.558 239.225 18.372 238.729 18.372V17.07C239.638 17.194 240.589 17.2973 241.581 17.38C242.573 17.4213 243.647 17.442 244.805 17.442C246.086 17.442 247.429 17.4007 248.835 17.318C250.281 17.2353 251.625 17.1527 252.865 17.07V18.372C251.831 18.372 250.901 18.4547 250.075 18.62C249.289 18.744 248.793 19.178 248.587 19.922C248.38 20.6247 248.628 21.844 249.331 23.58L256.957 42.49L256.585 42.614L263.653 24.138C264.19 22.774 264.397 21.6993 264.273 20.914C264.19 20.0873 263.777 19.4673 263.033 19.054C262.289 18.6407 261.173 18.3927 259.685 18.31V17.07C260.429 17.1113 261.069 17.1527 261.607 17.194C262.144 17.194 262.661 17.2147 263.157 17.256C263.694 17.256 264.273 17.256 264.893 17.256C265.843 17.256 266.691 17.2353 267.435 17.194C268.22 17.1527 268.943 17.1113 269.605 17.07ZM255.407 49.31L253.299 54.704C252.885 55.7373 252.451 56.6053 251.997 57.308C251.583 58.0107 251.129 58.5893 250.633 59.044C249.971 59.664 249.186 60.0773 248.277 60.284C247.367 60.532 246.541 60.656 245.797 60.656C245.011 60.656 244.288 60.5113 243.627 60.222C243.007 59.9327 242.511 59.4987 242.139 58.92C241.767 58.3827 241.581 57.7213 241.581 56.936C241.581 55.944 241.87 55.138 242.449 54.518C243.027 53.9393 243.833 53.65 244.867 53.65C245.735 53.65 246.479 53.898 247.099 54.394C247.719 54.89 248.029 55.6133 248.029 56.564C248.029 57.2667 247.863 57.8453 247.533 58.3C247.202 58.7547 246.809 59.106 246.355 59.354C246.437 59.3953 246.499 59.416 246.541 59.416C246.623 59.416 246.685 59.416 246.727 59.416C247.843 59.416 248.835 59.0233 249.703 58.238C250.571 57.494 251.335 56.2747 251.997 54.58L254.229 48.814L255.407 49.31ZM280.457 49.434C278.763 49.434 277.295 49.124 276.055 48.504C274.815 47.8427 273.865 46.9333 273.203 45.776C272.583 44.6187 272.273 43.2753 272.273 41.746C272.273 39.9273 272.687 38.4393 273.513 37.282C274.381 36.1247 275.477 35.1947 276.799 34.492C278.122 33.7893 279.507 33.2107 280.953 32.756C282.441 32.26 283.847 31.8053 285.169 31.392C286.492 30.9373 287.567 30.4207 288.393 29.842C289.261 29.2633 289.695 28.4987 289.695 27.548V23.704C289.695 21.968 289.427 20.6453 288.889 19.736C288.393 18.8267 287.711 18.2273 286.843 17.938C285.975 17.6073 285.004 17.442 283.929 17.442C282.896 17.442 281.78 17.5867 280.581 17.876C279.424 18.1653 278.494 18.7647 277.791 19.674C278.577 19.8393 279.259 20.2527 279.837 20.914C280.416 21.5753 280.705 22.4227 280.705 23.456C280.705 24.4893 280.375 25.316 279.713 25.936C279.052 26.5147 278.205 26.804 277.171 26.804C275.973 26.804 275.084 26.432 274.505 25.688C273.968 24.9027 273.699 24.0347 273.699 23.084C273.699 22.0093 273.968 21.1413 274.505 20.48C275.043 19.8187 275.725 19.1987 276.551 18.62C277.502 17.9587 278.721 17.4007 280.209 16.946C281.739 16.45 283.454 16.202 285.355 16.202C287.05 16.202 288.497 16.4087 289.695 16.822C290.894 17.194 291.886 17.752 292.671 18.496C293.746 19.488 294.449 20.7073 294.779 22.154C295.11 23.5593 295.275 25.254 295.275 27.238V44.474C295.275 45.5073 295.42 46.2513 295.709 46.706C296.04 47.1607 296.536 47.388 297.197 47.388C297.652 47.388 298.086 47.2847 298.499 47.078C298.913 46.8713 299.409 46.5407 299.987 46.086L300.669 47.14C299.801 47.8013 298.975 48.3593 298.189 48.814C297.404 49.2273 296.35 49.434 295.027 49.434C293.829 49.434 292.837 49.2273 292.051 48.814C291.266 48.4007 290.667 47.8013 290.253 47.016C289.881 46.1893 289.695 45.156 289.695 43.916C288.579 45.776 287.236 47.1607 285.665 48.07C284.136 48.9793 282.4 49.434 280.457 49.434ZM282.689 46.954C284.053 46.954 285.314 46.5613 286.471 45.776C287.67 44.9907 288.745 43.8127 289.695 42.242V30.09C289.199 30.7927 288.476 31.392 287.525 31.888C286.575 32.3427 285.541 32.818 284.425 33.314C283.309 33.7687 282.235 34.3267 281.201 34.988C280.209 35.608 279.383 36.4347 278.721 37.468C278.06 38.5013 277.729 39.8447 277.729 41.498C277.729 43.1513 278.163 44.474 279.031 45.466C279.941 46.458 281.16 46.954 282.689 46.954ZM323.364 16.202C324.935 16.202 326.237 16.4087 327.27 16.822C328.345 17.2353 329.234 17.814 329.936 18.558C330.722 19.3847 331.28 20.418 331.61 21.658C331.941 22.898 332.106 24.572 332.106 26.68V43.234C332.106 44.97 332.458 46.148 333.16 46.768C333.904 47.388 335.124 47.698 336.818 47.698V49C336.116 48.9587 335.041 48.9173 333.594 48.876C332.148 48.7933 330.742 48.752 329.378 48.752C328.014 48.752 326.671 48.7933 325.348 48.876C324.067 48.9173 323.096 48.9587 322.434 49V47.698C323.922 47.698 324.976 47.388 325.596 46.768C326.216 46.148 326.526 44.97 326.526 43.234V25.316C326.526 24.0347 326.423 22.8567 326.216 21.782C326.01 20.7073 325.534 19.8393 324.79 19.178C324.088 18.5167 322.992 18.186 321.504 18.186C319.768 18.186 318.239 18.682 316.916 19.674C315.635 20.666 314.622 22.03 313.878 23.766C313.176 25.4607 312.824 27.362 312.824 29.47V43.234C312.824 44.97 313.134 46.148 313.754 46.768C314.374 47.388 315.428 47.698 316.916 47.698V49C316.255 48.9587 315.263 48.9173 313.94 48.876C312.659 48.7933 311.336 48.752 309.972 48.752C308.608 48.752 307.203 48.7933 305.756 48.876C304.31 48.9173 303.235 48.9587 302.532 49V47.698C304.227 47.698 305.426 47.388 306.128 46.768C306.872 46.148 307.244 44.97 307.244 43.234V23.828C307.244 21.968 306.914 20.604 306.252 19.736C305.591 18.8267 304.351 18.372 302.532 18.372V17.07C303.855 17.194 305.136 17.256 306.376 17.256C307.575 17.256 308.712 17.194 309.786 17.07C310.902 16.9047 311.915 16.6773 312.824 16.388V23.704C313.899 20.8933 315.387 18.9507 317.288 17.876C319.231 16.76 321.256 16.202 323.364 16.202ZM355.772 5.104C356.64 5.14533 357.777 5.18667 359.182 5.228C360.587 5.26933 361.972 5.29 363.336 5.29C365.279 5.29 367.139 5.26933 368.916 5.228C370.693 5.18667 371.954 5.166 372.698 5.166C376.046 5.166 378.815 5.64133 381.006 6.592C383.238 7.54267 384.891 8.84467 385.966 10.498C387.082 12.11 387.64 13.9287 387.64 15.954C387.64 17.194 387.392 18.5167 386.896 19.922C386.4 21.3273 385.532 22.65 384.292 23.89C383.093 25.13 381.44 26.1633 379.332 26.99C377.224 27.7753 374.558 28.168 371.334 28.168H365.382V26.928H370.714C373.649 26.928 375.881 26.4733 377.41 25.564C378.981 24.6133 380.035 23.3733 380.572 21.844C381.151 20.2733 381.44 18.5373 381.44 16.636C381.44 13.3707 380.655 10.8493 379.084 9.072C377.555 7.25333 374.909 6.344 371.148 6.344C369.247 6.344 368.007 6.69533 367.428 7.398C366.849 8.10066 366.56 9.52666 366.56 11.676V42.428C366.56 43.916 366.684 45.032 366.932 45.776C367.18 46.52 367.655 47.016 368.358 47.264C369.102 47.512 370.177 47.6773 371.582 47.76V49C370.631 48.9173 369.433 48.876 367.986 48.876C366.581 48.8347 365.155 48.814 363.708 48.814C362.096 48.814 360.587 48.8347 359.182 48.876C357.777 48.876 356.64 48.9173 355.772 49V47.76C357.177 47.6773 358.231 47.512 358.934 47.264C359.678 47.016 360.174 46.52 360.422 45.776C360.67 45.032 360.794 43.916 360.794 42.428V11.676C360.794 10.1467 360.67 9.03066 360.422 8.328C360.174 7.584 359.678 7.088 358.934 6.84C358.231 6.55067 357.177 6.38533 355.772 6.344V5.104ZM365.63 27.114C367.862 27.1967 369.619 27.3 370.9 27.424C372.181 27.5067 373.215 27.5893 374 27.672C374.827 27.7547 375.612 27.858 376.356 27.982C379.125 28.4367 381.109 29.284 382.308 30.524C383.548 31.7227 384.457 33.6033 385.036 36.166L386.586 42.49C386.999 44.3087 387.413 45.6313 387.826 46.458C388.281 47.2433 388.963 47.6153 389.872 47.574C390.575 47.5327 391.153 47.3053 391.608 46.892C392.104 46.4787 392.621 45.9207 393.158 45.218L394.088 45.9C393.22 47.1813 392.311 48.1733 391.36 48.876C390.451 49.5373 389.149 49.868 387.454 49.868C385.925 49.868 384.581 49.4133 383.424 48.504C382.267 47.5947 381.399 45.8173 380.82 43.172L379.456 36.972C379.084 35.1947 378.65 33.6653 378.154 32.384C377.699 31.0613 377.038 30.028 376.17 29.284C375.343 28.54 374.103 28.168 372.45 28.168H365.754L365.63 27.114ZM403.973 49.434C402.278 49.434 400.811 49.124 399.571 48.504C398.331 47.8427 397.38 46.9333 396.719 45.776C396.099 44.6187 395.789 43.2753 395.789 41.746C395.789 39.9273 396.202 38.4393 397.029 37.282C397.897 36.1247 398.992 35.1947 400.315 34.492C401.638 33.7893 403.022 33.2107 404.469 32.756C405.957 32.26 407.362 31.8053 408.685 31.392C410.008 30.9373 411.082 30.4207 411.909 29.842C412.777 29.2633 413.211 28.4987 413.211 27.548V23.704C413.211 21.968 412.942 20.6453 412.405 19.736C411.909 18.8267 411.227 18.2273 410.359 17.938C409.491 17.6073 408.52 17.442 407.445 17.442C406.412 17.442 405.296 17.5867 404.097 17.876C402.94 18.1653 402.01 18.7647 401.307 19.674C402.092 19.8393 402.774 20.2527 403.353 20.914C403.932 21.5753 404.221 22.4227 404.221 23.456C404.221 24.4893 403.89 25.316 403.229 25.936C402.568 26.5147 401.72 26.804 400.687 26.804C399.488 26.804 398.6 26.432 398.021 25.688C397.484 24.9027 397.215 24.0347 397.215 23.084C397.215 22.0093 397.484 21.1413 398.021 20.48C398.558 19.8187 399.24 19.1987 400.067 18.62C401.018 17.9587 402.237 17.4007 403.725 16.946C405.254 16.45 406.97 16.202 408.871 16.202C410.566 16.202 412.012 16.4087 413.211 16.822C414.41 17.194 415.402 17.752 416.187 18.496C417.262 19.488 417.964 20.7073 418.295 22.154C418.626 23.5593 418.791 25.254 418.791 27.238V44.474C418.791 45.5073 418.936 46.2513 419.225 46.706C419.556 47.1607 420.052 47.388 420.713 47.388C421.168 47.388 421.602 47.2847 422.015 47.078C422.428 46.8713 422.924 46.5407 423.503 46.086L424.185 47.14C423.317 47.8013 422.49 48.3593 421.705 48.814C420.92 49.2273 419.866 49.434 418.543 49.434C417.344 49.434 416.352 49.2273 415.567 48.814C414.782 48.4007 414.182 47.8013 413.769 47.016C413.397 46.1893 413.211 45.156 413.211 43.916C412.095 45.776 410.752 47.1607 409.181 48.07C407.652 48.9793 405.916 49.434 403.973 49.434ZM406.205 46.954C407.569 46.954 408.83 46.5613 409.987 45.776C411.186 44.9907 412.26 43.8127 413.211 42.242V30.09C412.715 30.7927 411.992 31.392 411.041 31.888C410.09 32.3427 409.057 32.818 407.941 33.314C406.825 33.7687 405.75 34.3267 404.717 34.988C403.725 35.608 402.898 36.4347 402.237 37.468C401.576 38.5013 401.245 39.8447 401.245 41.498C401.245 43.1513 401.679 44.474 402.547 45.466C403.456 46.458 404.676 46.954 406.205 46.954ZM446.508 16.202C447.955 16.202 449.215 16.4087 450.29 16.822C451.365 17.2353 452.253 17.814 452.956 18.558C453.741 19.3847 454.279 20.4593 454.568 21.782C454.857 23.1047 455.002 24.7373 455.002 26.68V43.234C455.002 44.97 455.353 46.148 456.056 46.768C456.8 47.388 458.019 47.698 459.714 47.698V49C459.011 48.9587 457.937 48.9173 456.49 48.876C455.043 48.7933 453.638 48.752 452.274 48.752C450.91 48.752 449.567 48.7933 448.244 48.876C446.963 48.9173 445.991 48.9587 445.33 49V47.698C446.818 47.698 447.872 47.388 448.492 46.768C449.112 46.148 449.422 44.97 449.422 43.234V25.316C449.422 24.0347 449.339 22.8567 449.174 21.782C449.009 20.7073 448.595 19.8393 447.934 19.178C447.273 18.5167 446.198 18.186 444.71 18.186C443.098 18.186 441.651 18.682 440.37 19.674C439.13 20.666 438.138 22.03 437.394 23.766C436.691 25.4607 436.34 27.362 436.34 29.47V43.234C436.34 44.97 436.65 46.148 437.27 46.768C437.89 47.388 438.944 47.698 440.432 47.698V49C439.771 48.9587 438.779 48.9173 437.456 48.876C436.175 48.7933 434.852 48.752 433.488 48.752C432.124 48.752 430.719 48.7933 429.272 48.876C427.825 48.9173 426.751 48.9587 426.048 49V47.698C427.743 47.698 428.941 47.388 429.644 46.768C430.388 46.148 430.76 44.97 430.76 43.234V23.828C430.76 21.968 430.429 20.604 429.768 19.736C429.107 18.8267 427.867 18.372 426.048 18.372V17.07C427.371 17.194 428.652 17.256 429.892 17.256C431.091 17.256 432.227 17.194 433.302 17.07C434.418 16.9047 435.431 16.6773 436.34 16.388V23.704C437.415 21.0173 438.882 19.0953 440.742 17.938C442.602 16.7807 444.524 16.202 446.508 16.202ZM465.17 16.202C466.617 16.202 467.877 16.4087 468.952 16.822C470.027 17.2353 470.915 17.814 471.618 18.558C472.403 19.3847 472.941 20.4593 473.23 21.782C473.519 23.1047 473.664 24.7373 473.664 26.68V43.234C473.664 44.97 474.015 46.148 474.718 46.768C475.462 47.388 476.681 47.698 478.376 47.698V49C477.673 48.9587 476.599 48.9173 475.152 48.876C473.705 48.7933 472.3 48.752 470.936 48.752C469.572 48.752 468.229 48.7933 466.906 48.876C465.625 48.9173 464.653 48.9587 463.992 49V47.698C465.48 47.698 466.534 47.388 467.154 46.768C467.774 46.148 468.084 44.97 468.084 43.234V25.316C468.084 24.0347 468.001 22.8567 467.836 21.782C467.671 20.7073 467.257 19.8393 466.596 19.178C465.935 18.5167 464.86 18.186 463.372 18.186C461.76 18.186 460.313 18.682 459.032 19.674C457.792 20.666 456.8 22.0093 456.056 23.704C455.353 25.3987 455.002 27.3 455.002 29.408L454.816 23.642C455.932 20.79 457.441 18.8473 459.342 17.814C461.243 16.7393 463.186 16.202 465.17 16.202ZM499.499 16.202C502.888 16.202 505.699 17.6073 507.931 20.418C510.163 23.1873 511.279 27.4033 511.279 33.066C511.279 36.786 510.638 39.9067 509.357 42.428C508.117 44.908 506.443 46.768 504.335 48.008C502.227 49.248 499.933 49.868 497.453 49.868C495.386 49.868 493.382 49.2893 491.439 48.132C489.538 46.9333 488.112 45.1767 487.161 42.862L488.401 43.544C489.434 45.1973 490.716 46.4373 492.245 47.264C493.774 48.0493 495.345 48.442 496.957 48.442C499.726 48.442 501.793 47.202 503.157 44.722C504.562 42.2007 505.265 38.3153 505.265 33.066C505.265 29.718 504.996 26.928 504.459 24.696C503.922 22.464 503.095 20.8107 501.979 19.736C500.863 18.62 499.437 18.062 497.701 18.062C495.8 18.062 494.022 18.93 492.369 20.666C490.757 22.3607 489.765 24.8613 489.393 28.168L488.649 27.3C489.104 23.7867 490.323 21.0587 492.307 19.116C494.332 17.1733 496.73 16.202 499.499 16.202ZM489.827 0.453997V45.776C489.29 46.2307 488.732 46.706 488.153 47.202C487.616 47.6567 487.078 48.1113 486.541 48.566C486.004 49.0207 485.446 49.496 484.867 49.992L483.813 49.558C483.978 48.9793 484.082 48.4007 484.123 47.822C484.206 47.202 484.247 46.582 484.247 45.962V7.894C484.247 6.034 483.916 4.67 483.255 3.802C482.594 2.89266 481.354 2.438 479.535 2.438V1.136C480.858 1.26 482.139 1.322 483.379 1.322C484.578 1.322 485.714 1.26 486.789 1.136C487.905 0.970665 488.918 0.743331 489.827 0.453997ZM531.211 16.202C533.856 16.202 536.233 16.7807 538.341 17.938C540.449 19.0953 542.123 20.914 543.363 23.394C544.644 25.874 545.285 29.098 545.285 33.066C545.285 37.034 544.644 40.258 543.363 42.738C542.123 45.1767 540.449 46.9747 538.341 48.132C536.233 49.2893 533.856 49.868 531.211 49.868C528.607 49.868 526.23 49.2893 524.081 48.132C521.973 46.9747 520.278 45.1767 518.997 42.738C517.757 40.258 517.137 37.034 517.137 33.066C517.137 29.098 517.757 25.874 518.997 23.394C520.278 20.914 521.973 19.0953 524.081 17.938C526.23 16.7807 528.607 16.202 531.211 16.202ZM531.211 17.442C528.855 17.442 526.912 18.6613 525.383 21.1C523.895 23.5387 523.151 27.5273 523.151 33.066C523.151 38.6047 523.895 42.5933 525.383 45.032C526.912 47.4293 528.855 48.628 531.211 48.628C533.567 48.628 535.489 47.4293 536.977 45.032C538.506 42.5933 539.271 38.6047 539.271 33.066C539.271 27.5273 538.506 23.5387 536.977 21.1C535.489 18.6613 533.567 17.442 531.211 17.442ZM578.273 17.07V18.31C577.487 18.3927 576.764 18.744 576.103 19.364C575.441 19.984 574.821 21.0793 574.243 22.65L564.075 49.31H563.021L551.613 21.844C550.827 20.232 550.042 19.2607 549.257 18.93C548.513 18.558 547.893 18.372 547.397 18.372V17.07C548.306 17.194 549.257 17.2973 550.249 17.38C551.241 17.4213 552.315 17.442 553.473 17.442C554.754 17.442 556.097 17.4007 557.503 17.318C558.949 17.2353 560.293 17.1527 561.533 17.07V18.372C560.499 18.372 559.569 18.4547 558.743 18.62C557.957 18.744 557.461 19.178 557.255 19.922C557.048 20.6247 557.296 21.844 557.999 23.58L565.625 42.49L565.253 42.614L572.321 24.138C572.858 22.774 573.065 21.6993 572.941 20.914C572.858 20.0873 572.445 19.4673 571.701 19.054C570.957 18.6407 569.841 18.3927 568.353 18.31V17.07C569.097 17.1113 569.737 17.1527 570.275 17.194C570.812 17.194 571.329 17.2147 571.825 17.256C572.362 17.256 572.941 17.256 573.561 17.256C574.511 17.256 575.359 17.2353 576.103 17.194C576.888 17.1527 577.611 17.1113 578.273 17.07ZM564.075 49.31L561.967 54.704C561.553 55.7373 561.119 56.6053 560.665 57.308C560.251 58.0107 559.797 58.5893 559.301 59.044C558.639 59.664 557.854 60.0773 556.945 60.284C556.035 60.532 555.209 60.656 554.465 60.656C553.679 60.656 552.956 60.5113 552.295 60.222C551.675 59.9327 551.179 59.4987 550.807 58.92C550.435 58.3827 550.249 57.7213 550.249 56.936C550.249 55.944 550.538 55.138 551.117 54.518C551.695 53.9393 552.501 53.65 553.535 53.65C554.403 53.65 555.147 53.898 555.767 54.394C556.387 54.89 556.697 55.6133 556.697 56.564C556.697 57.2667 556.531 57.8453 556.201 58.3C555.87 58.7547 555.477 59.106 555.023 59.354C555.105 59.3953 555.167 59.416 555.209 59.416C555.291 59.416 555.353 59.416 555.395 59.416C556.511 59.416 557.503 59.0233 558.371 58.238C559.239 57.494 560.003 56.2747 560.665 54.58L562.897 48.814L564.075 49.31Z" fill="#CECECB"/>
</svg>
