<svg width="184" height="57" viewBox="0 0 184 57" fill="none" xmlns="http://www.w3.org/2000/svg">
<path d="M26.52 48V46.76C27.9253 46.6773 28.9793 46.512 29.682 46.264C30.426 46.016 30.922 45.52 31.17 44.776C31.418 44.032 31.542 42.916 31.542 41.428V10.676C31.542 9.14666 31.418 8.03066 31.17 7.328C30.922 6.584 30.426 6.088 29.682 5.84C28.9793 5.55067 27.9253 5.38533 26.52 5.344V4.104C27.4707 4.14533 28.6693 4.18667 30.116 4.228C31.5627 4.26933 32.9887 4.29 34.394 4.29C36.006 4.29 37.5147 4.26933 38.92 4.228C40.3253 4.18667 41.462 4.14533 42.33 4.104V5.344C40.9247 5.38533 39.85 5.55067 39.106 5.84C38.4033 6.088 37.928 6.584 37.68 7.328C37.432 8.03066 37.308 9.14666 37.308 10.676V41.428C37.308 42.916 37.432 44.032 37.68 44.776C37.928 45.52 38.4033 46.016 39.106 46.264C39.85 46.512 40.9247 46.6773 42.33 46.76V48C41.462 47.9173 40.3253 47.876 38.92 47.876C37.5147 47.8347 36.006 47.814 34.394 47.814C32.9887 47.814 31.5627 47.8347 30.116 47.876C28.6693 47.876 27.4707 47.9173 26.52 48ZM0.604 48V46.76C2.00933 46.6773 3.06333 46.512 3.766 46.264C4.51 46.016 5.006 45.52 5.254 44.776C5.502 44.032 5.626 42.916 5.626 41.428V10.676C5.626 9.14666 5.502 8.03066 5.254 7.328C5.006 6.584 4.51 6.088 3.766 5.84C3.06333 5.55067 2.00933 5.38533 0.604 5.344V4.104C1.472 4.14533 2.60867 4.18667 4.014 4.228C5.41933 4.26933 6.928 4.29 8.54 4.29C9.98667 4.29 11.4127 4.26933 12.818 4.228C14.2647 4.18667 15.4633 4.14533 16.414 4.104V5.344C15.0087 5.38533 13.934 5.55067 13.19 5.84C12.4873 6.088 12.012 6.584 11.764 7.328C11.516 8.03066 11.392 9.14666 11.392 10.676V41.428C11.392 42.916 11.516 44.032 11.764 44.776C12.012 45.52 12.4873 46.016 13.19 46.264C13.934 46.512 15.0087 46.6773 16.414 46.76V48C15.4633 47.9173 14.2647 47.876 12.818 47.876C11.4127 47.8347 9.98667 47.814 8.54 47.814C6.928 47.814 5.41933 47.8347 4.014 47.876C2.60867 47.876 1.472 47.9173 0.604 48ZM9.222 26.548V25.308H33.712V26.548H9.222ZM53.7898 0.569997C54.8645 0.569997 55.7945 0.962664 56.5798 1.748C57.3652 2.53333 57.7578 3.46333 57.7578 4.538C57.7578 5.61267 57.3652 6.54267 56.5798 7.328C55.7945 8.11333 54.8645 8.506 53.7898 8.506C52.7152 8.506 51.7852 8.11333 50.9998 7.328C50.2145 6.54267 49.8218 5.61267 49.8218 4.538C49.8218 3.46333 50.2145 2.53333 50.9998 1.748C51.7852 0.962664 52.7152 0.569997 53.7898 0.569997ZM57.0138 15.388V42.234C57.0138 43.97 57.3652 45.148 58.0678 45.768C58.8118 46.388 60.0312 46.698 61.7258 46.698V48C61.0232 47.9587 59.9485 47.9173 58.5018 47.876C57.0965 47.7933 55.6705 47.752 54.2238 47.752C52.8185 47.752 51.3925 47.7933 49.9458 47.876C48.4992 47.9173 47.4245 47.9587 46.7218 48V46.698C48.4165 46.698 49.6152 46.388 50.3178 45.768C51.0618 45.148 51.4338 43.97 51.4338 42.234V22.828C51.4338 20.968 51.1032 19.604 50.4418 18.736C49.7805 17.8267 48.5405 17.372 46.7218 17.372V16.07C48.0445 16.194 49.3258 16.256 50.5658 16.256C51.7645 16.256 52.9012 16.194 53.9758 16.07C55.0918 15.9047 56.1045 15.6773 57.0138 15.388ZM70.8999 40.932C71.8092 40.932 72.5532 41.118 73.1319 41.49C73.7106 41.862 74.1859 42.3373 74.5579 42.916C75.0126 43.5773 75.3019 44.3007 75.4259 45.086C75.5499 45.8713 75.6119 46.512 75.6119 47.008C75.6119 49.0333 75.0952 50.8727 74.0619 52.526C73.0286 54.1793 71.4166 55.5227 69.2259 56.556L68.6679 55.44C69.9492 54.9027 71.0446 54.0553 71.9539 52.898C72.9046 51.7407 73.3799 50.5627 73.3799 49.364C73.3799 48.868 73.3179 48.434 73.1939 48.062C72.5326 48.5993 71.7679 48.868 70.8999 48.868C69.8252 48.868 68.8952 48.5167 68.1099 47.814C67.3246 47.1113 66.9319 46.14 66.9319 44.9C66.9319 43.7427 67.3246 42.792 68.1099 42.048C68.8952 41.304 69.8252 40.932 70.8999 40.932ZM113.107 4.104V5.344C111.702 5.38533 110.627 5.55067 109.883 5.84C109.181 6.088 108.705 6.584 108.457 7.328C108.209 8.03066 108.085 9.14666 108.085 10.676V41.428C108.085 42.916 108.209 44.032 108.457 44.776C108.705 45.52 109.181 46.016 109.883 46.264C110.627 46.512 111.702 46.6773 113.107 46.76V48C112.157 47.9173 110.958 47.876 109.511 47.876C108.106 47.8347 106.68 47.814 105.233 47.814C103.621 47.814 102.113 47.8347 100.707 47.876C99.302 47.876 98.1654 47.9173 97.2974 48V46.76C98.7027 46.6773 99.7567 46.512 100.459 46.264C101.203 46.016 101.699 45.52 101.947 44.776C102.195 44.032 102.319 42.916 102.319 41.428V10.676C102.319 9.14666 102.195 8.03066 101.947 7.328C101.699 6.584 101.203 6.088 100.459 5.84C99.7567 5.55067 98.7027 5.38533 97.2974 5.344V4.104C98.1654 4.14533 99.302 4.18667 100.707 4.228C102.113 4.26933 103.621 4.29 105.233 4.29C106.68 4.29 108.106 4.26933 109.511 4.228C110.958 4.18667 112.157 4.14533 113.107 4.104ZM120.415 16.132L118.741 14.52C120.684 12.2053 121.655 10.0147 121.655 7.948C121.655 7.204 121.324 6.43933 120.663 5.654C120.002 4.82733 119.671 4.042 119.671 3.298C119.671 2.51267 119.981 1.85133 120.601 1.314C121.262 0.776665 122.068 0.507998 123.019 0.507998C123.97 0.507998 124.776 0.921331 125.437 1.748C126.098 2.53333 126.429 3.77333 126.429 5.468C126.429 7.12133 125.912 8.94 124.879 10.924C123.887 12.8667 122.399 14.6027 120.415 16.132ZM151.281 15.202C152.728 15.202 153.989 15.4087 155.063 15.822C156.138 16.2353 157.027 16.814 157.729 17.558C158.515 18.3847 159.052 19.4593 159.341 20.782C159.631 22.1047 159.775 23.7373 159.775 25.68V42.234C159.775 43.97 160.127 45.148 160.829 45.768C161.573 46.388 162.793 46.698 164.487 46.698V48C163.785 47.9587 162.71 47.9173 161.263 47.876C159.817 47.7933 158.411 47.752 157.047 47.752C155.683 47.752 154.34 47.7933 153.017 47.876C151.736 47.9173 150.765 47.9587 150.103 48V46.698C151.591 46.698 152.645 46.388 153.265 45.768C153.885 45.148 154.195 43.97 154.195 42.234V24.316C154.195 23.0347 154.113 21.8567 153.947 20.782C153.782 19.7073 153.369 18.8393 152.707 18.178C152.046 17.5167 150.971 17.186 149.483 17.186C147.871 17.186 146.425 17.682 145.143 18.674C143.903 19.666 142.911 21.03 142.167 22.766C141.465 24.4607 141.113 26.362 141.113 28.47V42.234C141.113 43.97 141.423 45.148 142.043 45.768C142.663 46.388 143.717 46.698 145.205 46.698V48C144.544 47.9587 143.552 47.9173 142.229 47.876C140.948 47.7933 139.625 47.752 138.261 47.752C136.897 47.752 135.492 47.7933 134.045 47.876C132.599 47.9173 131.524 47.9587 130.821 48V46.698C132.516 46.698 133.715 46.388 134.417 45.768C135.161 45.148 135.533 43.97 135.533 42.234V22.828C135.533 20.968 135.203 19.604 134.541 18.736C133.88 17.8267 132.64 17.372 130.821 17.372V16.07C132.144 16.194 133.425 16.256 134.665 16.256C135.864 16.256 137.001 16.194 138.075 16.07C139.191 15.9047 140.204 15.6773 141.113 15.388V22.704C142.188 20.0173 143.655 18.0953 145.515 16.938C147.375 15.7807 149.297 15.202 151.281 15.202ZM169.943 15.202C171.39 15.202 172.651 15.4087 173.725 15.822C174.8 16.2353 175.689 16.814 176.391 17.558C177.177 18.3847 177.714 19.4593 178.003 20.782C178.293 22.1047 178.437 23.7373 178.437 25.68V42.234C178.437 43.97 178.789 45.148 179.491 45.768C180.235 46.388 181.455 46.698 183.149 46.698V48C182.447 47.9587 181.372 47.9173 179.925 47.876C178.479 47.7933 177.073 47.752 175.709 47.752C174.345 47.752 173.002 47.7933 171.679 47.876C170.398 47.9173 169.427 47.9587 168.765 48V46.698C170.253 46.698 171.307 46.388 171.927 45.768C172.547 45.148 172.857 43.97 172.857 42.234V24.316C172.857 23.0347 172.775 21.8567 172.609 20.782C172.444 19.7073 172.031 18.8393 171.369 18.178C170.708 17.5167 169.633 17.186 168.145 17.186C166.533 17.186 165.087 17.682 163.805 18.674C162.565 19.666 161.573 21.0093 160.829 22.704C160.127 24.3987 159.775 26.3 159.775 28.408L159.589 22.642C160.705 19.79 162.214 17.8473 164.115 16.814C166.017 15.7393 167.959 15.202 169.943 15.202Z" fill="#CECECB"/>
</svg>
