<svg width="299" height="128" viewBox="0 0 299 128" fill="none" xmlns="http://www.w3.org/2000/svg">
<path d="M15.325 5.06C21.8883 5.06 26.765 6.71 29.955 10.01C33.145 13.2733 34.74 17.9667 34.74 24.09C34.74 28.0867 33.9517 31.5883 32.375 34.595C30.835 37.565 28.58 39.875 25.61 41.525C22.64 43.175 19.0467 44 14.83 44C14.28 44 13.5467 43.9817 12.63 43.945C11.7133 43.9083 10.76 43.89 9.77 43.89C8.81667 43.8533 7.93667 43.835 7.13 43.835C5.84667 43.835 4.58167 43.8533 3.335 43.89C2.08833 43.89 1.08 43.9267 0.31 44V42.9C1.55667 42.8267 2.49167 42.68 3.115 42.46C3.775 42.24 4.215 41.8 4.435 41.14C4.655 40.48 4.765 39.49 4.765 38.17V10.89C4.765 9.53333 4.655 8.54333 4.435 7.92C4.215 7.26 3.775 6.82 3.115 6.6C2.49167 6.34333 1.55667 6.19666 0.31 6.16V5.06C1.08 5.09667 2.08833 5.15167 3.335 5.225C4.58167 5.26166 5.81 5.26166 7.02 5.225C8.30333 5.18833 9.75167 5.15167 11.365 5.115C12.9783 5.07833 14.2983 5.06 15.325 5.06ZM13.95 6.05C12.2633 6.05 11.1633 6.36166 10.65 6.985C10.1367 7.60833 9.88 8.87333 9.88 10.78V38.28C9.88 40.1867 10.1367 41.4517 10.65 42.075C11.2 42.6983 12.3183 43.01 14.005 43.01C18.0017 43.01 21.1 42.295 23.3 40.865C25.5 39.3983 27.04 37.2717 27.92 34.485C28.8 31.6983 29.24 28.3067 29.24 24.31C29.24 20.2033 28.745 16.8117 27.755 14.135C26.8017 11.4217 25.2067 9.405 22.97 8.085C20.77 6.72833 17.7633 6.05 13.95 6.05ZM46.8825 44.385C45.3792 44.385 44.0775 44.11 42.9775 43.56C41.8775 42.9733 41.0342 42.1667 40.4475 41.14C39.8975 40.1133 39.6225 38.9217 39.6225 37.565C39.6225 35.9517 39.9892 34.6317 40.7225 33.605C41.4925 32.5783 42.4642 31.7533 43.6375 31.13C44.8109 30.5067 46.0392 29.9933 47.3225 29.59C48.6425 29.15 49.8892 28.7467 51.0625 28.38C52.2359 27.9767 53.1892 27.5183 53.9225 27.005C54.6925 26.4917 55.0775 25.8133 55.0775 24.97V21.56C55.0775 20.02 54.8392 18.8467 54.3625 18.04C53.9225 17.2333 53.3175 16.7017 52.5475 16.445C51.7775 16.1517 50.9159 16.005 49.9625 16.005C49.0459 16.005 48.0559 16.1333 46.9925 16.39C45.9659 16.6467 45.1409 17.1783 44.5175 17.985C45.2142 18.1317 45.8192 18.4983 46.3325 19.085C46.8459 19.6717 47.1025 20.4233 47.1025 21.34C47.1025 22.2567 46.8092 22.99 46.2225 23.54C45.6359 24.0533 44.8842 24.31 43.9675 24.31C42.9042 24.31 42.1159 23.98 41.6025 23.32C41.1259 22.6233 40.8875 21.8533 40.8875 21.01C40.8875 20.0567 41.1259 19.2867 41.6025 18.7C42.0792 18.1133 42.6842 17.5633 43.4175 17.05C44.2609 16.4633 45.3425 15.9683 46.6625 15.565C48.0192 15.125 49.5409 14.905 51.2275 14.905C52.7309 14.905 54.0142 15.0883 55.0775 15.455C56.1409 15.785 57.0209 16.28 57.7175 16.94C58.6709 17.82 59.2942 18.9017 59.5875 20.185C59.8809 21.4317 60.0275 22.935 60.0275 24.695V39.985C60.0275 40.9017 60.1559 41.5617 60.4125 41.965C60.7059 42.3683 61.1459 42.57 61.7325 42.57C62.1359 42.57 62.5209 42.4783 62.8875 42.295C63.2542 42.1117 63.6942 41.8183 64.2075 41.415L64.8125 42.35C64.0425 42.9367 63.3092 43.4317 62.6125 43.835C61.9159 44.2017 60.9809 44.385 59.8075 44.385C58.7442 44.385 57.8642 44.2017 57.1675 43.835C56.4709 43.4683 55.9392 42.9367 55.5725 42.24C55.2425 41.5067 55.0775 40.59 55.0775 39.49C54.0875 41.14 52.8959 42.3683 51.5025 43.175C50.1459 43.9817 48.6059 44.385 46.8825 44.385ZM48.8625 42.185C50.0725 42.185 51.1909 41.8367 52.2175 41.14C53.2809 40.4433 54.2342 39.3983 55.0775 38.005V27.225C54.6375 27.8483 53.9959 28.38 53.1525 28.82C52.3092 29.2233 51.3925 29.645 50.4025 30.085C49.4125 30.4883 48.4592 30.9833 47.5425 31.57C46.6625 32.12 45.9292 32.8533 45.3425 33.77C44.7559 34.6867 44.4625 35.8783 44.4625 37.345C44.4625 38.8117 44.8475 39.985 45.6175 40.865C46.4242 41.745 47.5059 42.185 48.8625 42.185ZM91.3316 15.675V16.775C90.6349 16.8483 89.9932 17.16 89.4066 17.71C88.8199 18.26 88.2699 19.2317 87.7566 20.625L78.7366 44.275C78.5899 44.275 78.4432 44.275 78.2966 44.275C78.1499 44.275 77.9849 44.275 77.8016 44.275L67.6816 19.91C67.0949 18.48 66.5082 17.6183 65.9216 17.325C65.3716 16.995 64.8949 16.83 64.4916 16.83V15.675C65.2249 15.7117 65.9766 15.7667 66.7466 15.84C67.5532 15.8767 68.4149 15.895 69.3316 15.895C70.4682 15.895 71.6599 15.8767 72.9066 15.84C74.1899 15.8033 75.3816 15.7483 76.4816 15.675V16.83C75.5649 16.83 74.7399 16.9033 74.0066 17.05C73.3099 17.16 72.8516 17.5083 72.6316 18.095C72.4482 18.6817 72.6316 19.69 73.1816 21.12L80.0566 38.115L79.7266 38.39L85.9966 21.945C86.4732 20.735 86.6566 19.7817 86.5466 19.085C86.4732 18.3517 86.1066 17.8017 85.4466 17.435C84.8232 17.0683 83.8516 16.8483 82.5316 16.775V15.675C83.1916 15.7117 83.7599 15.7483 84.2366 15.785C84.7132 15.785 85.1716 15.8033 85.6116 15.84C86.0882 15.84 86.6016 15.84 87.1516 15.84C87.9949 15.84 88.7466 15.8217 89.4066 15.785C90.1032 15.7483 90.7449 15.7117 91.3316 15.675ZM99.3757 1.925C100.329 1.925 101.154 2.27333 101.851 2.97C102.547 3.66666 102.896 4.49166 102.896 5.445C102.896 6.39833 102.547 7.22333 101.851 7.92C101.154 8.61667 100.329 8.965 99.3757 8.965C98.4224 8.965 97.5974 8.61667 96.9007 7.92C96.2041 7.22333 95.8557 6.39833 95.8557 5.445C95.8557 4.49166 96.2041 3.66666 96.9007 2.97C97.5974 2.27333 98.4224 1.925 99.3757 1.925ZM102.236 15.07V38.885C102.236 40.425 102.547 41.47 103.171 42.02C103.831 42.57 104.912 42.845 106.416 42.845V44C105.792 43.9633 104.839 43.9267 103.556 43.89C102.309 43.8167 101.044 43.78 99.7607 43.78C98.5141 43.78 97.2491 43.8167 95.9657 43.89C94.6824 43.9267 93.7291 43.9633 93.1057 44V42.845C94.6091 42.845 95.6724 42.57 96.2957 42.02C96.9557 41.47 97.2857 40.425 97.2857 38.885V21.67C97.2857 20.02 96.9924 18.81 96.4057 18.04C95.8191 17.2333 94.7191 16.83 93.1057 16.83V15.675C94.2791 15.785 95.4157 15.84 96.5157 15.84C97.5791 15.84 98.5874 15.785 99.5407 15.675C100.531 15.5283 101.429 15.3267 102.236 15.07ZM134.244 0.879998V38.005C134.244 39.655 134.537 40.8833 135.124 41.69C135.747 42.46 136.847 42.845 138.424 42.845V44C137.287 43.89 136.151 43.835 135.014 43.835C133.951 43.835 132.924 43.89 131.934 44C130.981 44.11 130.101 44.3117 129.294 44.605V7.48C129.294 5.83 129.001 4.62 128.414 3.85C127.827 3.04333 126.727 2.64 125.114 2.64V1.485C126.287 1.595 127.424 1.65 128.524 1.65C129.587 1.65 130.596 1.595 131.549 1.485C132.539 1.33833 133.437 1.13667 134.244 0.879998ZM122.694 14.905C124.307 14.905 125.811 15.29 127.204 16.06C128.634 16.83 129.587 18.15 130.064 20.02L129.349 20.57C128.836 19.03 128.029 17.9117 126.929 17.215C125.866 16.5183 124.601 16.17 123.134 16.17C120.971 16.17 119.156 17.2883 117.689 19.525C116.259 21.7617 115.562 25.2083 115.599 29.865C115.599 32.835 115.874 35.31 116.424 37.29C117.011 39.2333 117.854 40.7 118.954 41.69C120.091 42.6433 121.466 43.12 123.079 43.12C124.619 43.12 126.012 42.46 127.259 41.14C128.506 39.82 129.257 37.8767 129.514 35.31L130.174 36.08C129.881 38.8667 128.982 41.0117 127.479 42.515C126.012 44.0183 124.014 44.77 121.484 44.77C119.211 44.77 117.212 44.22 115.489 43.12C113.802 42.02 112.501 40.37 111.584 38.17C110.704 35.97 110.264 33.2017 110.264 29.865C110.264 26.5283 110.832 23.76 111.969 21.56C113.142 19.3233 114.664 17.655 116.534 16.555C118.441 15.455 120.494 14.905 122.694 14.905ZM155.588 5.06C156.358 5.09667 157.367 5.13333 158.613 5.17C159.86 5.20666 161.088 5.225 162.298 5.225C164.022 5.225 165.672 5.20666 167.248 5.17C168.825 5.13333 169.943 5.115 170.603 5.115C174.453 5.115 177.35 5.92167 179.293 7.535C181.237 9.14833 182.208 11.22 182.208 13.75C182.208 15.0333 181.933 16.2983 181.383 17.545C180.87 18.755 179.99 19.8733 178.743 20.9C177.533 21.89 175.902 22.6967 173.848 23.32V23.43C176.745 23.7967 179 24.4933 180.613 25.52C182.263 26.51 183.418 27.6833 184.078 29.04C184.738 30.3967 185.068 31.8267 185.068 33.33C185.068 35.42 184.537 37.2717 183.473 38.885C182.447 40.4617 180.943 41.7083 178.963 42.625C176.983 43.5417 174.618 44 171.868 44C171.062 44 169.852 43.9817 168.238 43.945C166.625 43.8717 164.682 43.835 162.408 43.835C161.125 43.835 159.86 43.8533 158.613 43.89C157.367 43.89 156.358 43.9267 155.588 44V42.9C156.835 42.8267 157.77 42.68 158.393 42.46C159.053 42.24 159.493 41.8 159.713 41.14C159.933 40.48 160.043 39.49 160.043 38.17V10.89C160.043 9.53333 159.933 8.54333 159.713 7.92C159.493 7.26 159.053 6.82 158.393 6.6C157.77 6.34333 156.835 6.19666 155.588 6.16V5.06ZM169.228 6.16C167.542 6.16 166.442 6.47167 165.928 7.095C165.415 7.71833 165.158 8.98333 165.158 10.89V38.17C165.158 39.4533 165.268 40.425 165.488 41.085C165.708 41.745 166.112 42.185 166.698 42.405C167.285 42.625 168.147 42.735 169.283 42.735C172.877 42.735 175.48 41.91 177.093 40.26C178.743 38.5733 179.568 36.19 179.568 33.11C179.568 30.2867 178.798 28.105 177.258 26.565C175.755 25.025 173.262 24.255 169.778 24.255H164.113C164.113 24.255 164.113 24.1083 164.113 23.815C164.113 23.485 164.113 23.32 164.113 23.32H168.843C171.007 23.32 172.675 22.9167 173.848 22.11C175.022 21.2667 175.828 20.1667 176.268 18.81C176.708 17.4167 176.928 15.9317 176.928 14.355C176.928 11.6417 176.323 9.60666 175.113 8.25C173.94 6.85667 171.978 6.16 169.228 6.16ZM205.977 14.905C206.967 14.905 207.829 15.1067 208.562 15.51C209.332 15.9133 209.919 16.445 210.322 17.105C210.762 17.7283 210.982 18.4433 210.982 19.25C210.982 20.1667 210.689 20.9733 210.102 21.67C209.552 22.3667 208.801 22.715 207.847 22.715C207.077 22.715 206.399 22.4767 205.812 22C205.226 21.4867 204.932 20.7717 204.932 19.855C204.932 19.1583 205.116 18.5717 205.482 18.095C205.886 17.5817 206.326 17.1783 206.802 16.885C206.546 16.5183 206.161 16.335 205.647 16.335C204.511 16.335 203.466 16.6833 202.512 17.38C201.559 18.04 200.752 18.9017 200.092 19.965C199.432 21.0283 198.919 22.165 198.552 23.375C198.186 24.5483 198.002 25.6483 198.002 26.675V38.335C198.002 40.1317 198.516 41.3417 199.542 41.965C200.606 42.5517 202.036 42.845 203.832 42.845V44C202.989 43.9633 201.797 43.9267 200.257 43.89C198.717 43.8167 197.086 43.78 195.362 43.78C194.116 43.78 192.869 43.8167 191.622 43.89C190.412 43.9267 189.496 43.9633 188.872 44V42.845C190.376 42.845 191.439 42.57 192.062 42.02C192.722 41.47 193.052 40.425 193.052 38.885V21.67C193.052 20.02 192.759 18.81 192.172 18.04C191.586 17.2333 190.486 16.83 188.872 16.83V15.675C190.046 15.785 191.182 15.84 192.282 15.84C193.346 15.84 194.354 15.785 195.307 15.675C196.297 15.5283 197.196 15.3267 198.002 15.07V21.945C198.406 20.8817 198.974 19.8183 199.707 18.755C200.477 17.655 201.394 16.7383 202.457 16.005C203.521 15.2717 204.694 14.905 205.977 14.905ZM238.94 15.675V16.775C238.243 16.8483 237.601 17.16 237.015 17.71C236.428 18.26 235.878 19.2317 235.365 20.625L226.345 44.275H225.41L215.29 19.91C214.593 18.48 213.896 17.6183 213.2 17.325C212.54 16.995 211.99 16.83 211.55 16.83V15.675C212.356 15.785 213.2 15.8767 214.08 15.95C214.96 15.9867 215.913 16.005 216.94 16.005C218.076 16.005 219.268 15.9683 220.515 15.895C221.798 15.8217 222.99 15.7483 224.09 15.675V16.83C223.173 16.83 222.348 16.9033 221.615 17.05C220.918 17.16 220.478 17.545 220.295 18.205C220.111 18.8283 220.331 19.91 220.955 21.45L227.72 38.225L227.39 38.335L233.66 21.945C234.136 20.735 234.32 19.7817 234.21 19.085C234.136 18.3517 233.77 17.8017 233.11 17.435C232.45 17.0683 231.46 16.8483 230.14 16.775V15.675C230.8 15.7117 231.368 15.7483 231.845 15.785C232.321 15.785 232.78 15.8033 233.22 15.84C233.696 15.84 234.21 15.84 234.76 15.84C235.603 15.84 236.355 15.8217 237.015 15.785C237.711 15.7483 238.353 15.7117 238.94 15.675ZM226.345 44.275L224.475 49.06C224.108 49.9767 223.723 50.7467 223.32 51.37C222.953 51.9933 222.55 52.5067 222.11 52.91C221.523 53.46 220.826 53.8267 220.02 54.01C219.213 54.23 218.48 54.34 217.82 54.34C217.123 54.34 216.481 54.2117 215.895 53.955C215.345 53.6983 214.905 53.3133 214.575 52.8C214.245 52.3233 214.08 51.7367 214.08 51.04C214.08 50.16 214.336 49.445 214.85 48.895C215.363 48.3817 216.078 48.125 216.995 48.125C217.765 48.125 218.425 48.345 218.975 48.785C219.525 49.225 219.8 49.8667 219.8 50.71C219.8 51.3333 219.653 51.8467 219.36 52.25C219.066 52.6533 218.718 52.965 218.315 53.185C218.388 53.2217 218.443 53.24 218.48 53.24C218.553 53.24 218.608 53.24 218.645 53.24C219.635 53.24 220.515 52.8917 221.285 52.195C222.055 51.535 222.733 50.4533 223.32 48.95L225.3 43.835L226.345 44.275ZM248.567 44.385C247.064 44.385 245.762 44.11 244.662 43.56C243.562 42.9733 242.719 42.1667 242.132 41.14C241.582 40.1133 241.307 38.9217 241.307 37.565C241.307 35.9517 241.674 34.6317 242.407 33.605C243.177 32.5783 244.149 31.7533 245.322 31.13C246.495 30.5067 247.724 29.9933 249.007 29.59C250.327 29.15 251.574 28.7467 252.747 28.38C253.92 27.9767 254.874 27.5183 255.607 27.005C256.377 26.4917 256.762 25.8133 256.762 24.97V21.56C256.762 20.02 256.524 18.8467 256.047 18.04C255.607 17.2333 255.002 16.7017 254.232 16.445C253.462 16.1517 252.6 16.005 251.647 16.005C250.73 16.005 249.74 16.1333 248.677 16.39C247.65 16.6467 246.825 17.1783 246.202 17.985C246.899 18.1317 247.504 18.4983 248.017 19.085C248.53 19.6717 248.787 20.4233 248.787 21.34C248.787 22.2567 248.494 22.99 247.907 23.54C247.32 24.0533 246.569 24.31 245.652 24.31C244.589 24.31 243.8 23.98 243.287 23.32C242.81 22.6233 242.572 21.8533 242.572 21.01C242.572 20.0567 242.81 19.2867 243.287 18.7C243.764 18.1133 244.369 17.5633 245.102 17.05C245.945 16.4633 247.027 15.9683 248.347 15.565C249.704 15.125 251.225 14.905 252.912 14.905C254.415 14.905 255.699 15.0883 256.762 15.455C257.825 15.785 258.705 16.28 259.402 16.94C260.355 17.82 260.979 18.9017 261.272 20.185C261.565 21.4317 261.712 22.935 261.712 24.695V39.985C261.712 40.9017 261.84 41.5617 262.097 41.965C262.39 42.3683 262.83 42.57 263.417 42.57C263.82 42.57 264.205 42.4783 264.572 42.295C264.939 42.1117 265.379 41.8183 265.892 41.415L266.497 42.35C265.727 42.9367 264.994 43.4317 264.297 43.835C263.6 44.2017 262.665 44.385 261.492 44.385C260.429 44.385 259.549 44.2017 258.852 43.835C258.155 43.4683 257.624 42.9367 257.257 42.24C256.927 41.5067 256.762 40.59 256.762 39.49C255.772 41.14 254.58 42.3683 253.187 43.175C251.83 43.9817 250.29 44.385 248.567 44.385ZM250.547 42.185C251.757 42.185 252.875 41.8367 253.902 41.14C254.965 40.4433 255.919 39.3983 256.762 38.005V27.225C256.322 27.8483 255.68 28.38 254.837 28.82C253.994 29.2233 253.077 29.645 252.087 30.085C251.097 30.4883 250.144 30.9833 249.227 31.57C248.347 32.12 247.614 32.8533 247.027 33.77C246.44 34.6867 246.147 35.8783 246.147 37.345C246.147 38.8117 246.532 39.985 247.302 40.865C248.109 41.745 249.19 42.185 250.547 42.185ZM286.63 14.905C288.023 14.905 289.178 15.0883 290.095 15.455C291.048 15.8217 291.836 16.335 292.46 16.995C293.156 17.7283 293.651 18.645 293.945 19.745C294.238 20.845 294.385 22.33 294.385 24.2V38.885C294.385 40.425 294.696 41.47 295.32 42.02C295.98 42.57 297.061 42.845 298.565 42.845V44C297.941 43.9633 296.988 43.9267 295.705 43.89C294.421 43.8167 293.175 43.78 291.965 43.78C290.755 43.78 289.563 43.8167 288.39 43.89C287.253 43.9267 286.391 43.9633 285.805 44V42.845C287.125 42.845 288.06 42.57 288.61 42.02C289.16 41.47 289.435 40.425 289.435 38.885V22.99C289.435 21.8533 289.343 20.8083 289.16 19.855C288.976 18.9017 288.555 18.1317 287.895 17.545C287.271 16.9583 286.3 16.665 284.98 16.665C283.44 16.665 282.083 17.105 280.91 17.985C279.773 18.865 278.875 20.075 278.215 21.615C277.591 23.1183 277.28 24.805 277.28 26.675V38.885C277.28 40.425 277.555 41.47 278.105 42.02C278.655 42.57 279.59 42.845 280.91 42.845V44C280.323 43.9633 279.443 43.9267 278.27 43.89C277.133 43.8167 275.96 43.78 274.75 43.78C273.54 43.78 272.293 43.8167 271.01 43.89C269.726 43.9267 268.773 43.9633 268.15 44V42.845C269.653 42.845 270.716 42.57 271.34 42.02C272 41.47 272.33 40.425 272.33 38.885V21.67C272.33 20.02 272.036 18.81 271.45 18.04C270.863 17.2333 269.763 16.83 268.15 16.83V15.675C269.323 15.785 270.46 15.84 271.56 15.84C272.623 15.84 273.631 15.785 274.585 15.675C275.575 15.5283 276.473 15.3267 277.28 15.07V21.56C278.233 19.0667 279.553 17.3433 281.24 16.39C282.963 15.4 284.76 14.905 286.63 14.905ZM0.31 78.06C1.08 78.0967 2.08833 78.1333 3.335 78.17C4.58167 78.2067 5.81 78.225 7.02 78.225C8.74333 78.225 10.3933 78.2067 11.97 78.17C13.5467 78.1333 14.665 78.115 15.325 78.115C18.295 78.115 20.7517 78.5367 22.695 79.38C24.675 80.2233 26.1417 81.3783 27.095 82.845C28.085 84.275 28.58 85.8883 28.58 87.685C28.58 88.785 28.36 89.9583 27.92 91.205C27.48 92.4517 26.71 93.625 25.61 94.725C24.5467 95.825 23.08 96.7417 21.21 97.475C19.34 98.1717 16.975 98.52 14.115 98.52H8.835V97.42H13.565C16.1683 97.42 18.1483 97.0167 19.505 96.21C20.8983 95.3667 21.8333 94.2667 22.31 92.91C22.8233 91.5167 23.08 89.9767 23.08 88.29C23.08 85.3933 22.3833 83.1567 20.99 81.58C19.6333 79.9667 17.2867 79.16 13.95 79.16C12.2633 79.16 11.1633 79.4717 10.65 80.095C10.1367 80.7183 9.88 81.9833 9.88 83.89V111.17C9.88 112.49 9.99 113.48 10.21 114.14C10.43 114.8 10.8517 115.24 11.475 115.46C12.135 115.68 13.0883 115.827 14.335 115.9V117C13.4917 116.927 12.4283 116.89 11.145 116.89C9.89833 116.853 8.63333 116.835 7.35 116.835C5.92 116.835 4.58167 116.853 3.335 116.89C2.08833 116.89 1.08 116.927 0.31 117V115.9C1.55667 115.827 2.49167 115.68 3.115 115.46C3.775 115.24 4.215 114.8 4.435 114.14C4.655 113.48 4.765 112.49 4.765 111.17V83.89C4.765 82.5333 4.655 81.5433 4.435 80.92C4.215 80.26 3.775 79.82 3.115 79.6C2.49167 79.3433 1.55667 79.1967 0.31 79.16V78.06ZM9.055 97.585C11.035 97.6583 12.5933 97.75 13.73 97.86C14.8667 97.9333 15.7833 98.0067 16.48 98.08C17.2133 98.1533 17.91 98.245 18.57 98.355C21.0267 98.7583 22.7867 99.51 23.85 100.61C24.95 101.673 25.7567 103.342 26.27 105.615L27.645 111.225C28.0117 112.838 28.3783 114.012 28.745 114.745C29.1483 115.442 29.7533 115.772 30.56 115.735C31.1833 115.698 31.6967 115.497 32.1 115.13C32.54 114.763 32.9983 114.268 33.475 113.645L34.3 114.25C33.53 115.387 32.7233 116.267 31.88 116.89C31.0733 117.477 29.9183 117.77 28.415 117.77C27.0583 117.77 25.8667 117.367 24.84 116.56C23.8133 115.753 23.0433 114.177 22.53 111.83L21.32 106.33C20.99 104.753 20.605 103.397 20.165 102.26C19.7617 101.087 19.175 100.17 18.405 99.51C17.6717 98.85 16.5717 98.52 15.105 98.52H9.165L9.055 97.585ZM43.0691 117.385C41.5657 117.385 40.2641 117.11 39.1641 116.56C38.0641 115.973 37.2207 115.167 36.6341 114.14C36.0841 113.113 35.8091 111.922 35.8091 110.565C35.8091 108.952 36.1757 107.632 36.9091 106.605C37.6791 105.578 38.6507 104.753 39.8241 104.13C40.9974 103.507 42.2257 102.993 43.5091 102.59C44.8291 102.15 46.0757 101.747 47.2491 101.38C48.4224 100.977 49.3757 100.518 50.1091 100.005C50.8791 99.4917 51.2641 98.8133 51.2641 97.97V94.56C51.2641 93.02 51.0257 91.8467 50.5491 91.04C50.1091 90.2333 49.5041 89.7017 48.7341 89.445C47.9641 89.1517 47.1024 89.005 46.1491 89.005C45.2324 89.005 44.2424 89.1333 43.1791 89.39C42.1524 89.6467 41.3274 90.1783 40.7041 90.985C41.4007 91.1317 42.0057 91.4983 42.5191 92.085C43.0324 92.6717 43.2891 93.4233 43.2891 94.34C43.2891 95.2567 42.9957 95.99 42.4091 96.54C41.8224 97.0533 41.0707 97.31 40.1541 97.31C39.0907 97.31 38.3024 96.98 37.7891 96.32C37.3124 95.6233 37.0741 94.8533 37.0741 94.01C37.0741 93.0567 37.3124 92.2867 37.7891 91.7C38.2657 91.1133 38.8707 90.5633 39.6041 90.05C40.4474 89.4633 41.5291 88.9683 42.8491 88.565C44.2057 88.125 45.7274 87.905 47.4141 87.905C48.9174 87.905 50.2007 88.0883 51.2641 88.455C52.3274 88.785 53.2074 89.28 53.9041 89.94C54.8574 90.82 55.4807 91.9017 55.7741 93.185C56.0674 94.4317 56.2141 95.935 56.2141 97.695V112.985C56.2141 113.902 56.3424 114.562 56.5991 114.965C56.8924 115.368 57.3324 115.57 57.9191 115.57C58.3224 115.57 58.7074 115.478 59.0741 115.295C59.4407 115.112 59.8807 114.818 60.3941 114.415L60.9991 115.35C60.2291 115.937 59.4957 116.432 58.7991 116.835C58.1024 117.202 57.1674 117.385 55.9941 117.385C54.9307 117.385 54.0507 117.202 53.3541 116.835C52.6574 116.468 52.1257 115.937 51.7591 115.24C51.4291 114.507 51.2641 113.59 51.2641 112.49C50.2741 114.14 49.0824 115.368 47.6891 116.175C46.3324 116.982 44.7924 117.385 43.0691 117.385ZM45.0491 115.185C46.2591 115.185 47.3774 114.837 48.4041 114.14C49.4674 113.443 50.4207 112.398 51.2641 111.005V100.225C50.8241 100.848 50.1824 101.38 49.3391 101.82C48.4957 102.223 47.5791 102.645 46.5891 103.085C45.5991 103.488 44.6457 103.983 43.7291 104.57C42.8491 105.12 42.1157 105.853 41.5291 106.77C40.9424 107.687 40.6491 108.878 40.6491 110.345C40.6491 111.812 41.0341 112.985 41.8041 113.865C42.6107 114.745 43.6924 115.185 45.0491 115.185ZM80.8016 87.905C82.085 87.905 83.2033 88.0883 84.1566 88.455C85.11 88.8217 85.8983 89.335 86.5216 89.995C87.2183 90.7283 87.695 91.6817 87.9516 92.855C88.2083 94.0283 88.3366 95.4767 88.3366 97.2V111.885C88.3366 113.425 88.6483 114.47 89.2716 115.02C89.9316 115.57 91.0133 115.845 92.5166 115.845V117C91.8933 116.963 90.94 116.927 89.6566 116.89C88.3733 116.817 87.1266 116.78 85.9166 116.78C84.7066 116.78 83.515 116.817 82.3416 116.89C81.205 116.927 80.3433 116.963 79.7566 117V115.845C81.0766 115.845 82.0116 115.57 82.5616 115.02C83.1116 114.47 83.3866 113.425 83.3866 111.885V95.99C83.3866 94.8533 83.3133 93.8083 83.1666 92.855C83.02 91.9017 82.6533 91.1317 82.0666 90.545C81.48 89.9583 80.5266 89.665 79.2066 89.665C77.7766 89.665 76.4933 90.105 75.3566 90.985C74.2566 91.865 73.3766 93.075 72.7166 94.615C72.0933 96.1183 71.7816 97.805 71.7816 99.675V111.885C71.7816 113.425 72.0566 114.47 72.6066 115.02C73.1566 115.57 74.0916 115.845 75.4116 115.845V117C74.825 116.963 73.945 116.927 72.7716 116.89C71.635 116.817 70.4616 116.78 69.2516 116.78C68.0416 116.78 66.795 116.817 65.5116 116.89C64.2283 116.927 63.275 116.963 62.6516 117V115.845C64.155 115.845 65.2183 115.57 65.8416 115.02C66.5016 114.47 66.8316 113.425 66.8316 111.885V94.67C66.8316 93.02 66.5383 91.81 65.9516 91.04C65.365 90.2333 64.265 89.83 62.6516 89.83V88.675C63.825 88.785 64.9616 88.84 66.0616 88.84C67.125 88.84 68.1333 88.785 69.0866 88.675C70.0766 88.5283 70.975 88.3267 71.7816 88.07V94.56C72.735 92.1767 74.0366 90.4717 75.6866 89.445C77.3366 88.4183 79.0416 87.905 80.8016 87.905ZM97.3566 87.905C98.64 87.905 99.7583 88.0883 100.712 88.455C101.665 88.8217 102.453 89.335 103.077 89.995C103.773 90.7283 104.25 91.6817 104.507 92.855C104.763 94.0283 104.892 95.4767 104.892 97.2V111.885C104.892 113.425 105.203 114.47 105.827 115.02C106.487 115.57 107.568 115.845 109.072 115.845V117C108.448 116.963 107.495 116.927 106.212 116.89C104.928 116.817 103.682 116.78 102.472 116.78C101.262 116.78 100.07 116.817 98.8966 116.89C97.76 116.927 96.8983 116.963 96.3116 117V115.845C97.6316 115.845 98.5666 115.57 99.1166 115.02C99.6666 114.47 99.9416 113.425 99.9416 111.885V95.99C99.9416 94.8533 99.8683 93.8083 99.7216 92.855C99.575 91.9017 99.2083 91.1317 98.6216 90.545C98.035 89.9583 97.0816 89.665 95.7616 89.665C94.3316 89.665 93.0483 90.105 91.9116 90.985C90.8116 91.865 89.9316 93.0567 89.2716 94.56C88.6483 96.0633 88.3366 97.75 88.3366 99.62L88.1716 94.505C89.1616 91.975 90.5 90.2517 92.1866 89.335C93.8733 88.3817 95.5966 87.905 97.3566 87.905ZM127.81 87.905C130.817 87.905 133.31 89.1517 135.29 91.645C137.27 94.1017 138.26 97.8417 138.26 102.865C138.26 106.165 137.692 108.933 136.555 111.17C135.455 113.37 133.97 115.02 132.1 116.12C130.23 117.22 128.195 117.77 125.995 117.77C124.162 117.77 122.383 117.257 120.66 116.23C118.973 115.167 117.708 113.608 116.865 111.555L117.965 112.16C118.882 113.627 120.018 114.727 121.375 115.46C122.732 116.157 124.125 116.505 125.555 116.505C128.012 116.505 129.845 115.405 131.055 113.205C132.302 110.968 132.925 107.522 132.925 102.865C132.925 99.895 132.687 97.42 132.21 95.44C131.733 93.46 131 91.9933 130.01 91.04C129.02 90.05 127.755 89.555 126.215 89.555C124.528 89.555 122.952 90.325 121.485 91.865C120.055 93.3683 119.175 95.5867 118.845 98.52L118.185 97.75C118.588 94.6333 119.67 92.2133 121.43 90.49C123.227 88.7667 125.353 87.905 127.81 87.905ZM119.23 73.935V114.14C118.753 114.543 118.258 114.965 117.745 115.405C117.268 115.808 116.792 116.212 116.315 116.615C115.838 117.018 115.343 117.44 114.83 117.88L113.895 117.495C114.042 116.982 114.133 116.468 114.17 115.955C114.243 115.405 114.28 114.855 114.28 114.305V80.535C114.28 78.885 113.987 77.675 113.4 76.905C112.813 76.0983 111.713 75.695 110.1 75.695V74.54C111.273 74.65 112.41 74.705 113.51 74.705C114.573 74.705 115.582 74.65 116.535 74.54C117.525 74.3933 118.423 74.1917 119.23 73.935ZM155.941 87.905C158.288 87.905 160.396 88.4183 162.266 89.445C164.136 90.4717 165.621 92.085 166.721 94.285C167.858 96.485 168.426 99.345 168.426 102.865C168.426 106.385 167.858 109.245 166.721 111.445C165.621 113.608 164.136 115.203 162.266 116.23C160.396 117.257 158.288 117.77 155.941 117.77C153.631 117.77 151.523 117.257 149.616 116.23C147.746 115.203 146.243 113.608 145.106 111.445C144.006 109.245 143.456 106.385 143.456 102.865C143.456 99.345 144.006 96.485 145.106 94.285C146.243 92.085 147.746 90.4717 149.616 89.445C151.523 88.4183 153.631 87.905 155.941 87.905ZM155.941 89.005C153.851 89.005 152.128 90.0867 150.771 92.25C149.451 94.4133 148.791 97.9517 148.791 102.865C148.791 107.778 149.451 111.317 150.771 113.48C152.128 115.607 153.851 116.67 155.941 116.67C158.031 116.67 159.736 115.607 161.056 113.48C162.413 111.317 163.091 107.778 163.091 102.865C163.091 97.9517 162.413 94.4133 161.056 92.25C159.736 90.0867 158.031 89.005 155.941 89.005ZM197.69 88.675V89.775C196.993 89.8483 196.351 90.16 195.765 90.71C195.178 91.26 194.628 92.2317 194.115 93.625L185.095 117.275H184.16L174.04 92.91C173.343 91.48 172.646 90.6183 171.95 90.325C171.29 89.995 170.74 89.83 170.3 89.83V88.675C171.106 88.785 171.95 88.8767 172.83 88.95C173.71 88.9867 174.663 89.005 175.69 89.005C176.826 89.005 178.018 88.9683 179.265 88.895C180.548 88.8217 181.74 88.7483 182.84 88.675V89.83C181.923 89.83 181.098 89.9033 180.365 90.05C179.668 90.16 179.228 90.545 179.045 91.205C178.861 91.8283 179.081 92.91 179.705 94.45L186.47 111.225L186.14 111.335L192.41 94.945C192.886 93.735 193.07 92.7817 192.96 92.085C192.886 91.3517 192.52 90.8017 191.86 90.435C191.2 90.0683 190.21 89.8483 188.89 89.775V88.675C189.55 88.7117 190.118 88.7483 190.595 88.785C191.071 88.785 191.53 88.8033 191.97 88.84C192.446 88.84 192.96 88.84 193.51 88.84C194.353 88.84 195.105 88.8217 195.765 88.785C196.461 88.7483 197.103 88.7117 197.69 88.675ZM185.095 117.275L183.225 122.06C182.858 122.977 182.473 123.747 182.07 124.37C181.703 124.993 181.3 125.507 180.86 125.91C180.273 126.46 179.576 126.827 178.77 127.01C177.963 127.23 177.23 127.34 176.57 127.34C175.873 127.34 175.231 127.212 174.645 126.955C174.095 126.698 173.655 126.313 173.325 125.8C172.995 125.323 172.83 124.737 172.83 124.04C172.83 123.16 173.086 122.445 173.6 121.895C174.113 121.382 174.828 121.125 175.745 121.125C176.515 121.125 177.175 121.345 177.725 121.785C178.275 122.225 178.55 122.867 178.55 123.71C178.55 124.333 178.403 124.847 178.11 125.25C177.816 125.653 177.468 125.965 177.065 126.185C177.138 126.222 177.193 126.24 177.23 126.24C177.303 126.24 177.358 126.24 177.395 126.24C178.385 126.24 179.265 125.892 180.035 125.195C180.805 124.535 181.483 123.453 182.07 121.95L184.05 116.835L185.095 117.275Z" fill="#CECECB"/>
</svg>
