<svg width="163" height="51" viewBox="0 0 163 51" fill="none" xmlns="http://www.w3.org/2000/svg">
<path d="M23.3 43V41.9C24.5467 41.8267 25.4817 41.68 26.105 41.46C26.765 41.24 27.205 40.8 27.425 40.14C27.645 39.48 27.755 38.49 27.755 37.17V9.89C27.755 8.53333 27.645 7.54333 27.425 6.92C27.205 6.26 26.765 5.82 26.105 5.6C25.4817 5.34333 24.5467 5.19666 23.3 5.16V4.06C24.1433 4.09667 25.2067 4.13333 26.49 4.17C27.7733 4.20666 29.0383 4.225 30.285 4.225C31.715 4.225 33.0533 4.20666 34.3 4.17C35.5467 4.13333 36.555 4.09667 37.325 4.06V5.16C36.0783 5.19666 35.125 5.34333 34.465 5.6C33.8417 5.82 33.42 6.26 33.2 6.92C32.98 7.54333 32.87 8.53333 32.87 9.89V37.17C32.87 38.49 32.98 39.48 33.2 40.14C33.42 40.8 33.8417 41.24 34.465 41.46C35.125 41.68 36.0783 41.8267 37.325 41.9V43C36.555 42.9267 35.5467 42.89 34.3 42.89C33.0533 42.8533 31.715 42.835 30.285 42.835C29.0383 42.835 27.7733 42.8533 26.49 42.89C25.2067 42.89 24.1433 42.9267 23.3 43ZM0.31 43V41.9C1.55667 41.8267 2.49167 41.68 3.115 41.46C3.775 41.24 4.215 40.8 4.435 40.14C4.655 39.48 4.765 38.49 4.765 37.17V9.89C4.765 8.53333 4.655 7.54333 4.435 6.92C4.215 6.26 3.775 5.82 3.115 5.6C2.49167 5.34333 1.55667 5.19666 0.31 5.16V4.06C1.08 4.09667 2.08833 4.13333 3.335 4.17C4.58167 4.20666 5.92 4.225 7.35 4.225C8.63333 4.225 9.89833 4.20666 11.145 4.17C12.4283 4.13333 13.4917 4.09667 14.335 4.06V5.16C13.0883 5.19666 12.135 5.34333 11.475 5.6C10.8517 5.82 10.43 6.26 10.21 6.92C9.99 7.54333 9.88 8.53333 9.88 9.89V37.17C9.88 38.49 9.99 39.48 10.21 40.14C10.43 40.8 10.8517 41.24 11.475 41.46C12.135 41.68 13.0883 41.8267 14.335 41.9V43C13.4917 42.9267 12.4283 42.89 11.145 42.89C9.89833 42.8533 8.63333 42.835 7.35 42.835C5.92 42.835 4.58167 42.8533 3.335 42.89C2.08833 42.89 1.08 42.9267 0.31 43ZM7.955 23.97V22.87H29.68V23.97H7.955ZM47.491 0.924998C48.4443 0.924998 49.2693 1.27333 49.966 1.97C50.6626 2.66666 51.011 3.49166 51.011 4.445C51.011 5.39833 50.6626 6.22333 49.966 6.92C49.2693 7.61667 48.4443 7.965 47.491 7.965C46.5376 7.965 45.7126 7.61667 45.016 6.92C44.3193 6.22333 43.971 5.39833 43.971 4.445C43.971 3.49166 44.3193 2.66666 45.016 1.97C45.7126 1.27333 46.5376 0.924998 47.491 0.924998ZM50.351 14.07V37.885C50.351 39.425 50.6626 40.47 51.286 41.02C51.946 41.57 53.0276 41.845 54.531 41.845V43C53.9076 42.9633 52.9543 42.9267 51.671 42.89C50.4243 42.8167 49.1593 42.78 47.876 42.78C46.6293 42.78 45.3643 42.8167 44.081 42.89C42.7976 42.9267 41.8443 42.9633 41.221 43V41.845C42.7243 41.845 43.7876 41.57 44.411 41.02C45.071 40.47 45.401 39.425 45.401 37.885V20.67C45.401 19.02 45.1076 17.81 44.521 17.04C43.9343 16.2333 42.8343 15.83 41.221 15.83V14.675C42.3943 14.785 43.531 14.84 44.631 14.84C45.6943 14.84 46.7026 14.785 47.656 14.675C48.646 14.5283 49.5443 14.3267 50.351 14.07ZM62.6693 36.73C63.4759 36.73 64.1359 36.895 64.6493 37.225C65.1626 37.555 65.5843 37.9767 65.9143 38.49C66.3176 39.0767 66.5743 39.7183 66.6843 40.415C66.7943 41.1117 66.8493 41.68 66.8493 42.12C66.8493 43.9167 66.3909 45.5483 65.4743 47.015C64.5576 48.4817 63.1276 49.6733 61.1843 50.59L60.6893 49.6C61.8259 49.1233 62.7976 48.3717 63.6043 47.345C64.4476 46.3183 64.8693 45.2733 64.8693 44.21C64.8693 43.77 64.8143 43.385 64.7043 43.055C64.1176 43.5317 63.4393 43.77 62.6693 43.77C61.7159 43.77 60.8909 43.4583 60.1943 42.835C59.4976 42.2117 59.1493 41.35 59.1493 40.25C59.1493 39.2233 59.4976 38.38 60.1943 37.72C60.8909 37.06 61.7159 36.73 62.6693 36.73ZM100.111 4.06V5.16C98.8647 5.19666 97.9114 5.34333 97.2514 5.6C96.628 5.82 96.2064 6.26 95.9864 6.92C95.7664 7.54333 95.6564 8.53333 95.6564 9.89V37.17C95.6564 38.49 95.7664 39.48 95.9864 40.14C96.2064 40.8 96.628 41.24 97.2514 41.46C97.9114 41.68 98.8647 41.8267 100.111 41.9V43C99.268 42.9267 98.2047 42.89 96.9214 42.89C95.6747 42.8533 94.4097 42.835 93.1264 42.835C91.6964 42.835 90.358 42.8533 89.1114 42.89C87.8647 42.89 86.8564 42.9267 86.0864 43V41.9C87.333 41.8267 88.268 41.68 88.8914 41.46C89.5514 41.24 89.9914 40.8 90.2114 40.14C90.4314 39.48 90.5414 38.49 90.5414 37.17V9.89C90.5414 8.53333 90.4314 7.54333 90.2114 6.92C89.9914 6.26 89.5514 5.82 88.8914 5.6C88.268 5.34333 87.333 5.19666 86.0864 5.16V4.06C86.8564 4.09667 87.8647 4.13333 89.1114 4.17C90.358 4.20666 91.6964 4.225 93.1264 4.225C94.4097 4.225 95.6747 4.20666 96.9214 4.17C98.2047 4.13333 99.268 4.09667 100.111 4.06ZM106.594 14.73L105.109 13.3C106.832 11.2467 107.694 9.30333 107.694 7.47C107.694 6.81 107.401 6.13166 106.814 5.435C106.227 4.70167 105.934 4.005 105.934 3.345C105.934 2.64833 106.209 2.06167 106.759 1.585C107.346 1.10833 108.061 0.869998 108.904 0.869998C109.747 0.869998 110.462 1.23666 111.049 1.97C111.636 2.66666 111.929 3.76666 111.929 5.27C111.929 6.73666 111.471 8.35 110.554 10.11C109.674 11.8333 108.354 13.3733 106.594 14.73ZM133.975 13.905C135.259 13.905 136.377 14.0883 137.33 14.455C138.284 14.8217 139.072 15.335 139.695 15.995C140.392 16.7283 140.869 17.6817 141.125 18.855C141.382 20.0283 141.51 21.4767 141.51 23.2V37.885C141.51 39.425 141.822 40.47 142.445 41.02C143.105 41.57 144.187 41.845 145.69 41.845V43C145.067 42.9633 144.114 42.9267 142.83 42.89C141.547 42.8167 140.3 42.78 139.09 42.78C137.88 42.78 136.689 42.8167 135.515 42.89C134.379 42.9267 133.517 42.9633 132.93 43V41.845C134.25 41.845 135.185 41.57 135.735 41.02C136.285 40.47 136.56 39.425 136.56 37.885V21.99C136.56 20.8533 136.487 19.8083 136.34 18.855C136.194 17.9017 135.827 17.1317 135.24 16.545C134.654 15.9583 133.7 15.665 132.38 15.665C130.95 15.665 129.667 16.105 128.53 16.985C127.43 17.865 126.55 19.075 125.89 20.615C125.267 22.1183 124.955 23.805 124.955 25.675V37.885C124.955 39.425 125.23 40.47 125.78 41.02C126.33 41.57 127.265 41.845 128.585 41.845V43C127.999 42.9633 127.119 42.9267 125.945 42.89C124.809 42.8167 123.635 42.78 122.425 42.78C121.215 42.78 119.969 42.8167 118.685 42.89C117.402 42.9267 116.449 42.9633 115.825 43V41.845C117.329 41.845 118.392 41.57 119.015 41.02C119.675 40.47 120.005 39.425 120.005 37.885V20.67C120.005 19.02 119.712 17.81 119.125 17.04C118.539 16.2333 117.439 15.83 115.825 15.83V14.675C116.999 14.785 118.135 14.84 119.235 14.84C120.299 14.84 121.307 14.785 122.26 14.675C123.25 14.5283 124.149 14.3267 124.955 14.07V20.56C125.909 18.1767 127.21 16.4717 128.86 15.445C130.51 14.4183 132.215 13.905 133.975 13.905ZM150.53 13.905C151.814 13.905 152.932 14.0883 153.885 14.455C154.839 14.8217 155.627 15.335 156.25 15.995C156.947 16.7283 157.424 17.6817 157.68 18.855C157.937 20.0283 158.065 21.4767 158.065 23.2V37.885C158.065 39.425 158.377 40.47 159 41.02C159.66 41.57 160.742 41.845 162.245 41.845V43C161.622 42.9633 160.669 42.9267 159.385 42.89C158.102 42.8167 156.855 42.78 155.645 42.78C154.435 42.78 153.244 42.8167 152.07 42.89C150.934 42.9267 150.072 42.9633 149.485 43V41.845C150.805 41.845 151.74 41.57 152.29 41.02C152.84 40.47 153.115 39.425 153.115 37.885V21.99C153.115 20.8533 153.042 19.8083 152.895 18.855C152.749 17.9017 152.382 17.1317 151.795 16.545C151.209 15.9583 150.255 15.665 148.935 15.665C147.505 15.665 146.222 16.105 145.085 16.985C143.985 17.865 143.105 19.0567 142.445 20.56C141.822 22.0633 141.51 23.75 141.51 25.62L141.345 20.505C142.335 17.975 143.674 16.2517 145.36 15.335C147.047 14.3817 148.77 13.905 150.53 13.905Z" fill="#CECECB"/>
</svg>
