<svg width="536" height="466" viewBox="0 0 536 466" fill="none" xmlns="http://www.w3.org/2000/svg">
<path d="M243.754 30.5039C248.202 31.1837 252.571 31.1447 257.063 31.125C257.947 31.1289 258.832 31.1328 259.744 31.1367C264.001 31.1304 267.83 30.8863 272 30C294.307 28.0719 313.942 35.2837 331.781 48.4844C334.599 50.4092 337.52 51.6196 340.66 52.9219C351.354 57.8491 361.536 65.6535 370.063 73.6875C373.962 77.2915 377.678 79.561 382.48 81.7617C389.434 85.1794 395.528 89.6522 400 96C400.979 98.9378 401.128 101.059 401.25 104.125C401.572 108.297 402.269 110.886 404.562 114.375C407.975 119.855 407.975 125.727 407 132C405.594 134.891 405.594 134.891 404 137C403.34 137 402.68 137 402 137C401.629 138.238 401.629 138.238 401.25 139.5C398.704 146.627 396.319 151.604 390 156C389.34 156 388.68 156 388 156C387.733 156.723 387.466 157.446 387.191 158.191C386.002 160.995 384.553 163.362 382.938 165.938C379.736 171.63 379.465 176.457 379.262 182.891C378.835 187.966 376.408 190.559 372.98 194.066C370.305 198.029 369.858 201.713 369.125 206.375C367.194 217.228 363.779 226.666 358.75 236.5C352.319 249.363 353.625 263.564 355.438 277.375C355.572 278.454 355.707 279.533 355.846 280.645C356.547 286.404 356.547 286.404 358 292C359.77 308.097 356.577 321.327 350.14 335.955C346.985 343.142 346.016 349.943 345.625 357.75C345.278 362.931 344.566 366.027 341 370C340.299 370.784 339.598 371.568 338.875 372.375C337 374 337 374 335 374C335 374.66 335 375.32 335 376C334.34 376 333.68 376 333 376C333 376.66 333 377.32 333 378C331.672 379.234 331.672 379.234 329.75 380.75C325.589 384.268 322.087 388.177 318.563 392.313C318.03 392.935 317.498 393.558 316.95 394.2C314.195 397.408 314.195 397.408 312 401C311.34 401 310.68 401 310 401C309.808 401.557 309.616 402.114 309.418 402.688C307.39 405.995 304.454 407.842 301.313 410C300.712 410.425 300.112 410.851 299.494 411.289C296.517 413.374 293.516 415.312 290.34 417.082C287.393 418.774 284.873 420.544 282.25 422.688C279.711 424.76 278.137 425.954 275 427C273.976 429.181 273.976 429.181 273 432C272.346 433.319 271.678 434.631 271 435.938C269.334 439.214 268.059 442.472 267 446C260.138 444.696 255.585 438.986 251.668 433.535C247.405 427.055 243.483 420.336 239.629 413.605C231.629 400.014 219.963 391.561 204.824 387.402C200.592 386.799 196.394 386.856 192.125 386.875C190.816 386.869 190.816 386.869 189.48 386.863C184.546 386.871 179.864 387.165 175 388C173.818 384.453 174.208 383.831 175.625 380.5C175.994 379.595 176.362 378.69 176.742 377.758C178 375 178 375 179.383 372.742C185.26 362.567 184.932 348.357 182.339 337.142C180.805 331.996 178.854 327.032 176.82 322.065C171.43 308.494 170.49 292.456 171 278C170.093 277.856 169.185 277.711 168.25 277.563C167.178 277.377 166.105 277.191 165 277C163.989 276.837 163.989 276.837 162.959 276.67C159.749 275.572 158.791 273.369 157.138 270.532C154.975 265.719 154.241 260.613 153.375 255.438C151.507 244.691 149.143 237.258 142.688 228.438C135.25 217.929 129.5 206.545 128.879 193.445C128.583 187.536 127.418 184.355 123.473 179.887C118.766 173.857 118.691 165.682 119.176 158.336C120.515 149.382 123.954 140.092 128 132C128.404 128.894 128.766 125.79 129.074 122.674C129.705 117.269 131.237 113.876 134.938 109.938C136.995 107.007 137.737 104.896 138.75 101.5C142.068 90.9044 149.182 77.9607 159 72C159.66 72 160.32 72 161 72C161 71.34 161 70.68 161 70C164.629 67.0754 168.617 65.0272 173.063 63.6875C179.048 61.5873 182.199 56.4167 185.863 51.5C195.781 38.4613 208.859 32.5611 224.98 30.2735C231.201 29.7101 237.587 29.3754 243.754 30.5039ZM149 191C147.582 192.189 147.582 192.189 147.902 195.598C147.909 197.086 147.921 198.574 147.938 200.063C147.942 200.821 147.947 201.58 147.951 202.361C147.963 204.241 147.981 206.12 148 208C151.564 202.655 153.488 197.501 153 191C151.68 191 150.36 191 149 191ZM319 198C319.66 199.32 320.32 200.64 321 202C322.436 202.108 323.874 202.186 325.313 202.25C326.513 202.32 326.513 202.32 327.738 202.391C330.592 202.164 330.592 202.164 333 198C328.38 198 323.76 198 319 198ZM202 208C199.684 211.895 199.684 211.895 199.008 216.281C200.503 220.379 203.331 222.832 206.438 225.813C207.036 226.41 207.635 227.007 208.252 227.623C211.132 230.885 211.132 230.885 215 232C215 232.66 215 233.32 215 234C215.66 234 216.32 234 217 234C217.33 234.99 217.66 235.98 218 237C219.98 238.65 221.96 240.3 224 242C229.28 239.36 234.56 236.72 240 234C240 233.34 240 232.68 240 232C240.66 232 241.32 232 242 232C242 226.39 242 220.78 242 215C239.918 215.052 239.918 215.052 237.793 215.105C224.847 215.335 214.216 215.071 203 208C202.67 208 202.34 208 202 208Z" fill="#080808"/>
<path d="M274.438 186.625C275.179 186.617 275.92 186.61 276.684 186.602C279.954 187.164 281.528 187.716 284 190C284.76 193.258 284.745 196.478 284.75 199.812C284.783 201.59 284.82 203.367 284.859 205.145C284.874 205.981 284.889 206.817 284.904 207.678C285.021 210.508 285.432 213.228 286 216C286.66 216 287.32 216 288 216C288 213.36 288 210.72 288 208C291.356 208.599 293.378 209.846 296 212C296 210.35 296 208.7 296 207C300.01 208.552 303.91 210.304 307.816 212.098C314.626 214.912 323.088 215.172 330.227 213.469C332.211 212.676 332.211 212.676 335 211C335.638 210.675 336.276 210.35 336.934 210.016C341.016 207.971 341.016 207.971 343 204C342.38 204.289 341.76 204.577 341.121 204.875C332.467 208.503 323.274 209.817 314.113 207.164C310.868 205.774 308.504 204.504 306 202C309.226 200.92 310.734 201.071 313.812 202.438C320.3 204.776 327.2 204.763 334 204C336.019 203.04 338.023 202.044 340 201C342.23 200.777 342.23 200.777 344.188 200.938C348.072 201.362 348.072 201.362 351 199C352.32 199 353.64 199 355 199C358.545 207.272 360.561 217.428 357.184 226.094C354.285 231.934 350.592 237.191 346.34 242.117C338.964 251.205 338.1 262.998 339.227 274.266C339.452 275.849 339.72 277.426 340 279C341.485 279.495 341.485 279.495 343 280C349.229 289.254 353.079 298.646 351.456 309.974C350.469 314.36 348.546 318.365 346.578 322.387C344.048 327.562 342.902 332.183 343 338C342.34 337.67 341.68 337.34 341 337C340.07 332.305 339.881 327.748 339.902 322.973C339.907 321.044 339.907 321.044 339.912 319.076C339.92 317.738 339.929 316.4 339.938 315.062C339.943 313.697 339.947 312.332 339.951 310.967C339.963 307.644 339.979 304.322 340 301C339.076 301.178 338.151 301.356 337.199 301.539C333.399 302.087 331.439 301.681 328 300C326.562 297.875 326.562 297.875 325 295C320.251 288.809 314.565 282.522 307 280C307 281.32 307 282.64 307 284C302.469 282.735 299.304 281.391 296 278C292 270.691 292 270.691 292 267C291.01 267 290.02 267 289 267C289.124 268.258 289.248 269.516 289.375 270.812C289.445 271.52 289.514 272.228 289.586 272.957C289.927 275.3 289.927 275.3 292 278C292.414 280.262 292.414 280.262 292.625 282.688C292.7 283.496 292.775 284.304 292.852 285.137C292.925 286.059 292.925 286.059 293 287C292.108 287.049 291.216 287.098 290.297 287.148C289.126 287.223 287.956 287.298 286.75 287.375C285.01 287.479 285.01 287.479 283.234 287.586C280.217 287.972 278.639 288.656 276 290C271.108 290.105 266.408 289.133 262 287C263.204 284.506 264.454 282.319 266 280C270.875 280.875 270.875 280.875 272 282C274.327 282.67 274.327 282.67 277 282C281.251 277.334 283.151 272.407 285.105 266.453C286 264 286 264 288 261C285.781 262.03 284.087 262.916 282.312 264.625C279.239 266.452 276.735 266.449 273.219 266.594C269.768 265.67 268.873 264.009 267 261C266.396 257.863 266.395 254.77 266.391 251.582C266.365 250.198 266.365 250.198 266.34 248.786C266.29 245.795 266.269 242.804 266.25 239.812C266.225 237.766 266.199 235.719 266.171 233.672C266.12 229.633 266.081 225.594 266.051 221.554C266.019 217.471 265.954 213.39 265.855 209.307C265.784 206.33 265.737 203.353 265.688 200.375C265.658 199.336 265.628 198.297 265.597 197.226C265.589 196.293 265.582 195.36 265.574 194.398C265.56 193.611 265.545 192.824 265.53 192.013C266 190 266 190 267.89 188.25C270.289 186.829 271.67 186.596 274.438 186.625Z" fill="#CECECB"/>
<path d="M302 296.687C302.673 297.123 303.346 297.558 304.039 298.006C307.362 300.171 310.612 302.423 313.832 304.738C316.851 306.982 316.851 306.982 319.688 308.5C324.362 311.532 326.469 315.81 328.793 320.68C330.749 324.439 333.096 327.941 335.414 331.484C340.753 339.952 342.518 350.069 341 360C339.102 362.891 339.102 362.891 337 365C336.34 365 335.68 365 335 365C334.505 366.485 334.505 366.485 334 368C333.01 368 332.02 368 331 368C331.217 367.397 331.433 366.793 331.656 366.172C331.935 365.373 332.213 364.573 332.5 363.75C332.778 362.961 333.057 362.172 333.344 361.359C334.179 358.766 334.179 358.766 334 355C333.443 356.134 332.886 357.269 332.312 358.437C331.544 359.959 330.773 361.48 330 363C329.649 363.709 329.299 364.418 328.938 365.148C325.178 372.381 319.868 381.878 312 385C312.96 380.598 313.975 376.958 316.125 373C320.034 364.658 318.412 353.841 317 345C316.34 345 315.68 345 315 345C315.104 345.982 315.104 345.982 315.211 346.984C315.7 355.234 313.398 361.065 309 368C308.005 369.005 307.006 370.006 306 371C304.249 375.962 303.547 380.8 303 386C296.204 386 292.536 381.467 288 377C287.134 376.257 286.268 375.515 285.375 374.75C282.631 369.262 284.53 362.663 285.563 356.812C286.881 349.613 286.881 349.613 284.66 342.937C283.586 341.724 282.471 340.544 281.313 339.41C280 338 280 338 280 336C279.34 336 278.68 336 278 336C278.046 336.958 278.093 337.916 278.141 338.902C278.484 349.496 276.824 358.812 274 369C273.34 369 272.68 369 272 369C267.407 356.985 267.552 345.684 268 333C262.434 338.271 259.458 343.078 258.563 350.75C258.869 356.606 260.556 362.342 262 368C262.333 369.333 262.667 370.667 263 372C255.994 369.146 250.184 361.539 246.949 354.816C246.133 352.822 246.133 352.822 244 352C244.33 357.61 244.66 363.22 245 369C241.625 367.875 241.421 367.517 239.773 364.578C239.382 363.882 238.99 363.186 238.586 362.469C238.186 361.737 237.787 361.004 237.375 360.25C236.968 359.533 236.56 358.817 236.141 358.078C231.117 349.029 230.678 338.53 232.461 328.375C234.469 321.949 237.891 315.947 241 310C244.125 309.437 244.125 309.437 248 310C249.886 312.111 251.234 314.285 252.641 316.738C253.911 318.852 255.185 320.35 257 322C257.309 320.67 257.309 320.67 257.625 319.312C259.839 313.979 263.479 311.817 268.375 309.187C272.591 307.806 275.599 307.768 280 308C280.838 309.622 281.67 311.248 282.5 312.875C282.964 313.78 283.428 314.685 283.906 315.617C285 318 285 318 285 320C285.66 320 286.32 320 287 320C287.103 318.824 287.206 317.649 287.313 316.437C288.239 309.239 291.235 304.28 296 299C294.704 299.731 294.704 299.731 293.383 300.477C287.506 302.988 281.15 302.433 274.875 302.375C272.982 302.392 272.982 302.392 271.051 302.41C269.835 302.406 268.62 302.402 267.367 302.398C266.265 302.395 265.163 302.392 264.027 302.388C258.808 301.719 255.394 298.896 252 295C252 294.34 252 293.68 252 293C258.446 292.906 264.775 292.916 271.188 293.625C275.964 294.085 279.92 293.693 284.551 292.473C291.994 291.036 295.966 292.613 302 296.687Z" fill="#CECECB"/>
<path d="M325 127C327.035 128.645 327.035 128.645 329.062 130.813C336.479 137.289 346.573 137.209 356 138C356.056 139.74 356.056 139.74 356.113 141.516C356.437 149.715 356.935 157.405 359.281 165.324C360.141 168.524 360.552 171.719 361 175C360.053 174.99 359.105 174.979 358.129 174.968C354.57 174.934 351.01 174.909 347.45 174.89C345.918 174.88 344.386 174.867 342.853 174.849C335.144 174.764 327.738 174.723 320.191 176.532C315.773 177.476 311.233 177.397 306.73 177.479C304.323 177.536 304.323 177.536 301 178C300.34 178.99 299.68 179.98 299 181C295.93 181.765 293.081 181.69 290 181C287.16 177.883 286 176.238 286 172C285.01 172 284.02 172 283 172C283 171.01 283 170.02 283 169C282.34 169 281.68 169 281 169C281 173.29 281 177.58 281 182C277.37 182 273.74 182 270 182C270 178.7 270 175.4 270 172C269.34 172 268.68 172 268 172C267.907 173.33 267.907 173.33 267.812 174.688C266.8 178.814 265.264 180.343 262 183C259.687 183.813 259.687 183.813 258 184C258 182.02 258 180.04 258 178C256.907 177.897 255.814 177.794 254.687 177.688C249.31 177.031 244.188 175.516 239 174C238.468 165.137 238.763 158.863 244.719 152.027C249.005 147.605 252.446 144.987 258.562 143.688C264.574 142.259 269.609 139.959 275 137C275.686 136.695 276.372 136.389 277.078 136.074C279.342 134.809 280.616 133.38 282.25 131.375C282.771 130.743 283.292 130.112 283.828 129.461C284.215 128.979 284.602 128.497 285 128C287.155 128.514 289.262 129.083 291.375 129.754C298.383 131.913 304.694 132.344 312 132C312 131.34 312 130.68 312 130C316.602 127.791 319.776 126.424 325 127Z" fill="#CECECB"/>
<path d="M289 81C291.332 81.6726 293.665 82.3385 296 83C296.715 83.3081 297.431 83.6162 298.168 83.9336C300.474 84.8903 302.531 85.6109 305 86C308.416 84.6884 308.416 84.6884 310.594 83.3281C320.047 78.1102 331.268 75.1441 342 77C345.961 78.617 349.475 80.5832 353 83C353.075 81.7764 353.075 81.7764 352 80C366.751 79.1189 381.724 84.0047 392.875 93.875C395.577 96.8308 396.496 98.8655 396.625 102.875C396.417 106.024 396.3 106.7 394 109C391.375 109.125 391.375 109.125 389 109C389.087 109.93 389.087 109.93 389.176 110.879C389.626 119.713 387.074 126.866 384 135C390.153 132.908 392.375 129.168 395.25 123.563C396.276 120.056 396.63 116.635 397 113C400.684 116.349 401.836 118.77 402.5 123.75C402.362 129.016 399.613 132.378 396 136C391.467 139.268 387.215 139.283 381.82 139.613C378.114 140.122 375.239 141.487 371.973 143.258C369.575 144.16 368.376 143.84 366 143C366.459 142.504 366.918 142.007 367.391 141.496C371.257 137.215 374.335 133.116 377 128C376.01 128.33 375.02 128.66 374 129C371.667 129.04 369.333 129.044 367 129C368.952 127.699 370.91 126.407 372.875 125.125C376.91 122.382 380.278 120.083 383 116C383 114.35 383 112.7 383 111C377.39 110.67 371.78 110.34 366 110C366 106.7 366 103.4 366 100C364.02 100 362.04 100 360 100C359.749 100.74 359.497 101.48 359.238 102.242C356.605 108.106 350.789 113.276 345 116C344.34 116 343.68 116 343 116C344.52 112.545 346.626 109.685 348.879 106.684C350.874 103.687 351.158 101 351.188 97.5C351.202 96.7266 351.216 95.9531 351.23 95.1563C351.137 92.7032 351.137 92.7032 349 90C346.122 89.1967 346.122 89.1967 342.875 88.8125C341.779 88.654 340.684 88.4954 339.555 88.3321C338.712 88.2225 337.869 88.1129 337 88C338.176 89.1138 338.176 89.1138 339.375 90.25C342.776 93.8129 343.832 95.4866 344.375 100.375C343.829 105.651 341.098 109.647 337 113C336.34 113 335.68 113 335 113C335.309 112.216 335.619 111.433 335.938 110.625C337.263 106.102 337.648 101.686 338 97C337.041 98.021 337.041 98.021 336.062 99.0625C333.749 101.383 331.287 103.383 328.688 105.375C322.126 110.416 316.449 114.984 312 122C311.34 122 310.68 122 310 122C310.378 108.361 312.65 103.172 321.879 93.4297C323.936 91.073 325.481 88.7272 327 86C323.755 87.0045 320.794 88.103 317.75 89.625C315 91 315 91 313 91C312.732 91.5775 312.464 92.155 312.188 92.75C310.983 95.0326 309.592 96.9738 308 99C303.329 97.443 299.913 94.9155 296 92C297.071 94.2244 298.09 96.114 299.625 98.0625C302.192 103.546 301.679 110.244 300 116C299.34 116 298.68 116 298 116C297.902 115.276 297.804 114.551 297.703 113.805C296.503 105.674 296.503 105.674 292 99C288.468 96.9702 284.792 95.4758 281 94C279.213 93.2962 279.213 93.2962 277.391 92.5781C274.268 91.3645 271.138 90.1726 268 89C268.66 88.34 269.32 87.68 270 87C259.656 86.2987 250.494 88.5527 242.375 95.1875C240.576 96.7833 238.784 98.3877 237 100C234.987 101.656 232.966 103.302 230.938 104.938C228.526 106.899 226.198 108.802 224 111C220.375 111.125 220.375 111.125 217 111C218.498 107.186 220.8 105.461 224 103C222.273 103.321 220.547 103.643 218.82 103.966C217.344 104.241 215.867 104.514 214.391 104.786C210.565 105.496 206.785 106.284 203 107.188C191.709 109.431 176.842 109.561 167 103C165.345 102.615 163.678 102.272 162 102C162 102.66 162 103.32 162 104C158.538 107 158.538 107 156 107C156 107.66 156 108.32 156 109C155.34 109 154.68 109 154 109C153.67 109.99 153.34 110.98 153 112C150.438 113.188 150.438 113.188 148 114C148 114.66 148 115.32 148 116C141.5 120 141.5 120 137 120C137.02 116.758 137.02 116.758 138 113C140.306 111.064 142.92 110.017 145.688 108.875C151.237 106.461 155.421 103.968 160 100C160.66 100 161.32 100 162 100C162 99.34 162 98.68 162 98C167.427 95.2287 171.898 94.3191 178 95C178.33 95.33 178.66 95.66 179 96C180.347 96.2308 181.704 96.4116 183.062 96.5625C184.362 96.7069 185.661 96.8513 187 97C184.23 100.809 180.354 100.99 176 102C189.448 102.449 202.806 102.374 215 96C215.66 96 216.32 96 217 96C217.495 94.515 217.495 94.515 218 93C220.512 90.8438 220.512 90.8438 223.688 88.5C224.723 87.7266 225.758 86.9531 226.824 86.1563C232.561 82.2614 238.433 80.0189 245 78C246.176 77.6081 247.351 77.2163 248.562 76.8125C261.481 73.7879 276.915 75.9215 289 81Z" fill="#CECECB"/>
<path d="M294.625 236.438C297.892 236.456 299.472 236.591 302.078 238.609C303.858 240.668 305.437 242.772 307 245C307.638 245.741 308.276 246.482 308.934 247.246C311.077 250.103 312.543 252.93 314.094 256.13C317.884 263.913 321.313 269.551 329 274C337.535 279.121 343.77 287.571 347 297C347.744 302.318 347.572 307.177 345 312C344.67 312 344.34 312 344 312C343.67 308.37 343.34 304.74 343 301C342.34 302.98 341.68 304.96 341 307C340.67 307 340.34 307 340 307C340 305.02 340 303.04 340 301C338.701 301.309 338.701 301.309 337.375 301.625C333.514 302.054 331.481 301.702 328 300C326.562 297.875 326.562 297.875 325 295C320.251 288.809 314.565 282.522 307 280C307 281.32 307 282.64 307 284C302.469 282.735 299.304 281.391 296 278C292 270.691 292 270.691 292 267C291.01 267 290.02 267 289 267C289.124 268.258 289.248 269.516 289.375 270.812C289.445 271.52 289.514 272.228 289.586 272.957C289.927 275.3 289.927 275.3 292 278C292.414 280.262 292.414 280.262 292.625 282.688C292.7 283.496 292.775 284.304 292.852 285.137C292.925 286.059 292.925 286.059 293 287C292.108 287.049 291.216 287.098 290.297 287.148C289.126 287.223 287.956 287.298 286.75 287.375C285.01 287.479 285.01 287.479 283.234 287.586C280.217 287.972 278.639 288.656 276 290C271.108 290.105 266.408 289.133 262 287C263.204 284.506 264.454 282.319 266 280C270.875 280.875 270.875 280.875 272 282C274.327 282.67 274.327 282.67 277 282C282.568 275.888 284.595 268.292 287.125 260.562C290.08 256.524 294.347 255.484 299 254C299.504 248.706 298.189 246.186 295 242C292.759 243.004 291.122 243.878 289.375 245.625C288.694 246.306 288.694 246.306 288 247C287.34 247 286.68 247 286 247C286.476 245.52 286.956 244.041 287.438 242.562C287.704 241.739 287.971 240.915 288.246 240.066C289.549 236.495 290.974 236.697 294.625 236.438Z" fill="#151515"/>
<path d="M254.812 99.75C255.613 99.7568 256.414 99.7635 257.24 99.7705C262.689 99.866 267.832 100.126 273 102C273.646 102.233 274.292 102.467 274.957 102.707C281.2 105.404 286.644 109.815 291 115C292.073 117.965 292.116 119.8 292 123C291.423 122.319 290.845 121.639 290.25 120.938C289.507 120.298 288.765 119.659 288 119C285.963 119.048 285.963 119.048 284 120C282.579 121.646 282.579 121.646 281.375 123.688C277.743 128.717 273.776 131.701 268 134C262.612 134.829 257.316 134.888 251.875 134.875C250.427 134.893 248.979 134.914 247.531 134.938C244.021 134.989 240.511 135.004 237 135C240.594 132.118 243.381 131.245 247.938 130.375C248.59 130.25 249.243 130.125 249.916 129.997C256.239 128.846 262.583 128.314 269 128C269.429 126.865 269.429 126.865 269.867 125.707C271.207 122.504 273.018 119.841 275 117C272.05 116.557 269.861 116.395 267.348 118.16C266.759 118.664 266.169 119.168 265.562 119.688C254.773 128.069 243.108 128.473 230 128.5C228.971 128.507 228.971 128.507 227.922 128.514C214.194 128.55 214.194 128.55 208 125C208.688 123.063 208.688 123.063 210 121C214.395 119.402 219.374 119.909 224 120C224 119.34 224 118.68 224 118C224.73 117.991 225.46 117.981 226.212 117.972C229.58 117.917 232.946 117.834 236.312 117.75C237.46 117.736 238.608 117.722 239.791 117.707C246.708 117.511 252.244 116.517 258.653 113.909C261.453 112.824 264.007 112.442 267 112.313C270.009 112.159 272.116 111.961 275 111C271.488 109.829 268.587 109.806 264.883 109.719C263.842 109.691 263.842 109.691 262.779 109.663C260.561 109.604 258.343 109.551 256.125 109.5C253.211 109.432 250.297 109.358 247.383 109.281C246.087 109.251 244.792 109.221 243.458 109.189C240.518 109.028 237.857 108.676 235 108C235.33 107.01 235.66 106.02 236 105C238.062 104.313 238.062 104.313 240 104C240 103.34 240 102.68 240 102C245.072 99.9617 249.439 99.685 254.812 99.75Z" fill="#CECECB"/>
<path d="M232.812 34.875C233.852 34.8886 233.852 34.8886 234.912 34.9024C236.608 34.9258 238.304 34.9616 240 35C240 35.66 240 36.32 240 37C238.407 37.4544 238.407 37.4544 236.781 37.918C229.172 40.1521 222.485 42.2716 216 47C217.611 46.7583 217.611 46.7583 219.254 46.5118C224.81 45.8211 230.345 45.816 235.938 45.8125C236.971 45.8003 238.004 45.788 239.068 45.7754C247.538 45.7593 254.909 47.0628 262.875 49.9375C263.78 50.2559 264.685 50.5743 265.617 50.9024C267.981 51.9913 269.317 53.0437 271 55C262.071 55.3234 262.071 55.3234 257.688 54C250.309 51.9991 242.777 51.6722 235.875 55.25C235.077 55.7102 234.279 56.1704 233.457 56.6446C230.875 58.0691 228.356 59.0011 225.562 59.9375C217.84 62.6498 210.957 66.5896 204.25 71.25C200.525 73.8066 197.399 75.0322 193 76C191.515 76.495 191.515 76.495 190 77C190.49 72.7537 193.063 69.9061 196 67C198.284 65.361 200.68 64.0752 203.188 62.8125C203.848 62.4694 204.509 62.1263 205.189 61.7727C209.652 59.5148 214.068 57.8278 218.922 56.5821C221.81 55.7731 224.337 54.3624 227 53C229.875 52.3125 229.875 52.3125 232 52C222.632 51.5316 214.498 53.8854 205.625 56.6875C201.976 57.8176 198.853 58.3042 195 58C195.423 53.2078 197.511 50.1538 201 47C206.915 42.8402 213.322 39.7257 220 37C220.75 36.6365 221.5 36.273 222.273 35.8985C225.809 34.7334 229.138 34.7836 232.812 34.875Z" fill="#EDEDED"/>
<path d="M296.937 39.6531C302.637 42.642 307.88 46.103 313 50C314.984 51.359 316.991 52.6781 319 54C318.105 48.9144 315.077 46.8741 311 44C308.122 42.3497 305.217 40.7967 302.258 39.2969C300 38 300 38 299 36C302.695 36.5917 305.571 37.6332 308.875 39.375C311.805 40.8986 314.602 42.2348 317.688 43.4375C325.015 46.8937 328.516 50.9726 331.371 58.5352C332 61 332 61 332 66C323.75 66 315.5 66 307 66C307.33 65.34 307.66 64.68 308 64C311.63 64 315.26 64 319 64C319 63.34 319 62.68 319 62C318.216 61.6906 317.433 61.3813 316.625 61.0625C314 60 314 60 312 59C310.044 58.9031 308.084 58.8702 306.125 58.875C305.076 58.8724 304.026 58.8699 302.945 58.8672C299.379 59.0156 299.379 59.0156 296 60C295.67 60.99 295.34 61.98 295 63C290.82 65.7864 288.853 64.7956 284 64C283.2 57.3739 283.2 57.3739 285.066 54.168C289.922 49.166 295.501 49.2169 302.184 49.0078C303.578 49.004 303.578 49.004 305 49C300.257 46.4027 296.481 45.7953 291.062 45.5625C285.887 45.2947 282.379 44.6908 277.953 42.0547C274.227 40.0429 270.07 39.1009 266 38C275.952 31.3656 287.13 34.7632 296.937 39.6531Z" fill="#EAEAEA"/>
<path d="M309 260C309 260.66 309 261.32 309 262C309.99 262.33 310.98 262.66 312 263C314.53 265.335 316.756 267.675 318.824 270.43C321.132 273.155 323.422 274.882 326.375 276.875C331.775 280.694 336.838 284.514 339 291C339.068 292.728 339.085 294.458 339.062 296.187C339.053 297.089 339.044 297.99 339.035 298.918C339.024 299.605 339.012 300.292 339 301C334.717 302.26 332.032 301.928 328 300C326.562 297.875 326.562 297.875 325 295C320.251 288.809 314.565 282.522 307 280C307 281.32 307 282.64 307 284C301.724 282.528 297.674 280.898 294.836 275.984C292.637 271.334 291.435 267.115 291 262C292.093 261.876 293.186 261.752 294.312 261.625C306.408 259.575 306.408 259.575 309 260Z" fill="#CECECB"/>
<path d="M315.75 38.625C316.455 38.9811 317.16 39.3372 317.887 39.7041C322.823 42.2517 327.298 45.1668 331.766 48.4727C335.273 50.8702 339.099 52.363 343 54C345.642 55.1651 347.606 56.3042 350 58C350.144 58.9488 350.289 59.8975 350.438 60.875C351.126 64.6981 351.994 65.0583 355.062 67.25C355.796 67.7296 356.529 68.2091 357.285 68.7032C357.851 69.1311 358.417 69.5591 359 70C359 70.66 359 71.32 359 72C360.65 72.66 362.3 73.32 364 74C361.099 75.4505 359.44 74.4536 356.375 73.5625C354.871 73.1313 354.871 73.1313 353.336 72.6914C352.565 72.4633 351.794 72.2351 351 72C351.33 72.99 351.66 73.98 352 75C346.06 75.495 346.06 75.495 340 76C340 76.33 340 76.66 340 77C339.192 77.0606 338.384 77.1212 337.551 77.1836C336.482 77.2674 335.414 77.3512 334.312 77.4375C333.257 77.5187 332.201 77.6 331.113 77.6836C328.349 77.9646 325.711 78.4016 323 79C323 78.34 323 77.68 323 77C321.144 77.495 321.144 77.495 319.25 78C316.254 78.7989 314.199 79 311 79C312.41 74.0663 314.684 71.726 319 69C324.445 68.505 324.445 68.505 330 68C321.09 67.67 312.18 67.34 303 67C303.33 66.34 303.66 65.68 304 65C317.86 65.495 317.86 65.495 332 66C328.745 53.5701 328.745 53.5701 320.812 45.375C317.421 43.7169 313.954 42.3445 310.434 40.9844C308 40 308 40 304.625 38.25C301.883 36.7134 301.883 36.7134 298 37C298 36.34 298 35.68 298 35C304.462 32.7633 310.063 35.7057 315.75 38.625Z" fill="#191919"/>
<path d="M349 59C357.19 61.926 363.809 67.7892 370.062 73.6875C373.962 77.2915 377.678 79.561 382.48 81.7617C389.434 85.1794 395.528 89.6522 400 96C400.983 98.9502 401.162 101.167 401.312 104.25C401.728 109.567 403.166 112.56 406 117C405.505 117.99 405.505 117.99 405 119C402.938 119.625 402.938 119.625 401 120C400.01 118.02 399.02 116.04 398 114C397.89 114.58 397.781 115.16 397.668 115.758C396.104 123.462 393.528 129.337 388 135C386.68 135 385.36 135 384 135C384.405 131.111 384.973 127.855 386.5 124.25C388.492 119.313 388.719 114.271 389 109C390.98 108.34 392.96 107.68 395 107C395.547 103.172 395.863 99.6236 394.004 96.125C386.661 87.8855 372.894 81.7902 362 81C358.978 80.8822 356.027 80.9024 353 81C353.99 82.32 354.98 83.64 356 85C352.259 83.5801 348.769 81.9023 345.25 80C344.286 79.4844 343.322 78.9688 342.328 78.4375C340 77 340 77 339 75C344.94 74.505 344.94 74.505 351 74C351 73.34 351 72.68 351 72C352.093 72.165 353.186 72.33 354.312 72.5C357.875 73.0672 357.875 73.0672 361 73C360.218 72.4083 359.435 71.8166 358.629 71.207C357.617 70.4168 356.605 69.6266 355.562 68.8125C354.553 68.0352 353.544 67.2579 352.504 66.457C349.847 63.8501 349.252 62.6441 349 59Z" fill="#131313"/>
<path d="M312 392C306.972 399.161 300.321 402.662 292.883 406.911C290.131 408.502 287.438 410.178 284.75 411.875C283.474 412.675 283.474 412.675 282.172 413.492C279.983 414.912 279.983 414.912 278.328 416.695C277 418 277 418 275 418C274.743 418.514 274.487 419.029 274.223 419.559C273.255 421.49 272.283 423.419 271.309 425.348C270.685 426.586 270.061 427.824 269.437 429.062C269.121 429.687 268.805 430.312 268.479 430.955C267.142 433.615 265.943 436.171 265 439C264.01 438.67 263.02 438.34 262 438C258.515 431.031 257.522 423.697 259.894 416.158C261.097 413.332 262.413 410.608 263.812 407.875C264.264 406.931 264.716 405.988 265.182 405.016C267.672 399.97 267.672 399.97 269 398C269.99 397.67 270.98 397.34 272 397C272.412 397.433 272.825 397.866 273.25 398.312C275.11 400.106 276.786 401.658 279 403C282.211 402.506 284.911 401.177 287.809 399.75C288.721 399.306 289.633 398.863 290.572 398.406C292.479 397.47 294.386 396.533 296.291 395.594C297.661 394.929 297.661 394.929 299.059 394.25C300.301 393.639 300.301 393.639 301.568 393.016C305.455 391.392 307.95 390.65 312 392Z" fill="#CECECB"/>
<path d="M146.676 169.316C154.592 171.645 161.216 180.768 165.176 187.664C165.893 188.981 166.606 190.302 167.312 191.625C167.684 192.293 168.056 192.96 168.439 193.648C169.375 195.391 170.196 197.193 171 199C170.505 200.485 170.505 200.485 170 202C165.802 196.805 162.507 191.477 159.492 185.516C157.944 182.905 156.148 181.121 154 179C154 178.34 154 177.68 154 177C150.976 176.347 148.1 175.861 145 176C141.247 179.472 139.812 182.611 139.562 187.625C139.591 193.069 140.938 197.581 142.812 202.625C143.073 203.336 143.333 204.047 143.602 204.78C144.453 207.024 144.453 207.024 146 210C146.99 210.33 147.98 210.66 149 211C150.395 213.223 150.395 213.223 151.812 216.063C155.59 223.271 160.867 233.289 169 236C168.691 234.041 168.378 232.083 168.062 230.125C167.888 229.034 167.714 227.944 167.535 226.82C167.144 224.062 167.144 224.062 166 222C165.878 220.211 165.825 218.418 165.812 216.625C165.798 215.669 165.784 214.712 165.77 213.727C166.003 210.97 166.591 209.351 168 207C169.628 209.884 170.227 212.019 170.375 215.313C170.735 219.908 171.788 224.15 173.062 228.563C174.68 234.208 175.412 239.125 175 245C172.147 246.427 170.165 246.31 167 246C162.729 243.173 160.233 239.686 157.625 235.375C156.839 234.111 156.051 232.848 155.262 231.586C154.878 230.971 154.494 230.356 154.099 229.722C152.629 227.419 151.042 225.211 149.437 223C139.836 209.392 133.444 197.09 135 180C135.835 176.594 137.359 174.047 139.187 171.063C141.625 169.634 143.865 169.228 146.676 169.316Z" fill="#E5E5E5"/>
<path d="M273 65C275.332 65.6724 277.665 66.34 280 67C281.96 67.6694 283.88 68.4013 285.809 69.1562C287.413 69.7739 289.033 70.3518 290.66 70.9062C291.556 71.2259 292.452 71.5456 293.375 71.875C294.208 72.1611 295.04 72.4473 295.898 72.7422C298.643 74.385 299.099 75.9995 300 79C298.94 78.7872 298.94 78.7872 297.859 78.57C294.992 77.9984 292.123 77.4379 289.254 76.8789C287.023 76.4402 284.793 76.0014 282.562 75.5625C280.883 75.2367 280.883 75.2367 279.17 74.9043C278.084 74.6896 276.998 74.475 275.879 74.2539C274.895 74.0612 273.911 73.8686 272.897 73.6701C264.796 71.796 264.796 71.796 262 69C259.332 68.797 256.792 68.7169 254.125 68.75C252.977 68.759 252.977 68.759 251.807 68.7683C237.528 69.0151 225.947 72.7011 213.495 79.395C211.7 80.3361 209.852 81.1759 208 82C207.01 81.67 206.02 81.34 205 81C209.838 73.944 215.494 66.5519 224 64C225.377 63.4855 226.752 62.9641 228.125 62.4375C243.006 56.8499 258.435 59.8757 273 65Z" fill="#CECECB"/>
<path d="M247 266C246.627 278.073 246.627 278.073 242.711 282.711C236.085 288 236.085 288 233 288C233 288.66 233 289.32 233 290C231.426 291.551 231.426 291.551 229.313 293.312C226.804 295.424 224.594 297.444 222.375 299.875C219.569 302.386 217.705 302.742 214 303C213.374 294.653 213.849 289.622 219 283C219.489 282.128 219.489 282.128 219.988 281.238C224.976 272.668 237.273 266 247 266Z" fill="#CECECB"/>
<path d="M151 138C151.257 138.606 151.513 139.212 151.777 139.836C155.842 148.731 161.568 157.361 171 161C174.817 161.434 174.817 161.434 178.75 161.313C180.722 161.307 180.722 161.307 182.734 161.301C186.083 161.343 186.083 161.343 188 159C188.766 158.7 189.531 158.399 190.32 158.09C193.217 156.912 195.369 155.424 197.875 153.563C203.261 149.721 208.097 146.372 215 147C212.054 149.394 209.061 151.694 206 153.938C203.572 155.74 201.564 157.447 199.438 159.625C193.35 165.557 187.367 167.285 179.03 167.321C171.539 167.189 165.605 165.083 159.187 161.375C154.575 156.368 151.394 150.342 149 144C143.841 144.935 141.161 147.979 138 152C134.838 157.452 132.289 163.133 130 169C129.67 169 129.34 169 129 169C128.637 159.168 129.432 150.779 136 143C140.797 138.838 144.702 137.344 151 138Z" fill="#E6E6E6"/>
<path d="M157 134C159.749 135.083 162.474 136.204 165.188 137.375C165.788 137.626 166.389 137.878 167.008 138.137C168.416 138.747 169.805 139.4 171.18 140.082C178.372 143.419 185.146 144.049 193 143C195.008 142.238 196.989 141.402 198.938 140.5C208.378 136.321 218.888 137.579 229 138C224.707 142.293 217.692 143.084 211.938 144.375C208.167 145.282 205.254 146.236 202.062 148.438C194.362 153.732 185.204 155.624 176 155C176 154.34 176 153.68 176 153C177.32 153 178.64 153 180 153C180 152.34 180 151.68 180 151C178.866 151.124 177.731 151.248 176.562 151.375C170.918 151.385 167.214 148.5 163 145C159.687 141.602 158.272 138.557 157 134Z" fill="#EFEFEF"/>
<path d="M186 241C186.66 241 187.32 241 188 241C191.376 250.847 193.351 261.912 188.918 271.715C187.648 274.875 186.868 278.136 186.062 281.438C185.897 282.114 185.731 282.791 185.56 283.488C185.034 285.657 184.516 287.828 184 290C183.812 290.789 183.625 291.578 183.431 292.391C182.276 297.258 181.134 302.128 180 307C175.352 300.028 177.233 287.6 178.565 279.61C179.749 273.796 181.133 268.035 182.531 262.27C184.236 255.22 185.299 248.216 186 241Z" fill="#E5E5E5"/>
<path d="M199 121C193.028 128.34 185.057 133.217 175.586 134.441C172.337 134.498 169.229 134.344 166 134C164.745 133.872 164.745 133.872 163.465 133.742C157.591 132.795 153.323 130.04 149 126C149 125.67 149 125.34 149 125C149.785 124.985 150.571 124.971 151.38 124.956C155.004 124.88 158.627 124.784 162.25 124.687C163.485 124.665 164.72 124.642 165.992 124.619C173.135 124.412 179.613 123.649 186.497 121.705C190.867 120.474 194.599 119.533 199 121Z" fill="#CECECB"/>
<path d="M168 207C169.628 209.884 170.227 212.019 170.375 215.312C170.735 219.908 171.788 224.15 173.062 228.562C174.68 234.208 175.412 239.125 175 245C172.147 246.427 170.165 246.31 167 246C162.541 243.066 160.098 239.519 157.375 235.062C156.993 234.455 156.612 233.847 156.219 233.221C155.134 231.488 154.067 229.744 153 228C152.128 226.631 152.128 226.631 151.238 225.234C149.793 222.627 149.748 220.936 150 218C153.54 219.428 154.923 221.008 156.875 224.25C160.025 229.194 163.236 234.079 169 236C168.691 234.041 168.378 232.083 168.062 230.125C167.888 229.034 167.714 227.944 167.535 226.82C167.144 224.062 167.144 224.062 166 222C165.878 220.211 165.824 218.418 165.812 216.625C165.798 215.669 165.784 214.712 165.769 213.727C166.003 210.97 166.591 209.351 168 207Z" fill="#EAEAEA"/>
<path d="M339 276C339.33 276.99 339.66 277.98 340 279C340.99 279.33 341.98 279.66 343 280C349.229 289.254 353.079 298.646 351.456 309.974C350.469 314.36 348.546 318.365 346.578 322.387C344.048 327.562 342.902 332.183 343 338C342.34 337.67 341.68 337.34 341 337C339.685 330.901 339.816 324.715 339.812 318.5C339.8 317.493 339.788 316.486 339.775 315.449C339.764 309.894 340.136 305.245 342 300C342.66 300.33 343.32 300.66 344 301C344.414 303.285 344.414 303.285 344.625 306.062C344.7 306.982 344.775 307.901 344.852 308.848C344.901 309.558 344.95 310.268 345 311C347.174 303.009 346.596 297.444 342.625 290.062C340.833 286.97 338.982 283.974 337 281C337.66 281 338.32 281 339 281C339 279.35 339 277.7 339 276Z" fill="#CECECB"/>
<path d="M287 265C288.969 268.517 289.948 272.121 291 276C291.371 277.217 291.743 278.434 292.125 279.688C293 283 293 283 293 287C292.108 287.049 291.216 287.098 290.297 287.148C288.541 287.261 288.541 287.261 286.75 287.375C285.01 287.479 285.01 287.479 283.234 287.586C280.217 287.972 278.639 288.656 276 290C271.108 290.105 266.408 289.133 262 287C263.204 284.506 264.454 282.319 266 280C270.875 280.875 270.875 280.875 272 282C274.327 282.67 274.327 282.67 277 282C280.949 278.109 282.96 273.051 285 268C285.66 267.01 286.32 266.02 287 265Z" fill="#CECECB"/>
<path d="M188 299C188.99 299 189.98 299 191 299C191.291 299.944 191.583 300.887 191.883 301.859C192.294 303.157 192.709 304.454 193.125 305.75C193.344 306.432 193.562 307.115 193.788 307.818C195.258 312.232 197.067 316.128 199.375 320.188C202.531 326.143 202.766 331.497 201 338C200.01 338.495 200.01 338.495 199 339C192.735 328.203 187.81 317.847 187.937 305.188C187.947 304.026 187.956 302.865 187.965 301.668C187.976 300.788 187.988 299.907 188 299Z" fill="#E5E5E5"/>
<path d="M319 267C331.223 273.485 342.193 283.786 347 297C347.762 302.309 347.567 307.187 345 312C344.67 312 344.34 312 344 312C343.67 308.37 343.34 304.74 343 301C342.34 302.98 341.68 304.96 341 307C340.67 307 340.34 307 340 307C340 305.02 340 303.04 340 301C339.67 301 339.34 301 339 301C338.925 300.143 338.85 299.286 338.773 298.402C337.9 290.809 336.993 285.913 331 281C327.872 278.61 324.732 276.281 321.512 274.016C319 272 319 272 318 269C318.33 268.34 318.66 267.68 319 267Z" fill="#191919"/>
<path d="M297.137 39.8025C301.289 41.9427 305.164 44.3385 309 47C307.438 48.1875 307.438 48.1875 305 49C303.43 48.2831 301.863 47.5572 300.316 46.7891C297.215 45.7328 294.331 45.6954 291.062 45.5625C285.887 45.2947 282.379 44.6908 277.953 42.0547C274.227 40.0429 270.07 39.101 266 38C276.122 31.2524 287.202 34.9098 297.137 39.8025Z" fill="#E3E3E3"/>
<path d="M379 113C377.593 116.399 376.169 118.116 373 120C366.885 122.057 360.696 122.869 354.312 123.687C353.281 123.83 352.249 123.972 351.186 124.119C349.696 124.313 349.696 124.313 348.176 124.512C347.278 124.63 346.38 124.748 345.454 124.87C343.045 124.998 341.287 124.724 339 124C351.346 117.103 364.728 112.715 379 113Z" fill="#E5E5E5"/>
<path d="M347 252C347.66 252 348.32 252 349 252C349.086 252.897 349.171 253.794 349.26 254.719C349.581 258.081 349.904 261.443 350.227 264.805C350.366 266.254 350.505 267.703 350.643 269.152C351.682 280.091 351.682 280.091 353 291C349.804 289.402 348.921 286.107 347.438 283C345.627 278.714 345.627 278.714 343 275C342.163 267.181 343.47 259.06 347 252Z" fill="#DADADA"/>
<path d="M164 97C164.66 97.33 165.32 97.66 166 98C166 98.66 166 99.32 166 100C166.99 100.33 167.98 100.66 169 101C169 101.66 169 102.32 169 103C166.69 102.67 164.38 102.34 162 102C162 102.66 162 103.32 162 104C158.538 107 158.538 107 156 107C156 107.66 156 108.32 156 109C155.34 109 154.68 109 154 109C153.67 109.99 153.34 110.98 153 112C150.438 113.188 150.438 113.188 148 114C148 114.66 148 115.32 148 116C141.5 120 141.5 120 137 120C137.02 116.758 137.02 116.758 138 113C140.306 111.064 142.92 110.017 145.688 108.875C151.237 106.461 155.421 103.968 160 100C160.66 100 161.32 100 162 100C162 99.34 162 98.68 162 98C162.66 97.67 163.32 97.34 164 97Z" fill="#E5E5E5"/>
<path d="M327.312 69.625C328.129 69.6263 328.946 69.6276 329.787 69.6289C336.332 69.7228 342.434 70.2894 348 74C346.277 74.056 346.277 74.056 344.52 74.1133C336.031 74.4506 328.052 75.0973 319.797 77.2812C316.88 78.0308 313.975 78.5422 311 79C313.657 70.3053 319.184 69.3846 327.312 69.625Z" fill="#D7D7D7"/>
<path d="M335 55C341.393 57.3553 346.593 60.6324 352.062 64.625C353.082 65.3623 353.082 65.3623 354.121 66.1145C355.789 67.3558 357.4 68.6722 359 70C359 70.66 359 71.32 359 72C360.65 72.66 362.3 73.32 364 74C362 75 362 75 359.75 74.3633C357.838 73.6327 355.928 72.8966 354.02 72.1562C352.122 71.4297 350.203 70.7545 348.262 70.1562C342.13 68.1464 339.322 65.6263 335.961 60.1211C335 58 335 58 335 55Z" fill="#EEEEED"/>
<path d="M135 180C135.33 180 135.66 180 136 180C136 183.96 136 187.92 136 192C136.66 192 137.32 192 138 192C138 190.35 138 188.7 138 187C138.33 187 138.66 187 139 187C139.227 188.196 139.454 189.393 139.687 190.625C140.668 195.009 141.981 199.255 143.437 203.5C144.054 205.31 144.054 205.31 144.684 207.156C145.118 208.095 145.552 209.033 146 210C146.99 210.33 147.98 210.66 149 211C150.812 213.75 150.812 213.75 152 217C151.187 219.875 151.187 219.875 150 222C142.663 215.336 136.43 203.854 135 194C134.789 189.32 134.818 184.68 135 180Z" fill="#979797"/>
<path d="M185 175C185.204 179.062 185.328 183.122 185.438 187.188C185.496 188.338 185.555 189.488 185.615 190.674C185.784 199.01 185.784 199.01 183.481 201.917C181.103 203.664 179.018 205 176 205C176.573 202.133 176.861 201.139 179 199C179.342 194.348 179.342 194.348 178 190C177.466 186.185 177.168 182.531 179.047 179.074C182.353 175 182.353 175 185 175Z" fill="#E3E3E3"/>
<path d="M397 113C400.684 116.349 401.836 118.77 402.5 123.75C402.373 128.961 399.627 132.449 396 136C393.125 137.5 393.125 137.5 391 138C391 137.01 391 136.02 391 135C390.01 134.67 389.02 134.34 388 134C388.615 133.221 388.615 133.221 389.242 132.426C394.266 125.923 396.172 121.14 397 113Z" fill="#E5E5E5"/>
<path d="M173.625 94.875C174.82 94.8711 174.82 94.8711 176.039 94.8672C178 95 178 95 179 96C180.347 96.2308 181.704 96.4115 183.062 96.5625C184.362 96.7069 185.661 96.8512 187 97C184.229 100.81 180.371 101.068 176 102C180.95 102.33 185.9 102.66 191 103C191 103.33 191 103.66 191 104C180.605 104.495 180.605 104.495 170 105C169.67 103.68 169.34 102.36 169 101C167.35 100.67 165.7 100.34 164 100C164.812 98.0625 164.812 98.0625 166 96C168.842 95.0526 170.676 94.8654 173.625 94.875Z" fill="#E6E6E6"/>
<path d="M339 276C339.33 276.99 339.66 277.98 340 279C340.99 279.33 341.98 279.66 343 280C350.04 290.458 352.191 299.556 351 312C350.67 312 350.34 312 350 312C349.67 309.69 349.34 307.38 349 305C348.34 305.33 347.68 305.66 347 306C346.979 304.783 346.959 303.566 346.938 302.312C346.108 294.412 341.324 287.486 337 281C337.66 281 338.32 281 339 281C339 279.35 339 277.7 339 276Z" fill="#E2E2E1"/>
<path d="M256 242C256 242.99 256 243.98 256 245C256.99 245.33 257.98 245.66 259 246C259 249.96 259 253.92 259 258C253.627 256.925 251.646 255.993 248 252C247.937 248.329 248.244 246.116 250.313 243.062C252 242 252 242 256 242Z" fill="#DCDCDB"/>
<path d="M307 201C309.849 201.419 312.462 202.147 315.207 203.023C319.136 204.035 322.513 204.3 326.562 204.313C327.822 204.329 329.081 204.346 330.379 204.363C334.262 203.974 336.575 202.782 340 201C342.847 200.91 345.171 201.464 348 202C346.68 202.33 345.36 202.66 344 203C343.67 204.32 343.34 205.64 343 207C343 206.01 343 205.02 343 204C342.38 204.289 341.76 204.578 341.121 204.875C332.467 208.503 323.274 209.817 314.113 207.164C310.868 205.774 308.504 204.504 306 202C306.33 201.67 306.66 201.34 307 201Z" fill="#D0D0D0"/>
<path d="M150 138C152.325 139.882 153.075 141.204 154.125 144.062C156.641 150.427 162.24 155.24 167 160C166.625 162.125 166.625 162.125 166 164C158.457 161.629 154.635 155.621 151 149C149.906 146.69 148.942 144.379 148 142C148.99 142 149.98 142 151 142C150.67 140.68 150.34 139.36 150 138Z" fill="#D8D8D8"/>
<path d="M344 192C345.77 193.606 345.77 193.606 347 195C345.583 194.858 344.166 194.711 342.75 194.563C341.567 194.441 341.567 194.441 340.359 194.316C338 194 338 194 336.211 193.481C326.631 191.399 316.052 192.554 307 196C305.671 196.351 304.339 196.69 303 197C312.113 186.429 332.058 186.299 344 192Z" fill="#C8C8C8"/>
<path d="M210 201C211.155 201.33 212.31 201.66 213.5 202C223.615 204.253 234.809 203.372 245 202C238.862 207.755 231.853 208.456 223.758 208.332C219.392 207.806 215.823 206.092 212 204C211.34 203.67 210.68 203.34 210 203C210 202.34 210 201.68 210 201Z" fill="#B3B3B1"/>
<path d="M244.875 193C247.367 194.687 247.367 194.687 249 196C247 197 247 197 245.114 196.448C244.336 196.16 243.559 195.871 242.758 195.574C236.138 193.481 229.759 193.669 222.875 193.812C221.632 193.826 220.39 193.84 219.109 193.853C216.072 193.889 213.036 193.938 210 194C210 193.34 210 192.68 210 192C220.091 187.808 235.244 187.662 244.875 193Z" fill="#ACACAC"/>
<path d="M339 91C343.877 95.7196 343.877 95.7196 344.312 100.25C343.884 105.392 341.675 108.067 338.375 111.875C337 113 337 113 335 113C335.309 112.216 335.619 111.433 335.938 110.625C337.263 106.101 337.648 101.686 338 97C337.34 96.67 336.68 96.34 336 96C336.99 94.35 337.98 92.7 339 91Z" fill="#E2E2E0"/>
<path d="M252 156C253.069 156.098 253.069 156.098 254.159 156.199C261.853 156.878 269.532 157.285 277.25 157.562C278.388 157.606 279.526 157.649 280.699 157.693C283.466 157.798 286.233 157.9 289 158C284.06 160.486 280.128 162.282 274.5 162.25C273.582 162.255 272.664 162.26 271.719 162.266C268.795 161.98 266.694 161.137 264 160C261.411 159.441 258.819 159.001 256.207 158.562C254 158 254 158 252 156Z" fill="#2E2E2E"/>
<path d="M245 321C245.66 321.33 246.32 321.66 247 322C246.723 322.759 246.446 323.519 246.16 324.301C245.798 325.295 245.436 326.289 245.063 327.312C244.703 328.299 244.343 329.285 243.973 330.301C242.334 334.848 241.711 338.888 241.438 343.688C241.373 344.74 241.373 344.74 241.307 345.814C241.201 347.543 241.1 349.271 241 351C240.34 351 239.68 351 239 351C236.919 345.927 235.946 341.393 237 336C242.044 323.956 242.044 323.956 245 321Z" fill="#484848"/>
<path d="M319 267C326.411 270.932 332.182 276.006 338 282C337.34 283.32 336.68 284.64 336 286C335.039 285.112 335.039 285.112 334.059 284.207C328.239 278.867 328.239 278.867 321.938 274.125C319 272 319 272 318 269C318.33 268.34 318.66 267.68 319 267Z" fill="#1F1F1F"/>
<path d="M270 125C270.66 125.66 271.32 126.32 272 127C270.125 129.062 270.125 129.062 267 131C263.595 131.057 260.347 130.598 257 130C257 130.99 257 131.98 257 133C260.63 133 264.26 133 268 133C268 133.33 268 133.66 268 134C252.655 134.495 252.655 134.495 237 135C241.088 131.934 243.049 131.308 247.938 130.375C248.917 130.188 248.917 130.188 249.916 129.997C256.239 128.846 262.583 128.314 269 128C269.33 127.01 269.66 126.02 270 125Z" fill="#C8C8C8"/>
<path d="M363 179C361.401 181.559 360.343 183.189 358 185C351.431 186.395 344.413 184.528 338 183C341.503 180.931 344.807 180.422 348.812 179.875C349.995 179.707 351.177 179.54 352.395 179.367C355.958 179.004 359.421 178.936 363 179Z" fill="#D1D1D1"/>
<path d="M224 180C224 180.33 224 180.66 224 181C219.729 181.029 215.458 181.047 211.188 181.062C209.365 181.075 209.365 181.075 207.506 181.088C205.761 181.093 205.761 181.093 203.98 181.098C202.907 181.103 201.833 181.108 200.727 181.113C198 181 198 181 195 180C195 179.34 195 178.68 195 178C204.809 175.718 214.639 176.376 224 180Z" fill="#CDCDCD"/>
<path d="M150 138C150.33 139.32 150.66 140.64 151 142C149.732 142.557 149.732 142.557 148.438 143.125C144.453 145.298 141.334 147.952 138 151C137.67 150.01 137.34 149.02 137 148C136.34 147.34 135.68 146.68 135 146C136.496 144.77 137.991 143.541 139.488 142.313C141.083 141 141.083 141 142.5 139.188C144.856 137.322 147.11 137.807 150 138Z" fill="#EDEDED"/>
<path d="M231 40C230.67 40.99 230.34 41.98 230 43C231.996 44.9962 235.817 44.4099 238.562 44.5625C239.629 44.6273 239.629 44.6273 240.717 44.6934C242.478 44.7997 244.239 44.9004 246 45C246 45.33 246 45.66 246 46C245.381 46.0251 244.761 46.0501 244.123 46.076C241.27 46.1933 238.416 46.3154 235.562 46.4375C234.102 46.4965 234.102 46.4965 232.611 46.5567C226.699 46.8137 220.874 47.2772 215 48C218.405 44.0457 225.543 37.2714 231 40Z" fill="#464646"/>
<path d="M296 95C300.934 99.7747 300.934 99.7747 301.133 103.461C301.13 104.423 301.128 105.384 301.125 106.375C301.128 107.331 301.13 108.288 301.133 109.273C301.016 111.681 300.687 113.7 300 116C299.34 116 298.68 116 298 116C297.879 115.276 297.758 114.551 297.633 113.805C296.56 107.591 296.56 107.591 294.75 101.562C294 99 294 99 294.875 96.625C295.246 96.0888 295.617 95.5525 296 95Z" fill="#E2E2E2"/>
<path d="M345 72C347.938 72.375 347.938 72.375 351 73C351.495 73.99 351.495 73.99 352 75C346.06 75.495 346.06 75.495 340 76C340 76.33 340 76.66 340 77C339.192 77.0606 338.384 77.1212 337.551 77.1836C335.948 77.3093 335.948 77.3093 334.312 77.4375C333.257 77.5187 332.201 77.5999 331.113 77.6836C328.349 77.9645 325.711 78.4016 323 79C323 78.34 323 77.68 323 77C321.68 76.67 320.36 76.34 319 76C327.662 74.1452 336.174 73.4526 345 73C345 72.67 345 72.34 345 72Z" fill="#3F3F3F"/>
<path d="M233 57.9999C232.67 58.3299 232.34 58.6599 232 58.9999C232.99 59.6599 233.98 60.3199 235 60.9999C234.301 61.1933 233.603 61.3867 232.883 61.5859C231.973 61.8463 231.063 62.1067 230.125 62.3749C229.22 62.6302 228.315 62.8854 227.383 63.1484C224.854 63.8604 224.854 63.8604 223 65.9999C220.375 66.6249 220.375 66.6249 218 66.9999C218 66.3399 218 65.6799 218 64.9999C217.01 64.6699 216.02 64.3399 215 63.9999C216.914 63.0158 218.831 62.0378 220.75 61.0624C221.817 60.5172 222.885 59.9719 223.984 59.4101C230.1 56.5501 230.1 56.5501 233 57.9999Z" fill="#232323"/>
<path d="M168 207C169.718 210.019 170.31 212.422 170.562 215.875C170.873 219.628 171.317 223.293 172 227C171.67 226.34 171.34 225.68 171 225C170.34 225 169.68 225 169 225C168.67 225.66 168.34 226.32 168 227C166.325 223.339 165.728 220.458 165.75 216.438C165.742 215.043 165.742 215.043 165.734 213.621C166.006 210.945 166.639 209.296 168 207Z" fill="#E4E4E4"/>
<path d="M258 43C266.8 42.6549 272.163 44.3456 279 50C279 50.33 279 50.66 279 51C271.55 50.5783 263.411 48.4114 258 43Z" fill="#CBCBCB"/>
<path d="M240 35C240 35.66 240 36.32 240 37C237.545 37.7227 235.087 38.4285 232.625 39.125C231.926 39.3326 231.228 39.5401 230.508 39.7539C228.695 40.2595 226.847 40.6388 225 41C224.34 40.34 223.68 39.68 223 39C219.403 39.3233 219.403 39.3233 216 40C217.401 37.1986 219.411 36.6353 222.258 35.5977C228.046 34.3362 234.108 34.7929 240 35Z" fill="#CBCBCB"/>
<path d="M350 267C350.33 267.66 350.66 268.32 351 269C351.66 269 352.32 269 353 269C353.33 268.34 353.66 267.68 354 267C354.66 272.61 355.32 278.22 356 284C355.67 283.01 355.34 282.02 355 281C354.34 281 353.68 281 353 281C353 283.31 353 285.62 353 288C352.67 288 352.34 288 352 288C350.796 280.945 349.719 274.166 350 267Z" fill="#141514"/>
<path d="M342 289C346.756 295.053 347.642 299.359 347 307C346 310.125 346 310.125 345 312C344.67 312 344.34 312 344 312C343.939 311.218 343.879 310.435 343.816 309.629C343.733 308.617 343.649 307.605 343.562 306.562C343.481 305.553 343.4 304.544 343.316 303.504C343.268 301.064 343.268 301.064 342 300C341.928 298.147 341.916 296.292 341.937 294.438C341.947 293.426 341.956 292.414 341.965 291.371C341.976 290.589 341.988 289.806 342 289Z" fill="#2C2C2C"/>
<path d="M164 97C164.66 97.33 165.32 97.66 166 98C166 98.66 166 99.32 166 100C166.99 100.33 167.98 100.66 169 101C169 101.66 169 102.32 169 103C166.69 102.67 164.38 102.34 162 102C162 102.66 162 103.32 162 104C158.538 107 158.538 107 156 107C156 107.66 156 108.32 156 109C155.34 109 154.68 109 154 109C153.67 109.66 153.34 110.32 153 111C153 110.01 153 109.02 153 108C151.68 108.33 150.36 108.66 149 109C150.398 106.205 152.627 105.471 155.285 104.02C157.157 102.907 158.506 101.572 160 100C160.66 100 161.32 100 162 100C162 99.34 162 98.68 162 98C162.66 97.67 163.32 97.34 164 97Z" fill="#D5D5D5"/>
<path d="M297 313C302.267 315.266 305.912 319.236 309 324C309.658 327.309 309.431 329.602 309 333C304.959 329.825 303.751 326.14 302.016 321.484C300.711 318.293 299.039 315.767 297 313Z" fill="#383837"/>
<path d="M337 52C341.827 53.4129 345.716 55.4297 350 58C350 59.98 350 61.96 350 64C349.42 63.6017 348.84 63.2034 348.242 62.793C343.936 59.8725 339.726 57.1812 335 55C335.66 54.01 336.32 53.02 337 52Z" fill="#17171A"/>
<path d="M196 67C196.66 67 197.32 67 198 67C198 67.66 198 68.32 198 69C199.32 69.33 200.64 69.66 202 70C201.438 71.875 201.438 71.875 200 74C196.562 75.1875 196.562 75.1875 193 76C192.01 76.33 191.02 76.66 190 77C190.507 72.6025 193.083 70.1305 196 67Z" fill="#DCDCDC"/>
<path d="M143 207C143.433 207.474 143.866 207.949 144.312 208.438C146.023 210.237 146.023 210.237 149 211C150.812 213.75 150.812 213.75 152 217C151.188 219.875 151.188 219.875 150 222C146.025 218.299 143.129 215.273 142.812 209.688C142.874 208.801 142.936 207.914 143 207Z" fill="#B2B2B2"/>
<path d="M159 168C170.385 168.99 170.385 168.99 182 170C176.644 174.017 172.514 173.807 166 173C163.255 171.941 161.402 170.747 159 169C159 168.67 159 168.34 159 168Z" fill="#BBBBBB"/>
<path d="M215 147C211.33 149.982 207.574 152.825 203.77 155.633C201.891 157.025 201.891 157.025 200 159C200 156.69 200 154.38 200 152C201.556 151.154 203.12 150.324 204.688 149.5C205.558 149.036 206.428 148.572 207.324 148.094C210.118 146.952 212.016 146.785 215 147Z" fill="#CCCCCC"/>
<path d="M351 102C351.99 102.66 352.98 103.32 354 104C354 104.66 354 105.32 354 106C354.66 106.33 355.32 106.66 356 107C347.738 114.667 347.738 114.667 343 116C344.52 112.545 346.626 109.685 348.879 106.684C350.186 104.881 350.186 104.881 351 102Z" fill="#D5D5D5"/>
<path d="M308 43C311.661 43.5854 313.545 45.0832 316.25 47.5625C316.956 48.2032 317.663 48.8438 318.391 49.5039C318.922 49.9976 319.453 50.4913 320 51C319.67 52.32 319.34 53.64 319 55C317.373 53.8775 315.749 52.7519 314.125 51.625C312.768 50.6853 312.768 50.6853 311.383 49.7266C309 48 309 48 307 46C307.66 45.67 308.32 45.34 309 45C308.67 44.34 308.34 43.68 308 43Z" fill="#1A1A19"/>
<path d="M161 182C163.646 185.324 165.702 188.844 167.75 192.562C168.384 193.698 169.018 194.834 169.672 196.004C171 199 171 199 170 202C161.708 191.608 161.708 191.608 160 186C160.402 183.766 160.402 183.766 161 182Z" fill="#C2C2C1"/>
<path d="M211.324 137.805C212.866 137.814 212.866 137.814 214.439 137.824C215.511 137.841 216.583 137.858 217.688 137.875C218.771 137.884 219.854 137.893 220.971 137.902C223.647 137.926 226.324 137.959 229 138C226.839 140.161 225.479 140.716 222.625 141.687C221.854 141.959 221.083 142.231 220.289 142.512C217.799 143.043 216.384 142.811 214 142C214.66 141.34 215.32 140.68 216 140C211.71 140 207.42 140 203 140C206.351 137.766 207.418 137.761 211.324 137.805Z" fill="#D9D9D9"/>
<path d="M216 144C215.01 144 214.02 144 213 144C213 144.66 213 145.32 213 146C211.02 146.33 209.04 146.66 207 147C207.33 147.66 207.66 148.32 208 149C204 151 200 153 196 155C196 154.01 196 153.02 196 152C195.01 151.67 194.02 151.34 193 151C194.454 150.66 194.454 150.66 195.938 150.313C199.979 149.177 203.383 147.243 206.984 145.121C210.409 143.216 212.314 142.856 216 144Z" fill="#2C2C2C"/>
<path d="M266 433C266.33 433.66 266.66 434.32 267 435C267.99 435.33 268.98 435.66 270 436C269.34 438.97 268.68 441.94 268 445C266.68 445.33 265.36 445.66 264 446C263.01 444.68 262.02 443.36 261 442C262.32 442.33 263.64 442.66 265 443C265 442.34 265 441.68 265 441C264.01 440.67 263.02 440.34 262 440C262.33 439.34 262.66 438.68 263 438C263.66 438.33 264.32 438.66 265 439C265.33 437.02 265.66 435.04 266 433Z" fill="#19191A"/>
<path d="M339 276C339.33 276.99 339.66 277.98 340 279C340.99 279.33 341.98 279.66 343 280C344.711 282.216 345.753 284.462 347 287C346.67 287.66 346.34 288.32 346 289C344.68 289 343.36 289 342 289C340.039 286.423 338.446 283.893 337 281C337.66 281 338.32 281 339 281C339 279.35 339 277.7 339 276Z" fill="#D5D5D5"/>
<path d="M365 88C366.439 88.0875 367.876 88.1957 369.312 88.3125C370.113 88.3705 370.914 88.4285 371.738 88.4883C374.421 89.0953 375.356 89.8215 377 92C377.688 95.1875 377.688 95.1875 378 98C374.74 96.5122 372.068 94.6433 369.25 92.4375C368.451 91.8175 367.652 91.1974 366.828 90.5586C366.225 90.0443 365.622 89.5299 365 89C365 88.67 365 88.34 365 88Z" fill="#2D2D2D"/>
<path d="M365 109C370.94 109.33 376.88 109.66 383 110C382.01 110.66 381.02 111.32 380 112C379.67 112.99 379.34 113.98 379 115C379 114.34 379 113.68 379 113C378.157 113.095 377.314 113.191 376.445 113.289C375.35 113.4 374.254 113.511 373.125 113.625C371.489 113.799 371.489 113.799 369.82 113.977C368.424 113.988 368.424 113.988 367 114C366.34 113.34 365.68 112.68 365 112C365 111.01 365 110.02 365 109Z" fill="#3C3C3C"/>
<path d="M270 73C273.96 73.33 277.92 73.66 282 74C282 74.33 282 74.66 282 75C280.35 75.33 278.7 75.66 277 76C277.33 76.66 277.66 77.32 278 78C270.74 77.34 263.48 76.68 256 76C256 75.67 256 75.34 256 75C260.62 75 265.24 75 270 75C270 74.34 270 73.68 270 73Z" fill="#2E2E2E"/>
<path d="M320 71C325.94 71 331.88 71 338 71C338.33 71.66 338.66 72.32 339 73C329.595 73.99 329.595 73.99 320 75C319.67 74.34 319.34 73.68 319 73C319.33 72.34 319.66 71.68 320 71Z" fill="#CECECB"/>
<path d="M299 36C302.754 36.5977 305.697 37.6843 309.062 39.4375C309.899 39.8693 310.736 40.3012 311.598 40.7461C312.39 41.1599 313.183 41.5737 314 42C315.332 42.6694 316.665 43.337 318 44C317.34 45.32 316.68 46.64 316 48C315.402 47.4638 314.804 46.9275 314.188 46.375C310.433 43.5774 306.482 41.5109 302.328 39.3672C300 38 300 38 299 36Z" fill="#D0D0CF"/>
<path d="M266 333C266.66 333 267.32 333 268 333C268 339.27 268 345.54 268 352C265.892 348.838 265.662 347.493 265.375 343.812C265.3 342.911 265.225 342.01 265.148 341.082C265.075 340.051 265.075 340.051 265 339C264.01 339.66 263.02 340.32 262 341C262.597 337.658 263.736 335.536 266 333Z" fill="#3E3E3E"/>
<path d="M345 277C347.486 280.062 349.1 283.146 350.688 286.75C351.125 287.735 351.561 288.72 352.012 289.734C352.338 290.482 352.664 291.23 353 292C352.01 292 351.02 292 350 292C349.67 292.66 349.34 293.32 349 294C345.923 288.066 344.513 283.701 345 277Z" fill="#262625"/>
<path d="M338 202C335.385 204.568 334.055 204.996 330.328 205.293C328.968 205.273 327.609 205.238 326.25 205.187C325.553 205.174 324.855 205.16 324.137 205.146C322.424 205.111 320.712 205.057 319 205C321.658 201.957 323.745 201.434 327.793 201.051C331.28 200.97 334.559 201.447 338 202Z" fill="#CECECB"/>
<path d="M374 183C372.598 187.461 370.402 189.847 367 193C366.443 193.598 365.886 194.196 365.312 194.812C364 196 364 196 362 196C363.513 190.619 368.01 183 374 183Z" fill="#C8C8C7"/>
<path d="M370 167C371.32 167 372.64 167 374 167C374.347 171.862 373.523 174.827 371 179C370.01 179.495 370.01 179.495 369 180C368.973 178.583 368.953 177.167 368.938 175.75C368.926 174.961 368.914 174.172 368.902 173.359C368.996 171.093 369.368 169.171 370 167Z" fill="#D0D0D0"/>
<path d="M317 369C317.687 371.491 318 373.379 318 376C318.66 376.66 319.32 377.32 320 378C319.049 379.173 318.089 380.338 317.125 381.5C316.591 382.15 316.058 382.799 315.508 383.469C315.01 383.974 314.513 384.479 314 385C313.34 385 312.68 385 312 385C313.287 379.456 314.919 374.298 317 369Z" fill="#D6D6D6"/>
<path d="M289 158C287.677 158.686 286.341 159.348 285 160C284.278 160.371 283.556 160.743 282.812 161.125C278.958 162.324 274.996 162.73 271 162C270.34 161.01 269.68 160.02 269 159C275.688 158.376 282.281 157.871 289 158Z" fill="#171717"/>
<path d="M369 149C370.606 149.283 372.21 149.577 373.812 149.875C375.152 150.119 375.152 150.119 376.52 150.367C379 151 379 151 382 153C382 153.99 382 154.98 382 156C378.144 156.359 376.475 156.334 373.25 154.062C372.507 153.382 371.765 152.701 371 152C370.34 151.67 369.68 151.34 369 151C369 150.34 369 149.68 369 149Z" fill="#D6D6D6"/>
<path d="M228.188 50.875C229.089 50.8931 229.99 50.9111 230.918 50.9297C231.605 50.9529 232.292 50.9761 233 51C232 53 232 53 230.145 53.7813C228.99 54.1371 228.99 54.1371 227.812 54.5C227.006 54.754 226.199 55.0079 225.367 55.2696C224.195 55.6311 224.195 55.6311 223 56C221.237 56.5878 221.237 56.5878 219.438 57.1875C218.633 57.4557 217.829 57.7238 217 58C219.944 52.6727 222.004 50.7144 228.188 50.875Z" fill="#303030"/>
<path d="M150 138C153.325 140.692 154.525 144.065 156 148C156 148.99 156 149.98 156 151C155.34 150.67 154.68 150.34 154 150C153.67 150.66 153.34 151.32 153 152C151.35 148.7 149.7 145.4 148 142C148.99 142 149.98 142 151 142C150.67 140.68 150.34 139.36 150 138Z" fill="#D5D5D4"/>
<path d="M227.438 190.937C228.36 190.942 229.282 190.946 230.232 190.951C232.488 190.963 234.744 190.979 237 191C237 191.33 237 191.66 237 192C234.001 192.339 231.001 192.671 228 193C226.741 193.143 226.741 193.143 225.457 193.289C220.269 193.852 215.219 194.097 210 194C210 193.34 210 192.68 210 192C215.849 190.981 221.509 190.882 227.438 190.937Z" fill="#E0E0E0"/>
<path d="M151 172C152.106 172.936 153.209 173.874 154.312 174.812C154.927 175.335 155.542 175.857 156.176 176.395C157.854 177.872 159.439 179.4 161 181C160.67 181.99 160.34 182.98 160 184C157.959 182.384 155.959 180.714 154 179C154 178.34 154 177.68 154 177C153.361 176.897 152.721 176.794 152.062 176.688C151.382 176.461 150.701 176.234 150 176C149.67 175.01 149.34 174.02 149 173C149.66 172.67 150.32 172.34 151 172Z" fill="#E1E1E1"/>
<path d="M337 95C337.66 95 338.32 95 339 95C339 98.3 339 101.6 339 105C339.99 105.33 340.98 105.66 342 106C340.715 108.867 339.429 110.976 337 113C336.34 113 335.68 113 335 113C335.309 112.216 335.619 111.433 335.938 110.625C337.263 106.101 337.648 101.686 338 97C337.34 96.67 336.68 96.34 336 96C336.33 95.67 336.66 95.34 337 95Z" fill="#BBBBB9"/>
<path d="M323 77C323 77.66 323 78.32 323 79C319.332 80.9619 316.128 82.393 312 83C312 82.01 312 81.02 312 80C311.34 80 310.68 80 310 80C310.33 79.34 310.66 78.68 311 78C315.03 77.0627 318.874 76.9018 323 77Z" fill="#181818"/>
<path d="M210 201C215.398 202.151 220.71 203.424 226 205C226 205.33 226 205.66 226 206C213.98 206.568 213.98 206.568 210 203C210 202.34 210 201.68 210 201Z" fill="#CFCFCF"/>
<path d="M318.75 190.375C319.549 190.486 320.348 190.597 321.172 190.711C321.775 190.806 322.378 190.902 323 191C323 191.33 323 191.66 323 192C322.108 192.193 321.216 192.387 320.297 192.586C319.126 192.846 317.956 193.107 316.75 193.375C315.59 193.63 314.43 193.885 313.234 194.148C310.088 194.849 310.088 194.849 307.766 196.164C306 197 306 197 303 196C308.078 193.07 308.078 193.07 310 192C310.639 191.618 311.279 191.237 311.938 190.844C314.475 189.806 316.056 189.979 318.75 190.375Z" fill="#B5B5B5"/>
<path d="M142 142C142 142.66 142 143.32 142 144C142.66 144 143.32 144 144 144C142.607 147.367 141.021 148.986 138 151C137.67 150.01 137.34 149.02 137 148C136.34 147.34 135.68 146.68 135 146C139.75 142 139.75 142 142 142Z" fill="#F3F3F3"/>
<path d="M158 132C160.706 132.256 163.372 132.568 166.062 132.938C167.2 133.087 167.2 133.087 168.361 133.24C170.242 133.489 172.121 133.744 174 134C174 134.33 174 134.66 174 135C171.36 135.33 168.72 135.66 166 136C166 136.66 166 137.32 166 138C162.225 136.909 159.53 136.092 157 133C157.33 132.67 157.66 132.34 158 132Z" fill="#363636"/>
<path d="M245 202C242.177 204.7 240.604 205.929 236.668 206.391C235.519 206.344 234.371 206.298 233.188 206.25C231.445 206.196 231.445 206.196 229.668 206.141C228.788 206.094 227.907 206.048 227 206C227 205.67 227 205.34 227 205C228.873 204.491 230.748 203.993 232.625 203.5C233.669 203.222 234.713 202.943 235.789 202.656C238.957 202.009 241.777 201.884 245 202Z" fill="#DFDFDE"/>
<path d="M237 336C237.33 336 237.66 336 238 336C238.33 337.98 238.66 339.96 239 342C239.66 341.01 240.32 340.02 241 339C241 342.96 241 346.92 241 351C240.34 351 239.68 351 239 351C236.896 345.871 236.782 341.439 237 336Z" fill="#515150"/>
<path d="M209 139C210.945 138.707 210.945 138.707 213.125 138.813C214.404 138.874 215.683 138.936 217 139C211.857 144.571 211.857 144.571 208 145C207.67 144.01 207.34 143.02 207 142C207.66 141.01 208.32 140.02 209 139Z" fill="#F4F4F4"/>
<path d="M223 104C225 107 225 107 224.625 109.188C224.419 109.786 224.213 110.384 224 111C221.69 111 219.38 111 217 111C218.393 107.633 219.979 106.014 223 104Z" fill="#D7D7D7"/>
<path d="M227 47C225.25 50.875 225.25 50.875 223 52C220.667 52.0402 218.333 52.0432 216 52C219.12 47.3938 221.549 46.8526 227 47Z" fill="#F6F6F6"/>
<path d="M295.562 73C298 74 298 74 299.312 76.5625C299.653 77.7691 299.653 77.7691 300 79C296.442 78.3901 293.317 77.4216 290 76C291.824 73.6004 292.476 73 295.562 73Z" fill="#D2D2D2"/>
<path d="M262 50C265.868 51.1176 268.289 52.0287 271 55C260.442 55.1845 260.442 55.1845 256 54C256 53.67 256 53.34 256 53C258.31 53 260.62 53 263 53C262.67 52.01 262.34 51.02 262 50Z" fill="#AEAEAE"/>
<path d="M340 361C338.625 363 338.625 363 337 365C336.34 365 335.68 365 335 365C334.67 365.99 334.34 366.98 334 368C333.01 368 332.02 368 331 368C331.66 365.69 332.32 363.38 333 361C336.01 360.066 336.867 359.955 340 361Z" fill="#D5D5D4"/>
<path d="M360 202C360.99 202 361.98 202 363 202C363 205.63 363 209.26 363 213C362.01 213 361.02 213 360 213C360 209.37 360 205.74 360 202Z" fill="#909090"/>
<path d="M311 108C311.33 108 311.66 108 312 108C312.155 109.423 312.155 109.423 312.312 110.875C312.685 114.291 312.685 114.291 316 116C314.726 118.038 313.389 120.039 312 122C311.34 122 310.68 122 310 122C310.33 117.38 310.66 112.76 311 108Z" fill="#CACACA"/>
<path d="M150 218C153.291 219.135 153.996 219.993 155.75 223.125C156.162 224.074 156.575 225.022 157 226C156.34 226 155.68 226 155 226C154.34 226.66 153.68 227.32 153 228C150.592 224.488 149.634 222.273 150 218Z" fill="#D4D4D4"/>
<path d="M166 160C169.688 160.498 171.605 161.101 174 164C171.646 165.429 170.52 166.087 167.75 165.625C167.173 165.419 166.595 165.213 166 165C166 163.35 166 161.7 166 160Z" fill="#F1F1F1"/>
<path d="M354 68C356.475 68.99 356.475 68.99 359 70C359 70.66 359 71.32 359 72C361.475 72.99 361.475 72.99 364 74C362 75 362 75 359.398 74.2227C357.902 73.6484 357.902 73.6484 356.375 73.0625C355.372 72.6822 354.369 72.302 353.336 71.9102C352.565 71.6098 351.794 71.3095 351 71C351.99 70.67 352.98 70.34 354 70C354 69.34 354 68.68 354 68Z" fill="#B5B5B5"/>
<path d="M350 64C351.65 65.32 353.3 66.64 355 68C354.67 68.66 354.34 69.32 354 70C352.742 69.8762 351.484 69.7525 350.188 69.625C349.126 69.5206 349.126 69.5206 348.043 69.4141C346 69 346 69 343 67C344.65 67 346.3 67 348 67C348 66.34 348 65.68 348 65C348.66 64.67 349.32 64.34 350 64Z" fill="#DBDBDA"/>
<path d="M227 44C227 44.66 227 45.32 227 46C223.04 46.66 219.08 47.32 215 48C218 44 218 44 221 43.1875C224 43 224 43 227 44Z" fill="#232323"/>
<path d="M308 35C310 37 310 37 310 40C309.134 39.6907 308.267 39.3813 307.375 39.0625C304.238 38.0751 301.249 37.4642 298 37C298 36.34 298 35.68 298 35C301.58 33.7606 304.345 34.126 308 35Z" fill="#2B2B2B"/>
<path d="M334 354C334.33 354 334.66 354 335 354C334.492 358.318 333.803 362.033 332 366C331.01 366 330.02 366 329 366C329 362.556 329.796 361.252 331.5 358.312C331.964 357.504 332.428 356.696 332.906 355.863C333.267 355.248 333.628 354.634 334 354Z" fill="#4B4B4B"/>
<path d="M186 241C186.66 241 187.32 241 188 241C190.429 248.429 190.429 248.429 189 252C188.34 251.34 187.68 250.68 187 250C186.01 250.495 186.01 250.495 185 251C185.33 247.7 185.66 244.4 186 241Z" fill="#B4B4B4"/>
<path d="M141 199C142.991 201.986 143.941 204.597 145 208C144.01 208.99 143.02 209.98 142 211C140.375 208.938 140.375 208.938 139 206C139.812 202.188 139.812 202.188 141 199Z" fill="#A0A0A0"/>
<path d="M307 201C311.133 201.472 314.358 203.052 318 205C318 205.33 318 205.66 318 206C313.755 206.333 311.645 206.439 308.062 204C307.382 203.34 306.701 202.68 306 202C306.33 201.67 306.66 201.34 307 201Z" fill="#DBDBDB"/>
<path d="M257 130C260.3 130 263.6 130 267 130C267 130.99 267 131.98 267 133C263.7 133 260.4 133 257 133C257 132.01 257 131.02 257 130Z" fill="#F9F9F9"/>
<path d="M147 195C147.33 195 147.66 195 148 195C148.33 198.3 148.66 201.6 149 205C149.33 205 149.66 205 150 205C150 207.97 150 210.94 150 214C149.67 213.01 149.34 212.02 149 211C148.01 210.67 147.02 210.34 146 210C146.33 205.05 146.66 200.1 147 195Z" fill="#3F3F3F"/>
<path d="M154 150C156.438 150.75 156.438 150.75 159 152C159.812 154.125 159.812 154.125 160 156C158.125 156.625 158.125 156.625 156 157C154 155 154 155 153.875 152.375C153.916 151.591 153.957 150.808 154 150Z" fill="#EEEEEC"/>
<path d="M230 50C231.98 50 233.96 50 236 50C236 50.66 236 51.32 236 52C237.32 52.66 238.64 53.32 240 54C237.69 54.66 235.38 55.32 233 56C232.814 55.0719 232.814 55.0719 232.625 54.125C232.128 51.8088 232.128 51.8088 230 50Z" fill="#DEDEDE"/>
<path d="M299 42C302.995 43.3697 305.8 45.2572 309 48C306.83 48.9547 305.437 49.144 303.176 48.3984C301.432 47.6413 299.714 46.8239 298 46C298.66 45.67 299.32 45.34 300 45C299.67 44.01 299.34 43.02 299 42Z" fill="#CBCBCB"/>
<path d="M243 351C243.66 351.33 244.32 351.66 245 352C245 357.61 245 363.22 245 369C244.01 368.67 243.02 368.34 242 368C241.67 367.01 241.34 366.02 241 365C241.66 365 242.32 365 243 365C243 360.38 243 355.76 243 351Z" fill="#A9A9A9"/>
<path d="M373 135C373.33 135.99 373.66 136.98 374 138C373.01 139.485 373.01 139.485 372 141C372.66 141.33 373.32 141.66 374 142C372.25 143.062 372.25 143.062 370 144C368.68 143.67 367.36 143.34 366 143C368.31 140.36 370.62 137.72 373 135Z" fill="#CBCBCB"/>
<path d="M299 105C299.66 105 300.32 105 301 105C301.143 112.429 301.143 112.429 300 116C299.34 116 298.68 116 298 116C297.973 114.354 297.954 112.708 297.938 111.062C297.926 110.146 297.914 109.229 297.902 108.285C298 106 298 106 299 105Z" fill="#DCDCDC"/>
<path d="M161 182C164.324 186.335 165.12 188.471 165 194C162.999 191.453 161.143 189.047 160 186C160.375 183.75 160.375 183.75 161 182Z" fill="#CECECB"/>
<path d="M270 182C273.3 182 276.6 182 280 182C279.67 183.65 279.34 185.3 279 187C276.69 187 274.38 187 272 187C273.32 186.01 274.64 185.02 276 184C273.03 183.505 273.03 183.505 270 183C270 182.67 270 182.34 270 182Z" fill="#5D5D5D"/>
<path d="M349 119C349.66 119.33 350.32 119.66 351 120C349.02 120.99 349.02 120.99 347 122C347.99 122.66 348.98 123.32 350 124C346.37 124.33 342.74 124.66 339 125C342.226 121.774 344.751 120.545 349 119Z" fill="#B7B7B7"/>
<path d="M159 72C159.66 72.33 160.32 72.66 161 73C157.04 76.96 153.08 80.92 149 85C149 80.4177 151.916 78.1817 155 75C157.375 73.0625 157.375 73.0625 159 72Z" fill="#111111"/>
<path d="M169 211C169.33 211 169.66 211 170 211C170.061 211.652 170.121 212.305 170.184 212.977C170.635 217.687 171.142 222.342 172 227C171.67 226.34 171.34 225.68 171 225C170.34 225 169.68 225 169 225C168.67 225.66 168.34 226.32 168 227C168.33 221.72 168.66 216.44 169 211Z" fill="#D2D2D2"/>
<path d="M205 44C205.66 44.33 206.32 44.66 207 45C206.169 45.814 206.169 45.814 205.32 46.6445C204.234 47.7177 204.234 47.7177 203.125 48.8125C202.406 49.5202 201.686 50.2279 200.945 50.957C198.846 53.044 198.846 53.044 197 56C196.67 55.01 196.34 54.02 196 53C198.653 49.3615 201.232 46.5122 205 44Z" fill="#D3D3D3"/>
<path d="M287 265C288.429 267.354 289.087 268.48 288.625 271.25C288.419 271.827 288.213 272.405 288 273C288 272.34 288 271.68 288 271C286.35 271.66 284.7 272.32 283 273C284.125 270.028 285.223 267.666 287 265Z" fill="#CECECE"/>
<path d="M335 191C339.245 190.667 341.355 190.561 344.938 193C345.618 193.66 346.299 194.32 347 195C344.03 194.67 341.06 194.34 338 194C338 193.34 338 192.68 338 192C337.01 191.67 336.02 191.34 335 191Z" fill="#D5D5D5"/>
<path d="M210 179C208 181 208 181 205.617 181.195C204.712 181.172 203.807 181.149 202.875 181.125C201.51 181.098 201.51 181.098 200.117 181.07C199.419 181.047 198.72 181.024 198 181C198 180.34 198 179.68 198 179C206.571 177.714 206.571 177.714 210 179Z" fill="#EFEFEF"/>
<path d="M157.312 104.812C157.869 105.204 158.426 105.596 159 106C158.01 106.33 157.02 106.66 156 107C156 107.66 156 108.32 156 109C155.34 109 154.68 109 154 109C153.67 109.66 153.34 110.32 153 111C153 110.01 153 109.02 153 108C151.68 108.33 150.36 108.66 149 109C150.721 105.557 153.545 103.489 157.312 104.812Z" fill="#CBCBCB"/>
<path d="M348 202C346.68 202.33 345.36 202.66 344 203C343.67 204.32 343.34 205.64 343 207C343 206.01 343 205.02 343 204C340.36 204 337.72 204 335 204C340.101 200.599 342.039 201.135 348 202Z" fill="#A9A9A9"/>
<path d="M240 201C247.429 200.714 247.429 200.714 251 203C250.67 203.99 250.34 204.98 250 206C249.34 206 248.68 206 248 206C247.67 205.34 247.34 204.68 247 204C245.672 203.646 244.338 203.315 243 203C242.01 202.34 241.02 201.68 240 201Z" fill="#545454"/>
<path d="M180 151C180.66 151 181.32 151 182 151C182 151.66 182 152.32 182 153C183.65 153 185.3 153 187 153C185 155 185 155 182.836 155.195C181.618 155.161 181.618 155.161 180.375 155.125C179.558 155.107 178.74 155.089 177.898 155.07C177.272 155.047 176.645 155.024 176 155C176 154.34 176 153.68 176 153C177.32 153 178.64 153 180 153C180 152.34 180 151.68 180 151Z" fill="#BFBFBF"/>
<path d="M268 172C268.66 172 269.32 172 270 172C270 174.64 270 177.28 270 180C268.35 180.33 266.7 180.66 265 181C265.99 178.03 266.98 175.06 268 172Z" fill="#474747"/>
<path d="M270 125C270.66 125.66 271.32 126.32 272 127C270.188 129.062 270.188 129.062 267 131C263.27 131.058 259.678 130.593 256 130C256 129.67 256 129.34 256 129C262.435 128.505 262.435 128.505 269 128C269.33 127.01 269.66 126.02 270 125Z" fill="#A9A9A9"/>
<path d="M261 86C264.3 86 267.6 86 271 86C270.67 87.32 270.34 88.64 270 90C268.35 90 266.7 90 265 90C265 89.01 265 88.02 265 87C263.68 86.67 262.36 86.34 261 86Z" fill="#414141"/>
<path d="M289 51C289.66 51.33 290.32 51.66 291 52C289.763 53.2994 289.763 53.2994 288.5 54.625C286.341 57.1789 286.012 57.8664 285.688 61.375C285.791 62.2412 285.894 63.1075 286 64C285.34 64 284.68 64 284 64C283.385 56.7385 283.385 56.7385 286.5 53C287.325 52.34 288.15 51.68 289 51Z" fill="#C6C6C6"/>
<path d="M214 47C216.64 47 219.28 47 222 47C220.35 48.32 218.7 49.64 217 51C215.68 50.34 214.36 49.68 213 49C213.33 48.34 213.66 47.68 214 47ZM215 51C217.97 51.495 217.97 51.495 221 52C221 52.33 221 52.66 221 53C219.02 53 217.04 53 215 53C215 52.34 215 51.68 215 51Z" fill="#C9C9C9"/>
<path d="M244 352C244.99 352.33 245.98 352.66 247 353C247.688 355.062 247.688 355.062 248 357C247.34 357 246.68 357 246 357C245.67 359.31 245.34 361.62 245 364C244.67 364 244.34 364 244 364C244 360.04 244 356.08 244 352Z" fill="#262626"/>
<path d="M240 333C240.33 333 240.66 333 241 333C240.886 334.48 240.759 335.959 240.625 337.438C240.521 338.673 240.521 338.673 240.414 339.934C240.277 340.616 240.141 341.297 240 342C239.01 342.495 239.01 342.495 238 343C237.805 336.945 237.805 336.945 238 335C238.66 334.34 239.32 333.68 240 333Z" fill="#070706"/>
<path d="M227 274C227.66 274.33 228.32 274.66 229 275C228.67 275.66 228.34 276.32 228 277C227.34 277 226.68 277 226 277C225.752 277.619 225.505 278.238 225.25 278.875C223.794 281.351 222.622 281.951 220 283C223.625 276.25 223.625 276.25 227 274Z" fill="#D2D2D2"/>
<path d="M252 156C255.96 156.33 259.92 156.66 264 157C262 159 262 159 259.125 159.312C256 159 256 159 252 156Z" fill="#595959"/>
<path d="M392 144C391.67 145.32 391.34 146.64 391 148C388.69 148 386.38 148 384 148C387.5 144 387.5 144 392 144Z" fill="#D0D0D0"/>
<path d="M346 56C348 57.1875 348 57.1875 350 59C350.25 61.6875 350.25 61.6875 350 64C347.69 62.35 345.38 60.7 343 59C343.99 58.01 344.98 57.02 346 56Z" fill="#363636"/>
<path d="M305 325C306.32 325 307.64 325 309 325C309 327.64 309 330.28 309 333C306.101 330.605 305.498 328.688 305 325Z" fill="#0B0B0A"/>
<path d="M342 289C345 293 345 293 345.074 295.141C344.716 297.094 344.358 299.047 344 301C343.34 300.67 342.68 300.34 342 300C342 296.37 342 292.74 342 289Z" fill="#464645"/>
<path d="M161 262C163 264 163 264 164 267C164.99 267.66 165.98 268.32 167 269C167 269.66 167 270.32 167 271C165.125 270.688 165.125 270.688 163 270C160.848 266.772 160.799 265.716 161 262Z" fill="#9D9D9D"/>
<path d="M151 172C152.65 173.65 154.3 175.3 156 177C155.34 177.66 154.68 178.32 154 179C154 178.34 154 177.68 154 177C153.361 176.897 152.721 176.794 152.062 176.688C151.382 176.461 150.701 176.234 150 176C149.67 175.01 149.34 174.02 149 173C149.66 172.67 150.32 172.34 151 172Z" fill="#D2D2D2"/>
<path d="M374 125C374.33 125.66 374.66 126.32 375 127C377.025 127.652 377.025 127.652 379 128C374.947 128.982 371.161 129.082 367 129C369.319 127.454 371.506 126.204 374 125Z" fill="#9E9E9E"/>
<path d="M267 114C269.97 114.33 272.94 114.66 276 115C276 115.33 276 115.66 276 116C274.36 116.217 274.36 116.217 272.688 116.438C269.069 116.883 269.069 116.883 266 118C266.33 116.68 266.66 115.36 267 114Z" fill="#E8E8E8"/>
<path d="M242 353C242.33 353 242.66 353 243 353C243 356.96 243 360.92 243 365C242.01 365 241.02 365 240 365C239.67 364.01 239.34 363.02 239 362C239.66 361.67 240.32 361.34 241 361C241.465 359.105 241.465 359.105 241.625 356.938C241.749 355.638 241.873 354.339 242 353Z" fill="#EAEAEA"/>
<path d="M285 128C287.312 128.188 287.312 128.188 289 129C286.75 131.562 286.75 131.562 284 134C281.688 133.812 281.688 133.812 280 133C282.25 130.438 282.25 130.438 285 128Z" fill="#BCBCBC"/>
<path d="M338 71C344.625 71.75 344.625 71.75 348 74C345.03 74 342.06 74 339 74C338.67 73.01 338.34 72.02 338 71Z" fill="#E5E5E5"/>
<path d="M340 330C340.33 330 340.66 330 341 330C341.144 331.114 341.289 332.227 341.438 333.375C341.784 336.821 341.784 336.821 343 339C342.01 339.495 342.01 339.495 341 340C340.34 341.32 339.68 342.64 339 344C339.33 339.38 339.66 334.76 340 330Z" fill="#393938"/>
<path d="M369 149C373.95 149.99 373.95 149.99 379 151C377.68 151.33 376.36 151.66 375 152C374.67 152.66 374.34 153.32 374 154C371.5 152.625 371.5 152.625 369 151C369 150.34 369 149.68 369 149Z" fill="#B8B8B8"/>
<path d="M210 74C211.333 76.6666 210.671 78.1668 210 81C208.35 81.33 206.7 81.66 205 82C206.65 79.36 208.3 76.72 210 74Z" fill="#C6C6C6"/>
<path d="M151 215C151.688 216.812 151.688 216.812 152 219C150.562 220.75 150.562 220.75 149 222C148.34 220.02 147.68 218.04 147 216C149 215 149 215 151 215Z" fill="#BABABA"/>
<path d="M146 171C147.65 171.33 149.3 171.66 151 172C150.67 172.99 150.34 173.98 150 175C148.35 175 146.7 175 145 175C145.33 173.68 145.66 172.36 146 171Z" fill="#F3F3F3"/>
<path d="M225 103C223.35 104.32 221.7 105.64 220 107C219.67 106.34 219.34 105.68 219 105C218.01 104.67 217.02 104.34 216 104C221.625 101.875 221.625 101.875 225 103Z" fill="#313131"/>
<path d="M328 76C328 76.66 328 77.32 328 78C326.35 78.33 324.7 78.66 323 79C323 78.34 323 77.68 323 77C321.68 76.67 320.36 76.34 319 76C322.378 75.1554 324.675 74.8915 328 76Z" fill="#373737"/>
<path d="M233 58C232.67 58.33 232.34 58.66 232 59C232.99 59.66 233.98 60.32 235 61C233.02 61.33 231.04 61.66 229 62C229 61.01 229 60.02 229 59C228.34 58.67 227.68 58.34 227 58C230.75 56.875 230.75 56.875 233 58Z" fill="#313131"/>
<path d="M315 49C316.32 49.33 317.64 49.66 319 50C319.33 51.65 319.66 53.3 320 55C317.5 53.6875 317.5 53.6875 315 52C315 51.01 315 50.02 315 49Z" fill="#363636"/>
<path d="M350 267C350.33 267.66 350.66 268.32 351 269C351.66 269 352.32 269 353 269C353.33 268.34 353.66 267.68 354 267C354 268.32 354 269.64 354 271C353.01 271.495 353.01 271.495 352 272C351.34 272.99 350.68 273.98 350 275C350 272.36 350 269.72 350 267Z" fill="#2A2A2A"/>
<path d="M252 242C253.32 242 254.64 242 256 242C255.67 242.99 255.34 243.98 255 245C254.01 245 253.02 245 252 245C251.67 245.66 251.34 246.32 251 247C250.34 247 249.68 247 249 247C250.875 243.125 250.875 243.125 252 242Z" fill="#C7C7C5"/>
<path d="M242 156C242.99 156.66 243.98 157.32 245 158C244.319 158.588 244.319 158.588 243.625 159.188C241.724 161.308 240.938 163.33 240 166C239.312 164.375 239.312 164.375 239 162C240.438 158.75 240.438 158.75 242 156Z" fill="#C3C3C3"/>
</svg>
