<?xml version="1.0" encoding="UTF-8"?>
<svg version="1.1" xmlns="http://www.w3.org/2000/svg" width="536" height="466">
<path d="M0 0 C4.44759793 0.67971713 8.81658383 0.64080996 13.30859375 0.62109375 C14.19353516 0.62496094 15.07847656 0.62882812 15.99023438 0.6328125 C20.24673145 0.62642616 24.07648351 0.38238771 28.24609375 -0.50390625 C50.5527423 -2.43203447 70.18854247 4.7797558 88.02734375 17.98046875 C90.84506129 19.90524763 93.7663078 21.11563772 96.90625 22.41796875 C107.59972108 27.34517746 117.78160211 35.14956882 126.30859375 43.18359375 C130.20832866 46.78761416 133.92425144 49.05706838 138.7265625 51.2578125 C145.68053433 54.67550098 151.77377721 59.14828963 156.24609375 65.49609375 C157.2253383 68.43382741 157.37379074 70.55478259 157.49609375 73.62109375 C157.81828976 77.79325905 158.51471328 80.38181078 160.80859375 83.87109375 C164.22136284 89.35130846 164.22111754 95.2234407 163.24609375 101.49609375 C161.83984375 104.38671875 161.83984375 104.38671875 160.24609375 106.49609375 C159.58609375 106.49609375 158.92609375 106.49609375 158.24609375 106.49609375 C157.87484375 107.73359375 157.87484375 107.73359375 157.49609375 108.99609375 C154.95059247 116.12349735 152.56502318 121.10031676 146.24609375 125.49609375 C145.58609375 125.49609375 144.92609375 125.49609375 144.24609375 125.49609375 C143.97925781 126.21925781 143.71242188 126.94242187 143.4375 127.6875 C142.24842187 130.4906055 140.79891725 132.85780763 139.18359375 135.43359375 C135.98229181 141.12651142 135.71148364 145.95351988 135.5078125 152.38671875 C135.08060686 157.4621768 132.65443025 160.05506859 129.2265625 163.5625 C126.55136785 167.52516505 126.1037879 171.20897495 125.37109375 175.87109375 C123.44024376 186.72421164 120.02557194 196.16233788 114.99609375 205.99609375 C108.5646676 218.85894604 109.87077849 233.05997098 111.68359375 246.87109375 C111.81830078 247.95003906 111.95300781 249.02898437 112.09179688 250.140625 C112.79357502 255.90007424 112.79357502 255.90007424 114.24609375 261.49609375 C116.01601117 277.59272314 112.82281007 290.82346483 106.38574219 305.45117188 C103.23126497 312.63829579 102.26234479 319.43885718 101.87109375 327.24609375 C101.52408391 332.42688981 100.81166249 335.52303144 97.24609375 339.49609375 C96.54484375 340.27984375 95.84359375 341.06359375 95.12109375 341.87109375 C93.24609375 343.49609375 93.24609375 343.49609375 91.24609375 343.49609375 C91.24609375 344.15609375 91.24609375 344.81609375 91.24609375 345.49609375 C90.58609375 345.49609375 89.92609375 345.49609375 89.24609375 345.49609375 C89.24609375 346.15609375 89.24609375 346.81609375 89.24609375 347.49609375 C87.91796875 348.73046875 87.91796875 348.73046875 85.99609375 350.24609375 C81.83557536 353.76423408 78.3325937 357.67300793 74.80859375 361.80859375 C74.2765332 362.4315332 73.74447266 363.05447266 73.19628906 363.69628906 C70.44059219 366.9036485 70.44059219 366.9036485 68.24609375 370.49609375 C67.58609375 370.49609375 66.92609375 370.49609375 66.24609375 370.49609375 C66.05402344 371.05296875 65.86195313 371.60984375 65.6640625 372.18359375 C63.63572919 375.49150923 60.70018572 377.33849677 57.55859375 379.49609375 C56.95853516 379.92148437 56.35847656 380.346875 55.74023438 380.78515625 C52.76257933 382.87047428 49.76158496 384.80773368 46.5859375 386.578125 C43.63949923 388.27017318 41.11911023 390.03960333 38.49609375 392.18359375 C35.95745816 394.25622106 34.38328159 395.45036447 31.24609375 396.49609375 C30.22159136 398.67747172 30.22159136 398.67747172 29.24609375 401.49609375 C28.59209273 402.81495059 27.92438757 404.12706469 27.24609375 405.43359375 C25.58002822 408.70977485 24.30463505 411.96762274 23.24609375 415.49609375 C16.38382215 414.19256181 11.8315489 408.4821225 7.9140625 403.03125 C3.65058738 396.5511672 -0.27118043 389.83202231 -4.125 383.1015625 C-12.12478248 369.51023655 -23.7910183 361.05681521 -38.9296875 356.8984375 C-43.16202201 356.29549081 -47.3596862 356.35234169 -51.62890625 356.37109375 C-52.93794922 356.36529297 -52.93794922 356.36529297 -54.2734375 356.359375 C-59.20755045 356.36679472 -63.89003977 356.66115209 -68.75390625 357.49609375 C-69.93637421 353.94868986 -69.54548496 353.32667576 -68.12890625 349.99609375 C-67.76023438 349.09117187 -67.3915625 348.18625 -67.01171875 347.25390625 C-65.75390625 344.49609375 -65.75390625 344.49609375 -64.37109375 342.23828125 C-58.49425919 332.06296198 -58.82208038 317.85306109 -61.41455078 306.63818359 C-62.94859911 301.49178815 -64.9000077 296.52800199 -66.93359375 291.56152344 C-72.32384359 277.98964438 -73.26412642 261.9523319 -72.75390625 247.49609375 C-73.66140625 247.35171875 -74.56890625 247.20734375 -75.50390625 247.05859375 C-76.57640625 246.87296875 -77.64890625 246.68734375 -78.75390625 246.49609375 C-79.76445068 246.33258423 -79.76445068 246.33258423 -80.79541016 246.16577148 C-84.00479258 245.06837233 -84.96316918 242.86532184 -86.61621094 240.02783203 C-88.77895917 235.21502106 -89.51281365 230.108802 -90.37890625 224.93359375 C-92.24671931 214.18735846 -94.61117273 206.7541788 -101.06640625 197.93359375 C-108.50354728 187.42530916 -114.25405725 176.04129526 -114.875 162.94140625 C-115.1713465 157.03243673 -116.33617476 153.85131296 -120.28125 149.3828125 C-124.98804223 143.35262511 -125.06283626 135.17809961 -124.578125 127.83203125 C-123.23913548 118.87838414 -119.79985909 109.58799942 -115.75390625 101.49609375 C-115.34960672 98.3903383 -114.98801985 95.28649686 -114.6796875 92.16992188 C-114.04882632 86.76483162 -112.51658522 83.37249395 -108.81640625 79.43359375 C-106.75855295 76.50271178 -106.0167596 74.39160652 -105.00390625 70.99609375 C-101.6854228 60.40046353 -94.57155844 47.45681115 -84.75390625 41.49609375 C-84.09390625 41.49609375 -83.43390625 41.49609375 -82.75390625 41.49609375 C-82.75390625 40.83609375 -82.75390625 40.17609375 -82.75390625 39.49609375 C-79.12469889 36.57149314 -75.13657784 34.5232345 -70.69140625 33.18359375 C-64.70576187 31.08336765 -61.55510524 25.9127968 -57.890625 20.99609375 C-47.97242613 7.95733932 -34.89483751 2.05717302 -18.7734375 -0.23046875 C-12.55259226 -0.79380532 -6.16736916 -1.12849734 0 0 Z M-94.75390625 160.49609375 C-96.17165463 161.6846223 -96.17165463 161.6846223 -95.8515625 165.09375 C-95.84488845 166.58206242 -95.83292808 168.07035807 -95.81640625 169.55859375 C-95.81189453 170.31720703 -95.80738281 171.07582031 -95.80273438 171.85742188 C-95.79091305 173.73701246 -95.77297703 175.61656274 -95.75390625 177.49609375 C-92.19035829 172.15077182 -90.26636089 166.99669856 -90.75390625 160.49609375 C-92.07390625 160.49609375 -93.39390625 160.49609375 -94.75390625 160.49609375 Z M75.24609375 167.49609375 C75.90609375 168.81609375 76.56609375 170.13609375 77.24609375 171.49609375 C78.68192376 171.60445828 80.12011395 171.68185542 81.55859375 171.74609375 C82.75935547 171.81570312 82.75935547 171.81570312 83.984375 171.88671875 C86.83774918 171.66029434 86.83774918 171.66029434 89.24609375 167.49609375 C84.62609375 167.49609375 80.00609375 167.49609375 75.24609375 167.49609375 Z M-41.75390625 177.49609375 C-44.0699851 181.39091714 -44.0699851 181.39091714 -44.74609375 185.77734375 C-43.25072035 189.87490235 -40.42322729 192.32803923 -37.31640625 195.30859375 C-36.71763672 195.90607422 -36.11886719 196.50355469 -35.50195312 197.11914062 C-32.62180298 200.3812553 -32.62180298 200.3812553 -28.75390625 201.49609375 C-28.75390625 202.15609375 -28.75390625 202.81609375 -28.75390625 203.49609375 C-28.09390625 203.49609375 -27.43390625 203.49609375 -26.75390625 203.49609375 C-26.42390625 204.48609375 -26.09390625 205.47609375 -25.75390625 206.49609375 C-23.77390625 208.14609375 -21.79390625 209.79609375 -19.75390625 211.49609375 C-14.47390625 208.85609375 -9.19390625 206.21609375 -3.75390625 203.49609375 C-3.75390625 202.83609375 -3.75390625 202.17609375 -3.75390625 201.49609375 C-3.09390625 201.49609375 -2.43390625 201.49609375 -1.75390625 201.49609375 C-1.75390625 195.88609375 -1.75390625 190.27609375 -1.75390625 184.49609375 C-3.83638672 184.54830078 -3.83638672 184.54830078 -5.9609375 184.6015625 C-18.90646092 184.8307696 -29.53841002 184.56673268 -40.75390625 177.49609375 C-41.08390625 177.49609375 -41.41390625 177.49609375 -41.75390625 177.49609375 Z " fill="#080808" transform="translate(243.75390625,30.50390625)"/>
<path d="M0 0 C0.74121094 -0.00773438 1.48242188 -0.01546875 2.24609375 -0.0234375 C5.51658768 0.53910952 7.09027586 1.09064781 9.5625 3.375 C10.32287431 6.63341024 10.30773266 9.85274273 10.3125 13.1875 C10.34596305 14.96490267 10.38235065 16.74225304 10.421875 18.51953125 C10.43669922 19.35564941 10.45152344 20.19176758 10.46679688 21.05322266 C10.58342855 23.88273096 10.9942714 26.60259431 11.5625 29.375 C12.2225 29.375 12.8825 29.375 13.5625 29.375 C13.5625 26.735 13.5625 24.095 13.5625 21.375 C16.91845828 21.97427826 18.94051226 23.22122436 21.5625 25.375 C21.5625 23.725 21.5625 22.075 21.5625 20.375 C25.57240777 21.92722236 29.47298854 23.67877723 33.37890625 25.47265625 C40.1885911 28.28667629 48.65096365 28.54687534 55.7890625 26.84375 C57.77344639 26.0507683 57.77344639 26.0507683 60.5625 24.375 C61.20058594 24.05015625 61.83867187 23.7253125 62.49609375 23.390625 C66.57825582 21.34584324 66.57825582 21.34584324 68.5625 17.375 C67.94246094 17.66375 67.32242188 17.9525 66.68359375 18.25 C58.02924389 21.8780244 48.83664546 23.19187027 39.67578125 20.5390625 C36.4303109 19.14889324 34.06684257 17.87934257 31.5625 15.375 C34.78826508 14.29497666 36.29657439 14.44633479 39.375 15.8125 C45.86209072 18.15086991 52.7627996 18.13800268 59.5625 17.375 C61.58185916 16.4146935 63.58501874 15.41882367 65.5625 14.375 C67.79296875 14.15234375 67.79296875 14.15234375 69.75 14.3125 C73.63457482 14.73736302 73.63457482 14.73736302 76.5625 12.375 C77.8825 12.375 79.2025 12.375 80.5625 12.375 C84.10743457 20.64651399 86.12375043 30.80250339 82.74658203 39.46875 C79.84719815 45.30899679 76.15485889 50.56623973 71.90234375 55.4921875 C64.5263733 64.57977713 63.66225628 76.3725628 64.7890625 87.640625 C65.01430066 89.22372751 65.28261377 90.80063997 65.5625 92.375 C67.0475 92.87 67.0475 92.87 68.5625 93.375 C74.79147894 102.6291427 78.64148991 112.02132041 77.01855469 123.34863281 C76.03129097 127.7352971 74.1089312 131.74018516 72.14013672 135.76171875 C69.61093728 140.93679008 68.46461054 145.5575693 68.5625 151.375 C67.9025 151.045 67.2425 150.715 66.5625 150.375 C65.63218722 145.68013158 65.44362068 141.12284597 65.46484375 136.34765625 C65.46967773 134.41889648 65.46967773 134.41889648 65.47460938 132.45117188 C65.48296198 131.11328055 65.49142689 129.77538993 65.5 128.4375 C65.50502341 127.07226726 65.50958483 125.70703274 65.51367188 124.34179688 C65.52541149 121.01948543 65.54183321 117.69726592 65.5625 114.375 C64.63824219 114.55289063 63.71398437 114.73078125 62.76171875 114.9140625 C58.96168577 115.4615642 57.00125524 115.05616923 53.5625 113.375 C52.125 111.25 52.125 111.25 50.5625 108.375 C45.81388281 102.18392651 40.12793906 95.89681302 32.5625 93.375 C32.5625 94.695 32.5625 96.015 32.5625 97.375 C28.03105751 96.1104114 24.8666061 94.76605626 21.5625 91.375 C17.5625 84.06555375 17.5625 84.06555375 17.5625 80.375 C16.5725 80.375 15.5825 80.375 14.5625 80.375 C14.68625 81.633125 14.81 82.89125 14.9375 84.1875 C15.00710938 84.89519531 15.07671875 85.60289062 15.1484375 86.33203125 C15.48915391 88.67488142 15.48915391 88.67488142 17.5625 91.375 C17.9765625 93.63671875 17.9765625 93.63671875 18.1875 96.0625 C18.26226562 96.87074219 18.33703125 97.67898438 18.4140625 98.51171875 C18.48753906 99.43404297 18.48753906 99.43404297 18.5625 100.375 C17.67046875 100.42398438 16.7784375 100.47296875 15.859375 100.5234375 C14.68890625 100.59820312 13.5184375 100.67296875 12.3125 100.75 C10.57226562 100.85441406 10.57226562 100.85441406 8.796875 100.9609375 C5.77942684 101.34722917 4.20144056 102.03052923 1.5625 103.375 C-3.32952671 103.48001667 -8.02971514 102.50779912 -12.4375 100.375 C-11.23368552 97.88138429 -9.98321278 95.69356917 -8.4375 93.375 C-3.5625 94.25 -3.5625 94.25 -2.4375 95.375 C-0.11069705 96.04477494 -0.11069705 96.04477494 2.5625 95.375 C6.8138686 90.70886373 8.71395246 85.78163847 10.66796875 79.828125 C11.5625 77.375 11.5625 77.375 13.5625 74.375 C11.34301737 75.40547408 9.64976229 76.29096964 7.875 78 C4.80189432 79.82725203 2.2979145 79.82422954 -1.21875 79.96875 C-4.66929957 79.0453635 -5.5646253 77.38387671 -7.4375 74.375 C-8.04165189 71.2382514 -8.0423131 68.14470276 -8.046875 64.95703125 C-8.07201927 63.57318993 -8.07201927 63.57318993 -8.09767151 62.16139221 C-8.14706476 59.17000449 -8.16830278 56.1792216 -8.1875 53.1875 C-8.21248991 51.14077153 -8.23877848 49.0940585 -8.26635742 47.04736328 C-8.3174497 43.00799696 -8.35654541 38.9687772 -8.38623047 34.92919922 C-8.41851526 30.84573828 -8.48322171 26.7648306 -8.5821228 22.68247986 C-8.65319302 19.70524971 -8.70006224 16.72764851 -8.75 13.75 C-8.7799707 12.71077393 -8.80994141 11.67154785 -8.84082031 10.60083008 C-8.84823242 9.66779053 -8.85564453 8.73475098 -8.86328125 7.7734375 C-8.87786377 6.98630371 -8.89244629 6.19916992 -8.9074707 5.38818359 C-8.4375 3.375 -8.4375 3.375 -6.54736328 1.625 C-4.14850886 0.20378562 -2.76793667 -0.0287827 0 0 Z " fill="#F8F8F8" transform="translate(274.4375,186.625)"/>
<path d="M0 0 C0.67289062 0.43505859 1.34578125 0.87011719 2.0390625 1.31835938 C5.36184801 3.48330167 8.61247979 5.73553199 11.83203125 8.05078125 C14.85099932 10.29437819 14.85099932 10.29437819 17.6875 11.8125 C22.36163496 14.84437133 24.46924188 19.12254473 26.79296875 23.9921875 C28.74863766 27.75162871 31.09562641 31.25341372 33.4140625 34.796875 C38.75266364 43.26500094 40.51793491 53.38160382 39 63.3125 C37.1015625 66.203125 37.1015625 66.203125 35 68.3125 C34.34 68.3125 33.68 68.3125 33 68.3125 C32.505 69.7975 32.505 69.7975 32 71.3125 C31.01 71.3125 30.02 71.3125 29 71.3125 C29.2165625 70.70921875 29.433125 70.1059375 29.65625 69.484375 C29.9346875 68.68515625 30.213125 67.8859375 30.5 67.0625 C30.7784375 66.27359375 31.056875 65.4846875 31.34375 64.671875 C32.17864861 62.07837262 32.17864861 62.07837262 32 58.3125 C31.443125 59.446875 30.88625 60.58125 30.3125 61.75 C29.54358774 63.27180551 28.77266103 64.79259442 28 66.3125 C27.649375 67.02148438 27.29875 67.73046875 26.9375 68.4609375 C23.17760838 75.6935068 17.86798138 85.19028517 10 88.3125 C10.96042236 83.91056417 11.97458167 80.27018479 14.125 76.3125 C18.03421955 67.97089397 16.4122776 57.15358741 15 48.3125 C14.34 48.3125 13.68 48.3125 13 48.3125 C13.10441406 49.29476562 13.10441406 49.29476562 13.2109375 50.296875 C13.70034145 58.54682728 11.39842217 64.3777614 7 71.3125 C6.00478461 72.31726182 5.00571415 73.31824698 4 74.3125 C2.24886347 79.27405349 1.54737903 84.11239926 1 89.3125 C-5.79643381 89.3125 -9.46389168 84.77987941 -14 80.3125 C-14.86625 79.57 -15.7325 78.8275 -16.625 78.0625 C-19.36922682 72.57404636 -17.46991398 65.97534587 -16.4375 60.125 C-15.11887699 52.92538319 -15.11887699 52.92538319 -17.33984375 46.25 C-18.41442571 45.03635449 -19.52927401 43.85675253 -20.6875 42.72265625 C-22 41.3125 -22 41.3125 -22 39.3125 C-22.66 39.3125 -23.32 39.3125 -24 39.3125 C-23.95359375 40.27027344 -23.9071875 41.22804688 -23.859375 42.21484375 C-23.51556674 52.80843591 -25.17563749 62.12462096 -28 72.3125 C-28.66 72.3125 -29.32 72.3125 -30 72.3125 C-34.59273044 60.29758913 -34.44795078 48.99639865 -34 36.3125 C-39.56621392 41.58332612 -42.54249081 46.39099268 -43.4375 54.0625 C-43.1305078 59.91896656 -41.44448536 65.65430864 -40 71.3125 C-39.66666667 72.64583333 -39.33333333 73.97916667 -39 75.3125 C-46.00620665 72.45811951 -51.8157505 64.85151662 -55.05078125 58.12890625 C-55.86708891 56.13496225 -55.86708891 56.13496225 -58 55.3125 C-57.67 60.9225 -57.34 66.5325 -57 72.3125 C-60.37467255 71.18760915 -60.57939839 70.82905212 -62.2265625 67.890625 C-62.6184375 67.19453125 -63.0103125 66.4984375 -63.4140625 65.78125 C-63.81367188 65.0490625 -64.21328125 64.316875 -64.625 63.5625 C-65.03234375 62.84578125 -65.4396875 62.1290625 -65.859375 61.390625 C-70.8831406 52.34119292 -71.32228788 41.84281742 -69.5390625 31.6875 C-67.53084436 25.26120194 -64.10935269 19.25951436 -61 13.3125 C-57.875 12.75 -57.875 12.75 -54 13.3125 C-52.11446329 15.42395355 -50.76576874 17.5974933 -49.359375 20.05078125 C-48.08875237 22.16483442 -46.81546394 23.66256366 -45 25.3125 C-44.690625 23.9821875 -44.690625 23.9821875 -44.375 22.625 C-42.16105156 17.29139694 -38.52078509 15.12921792 -33.625 12.5 C-29.40918639 11.11895761 -26.40084374 11.08087665 -22 11.3125 C-21.16180842 12.93499941 -20.3295884 14.56058497 -19.5 16.1875 C-19.0359375 17.09242188 -18.571875 17.99734375 -18.09375 18.9296875 C-17 21.3125 -17 21.3125 -17 23.3125 C-16.34 23.3125 -15.68 23.3125 -15 23.3125 C-14.896875 22.136875 -14.79375 20.96125 -14.6875 19.75 C-13.76066435 12.55115328 -10.76505361 7.59269454 -6 2.3125 C-7.29550781 3.04339844 -7.29550781 3.04339844 -8.6171875 3.7890625 C-14.49425997 6.30020217 -20.85015567 5.7455407 -27.125 5.6875 C-29.01798828 5.70490234 -29.01798828 5.70490234 -30.94921875 5.72265625 C-32.16480469 5.71878906 -33.38039063 5.71492188 -34.6328125 5.7109375 C-35.73512207 5.70755371 -36.83743164 5.70416992 -37.97314453 5.70068359 C-43.19152565 5.03144452 -46.60638547 2.20887224 -50 -1.6875 C-50 -2.3475 -50 -3.0075 -50 -3.6875 C-43.55426995 -3.78106705 -37.22548269 -3.77134724 -30.8125 -3.0625 C-26.0364059 -2.60253315 -22.07955512 -2.99463294 -17.44921875 -4.21484375 C-10.00555137 -5.65134096 -6.03417851 -4.07480446 0 0 Z " fill="#F5F5F5" transform="translate(302,296.6875)"/>
<path d="M0 0 C2.03515625 1.64453125 2.03515625 1.64453125 4.0625 3.8125 C11.47877719 10.28884716 21.57348978 10.20903696 31 11 C31.05607422 12.74023438 31.05607422 12.74023438 31.11328125 14.515625 C31.43691735 22.71469947 31.93475266 30.40479022 34.28125 38.32421875 C35.14085566 41.52438112 35.55204609 44.71941052 36 48 C35.0527002 47.98952637 34.10540039 47.97905273 33.12939453 47.96826172 C29.56963603 47.93390363 26.01005719 47.90896798 22.45019531 47.89013672 C20.91794022 47.88016194 19.38570375 47.86657724 17.85351562 47.84912109 C10.14451826 47.76357739 2.73793545 47.72273585 -4.80908203 49.53222656 C-9.22735915 50.47555384 -13.76686173 50.39714208 -18.26953125 50.47851562 C-20.67655195 50.53621733 -20.67655195 50.53621733 -24 51 C-24.66 51.99 -25.32 52.98 -26 54 C-29.06975838 54.76447651 -31.91924439 54.68947639 -35 54 C-37.8399407 50.88299192 -39 49.23806659 -39 45 C-39.99 45 -40.98 45 -42 45 C-42 44.01 -42 43.02 -42 42 C-42.66 42 -43.32 42 -44 42 C-44 46.29 -44 50.58 -44 55 C-47.63 55 -51.26 55 -55 55 C-55 51.7 -55 48.4 -55 45 C-55.66 45 -56.32 45 -57 45 C-57.0928125 46.3303125 -57.0928125 46.3303125 -57.1875 47.6875 C-58.19974553 51.81434716 -59.73614114 53.3433707 -63 56 C-65.3125 56.8125 -65.3125 56.8125 -67 57 C-67 55.02 -67 53.04 -67 51 C-68.093125 50.896875 -69.18625 50.79375 -70.3125 50.6875 C-75.68965184 50.0310434 -80.81178648 48.516408 -86 47 C-86.5318082 38.13652998 -86.23696162 31.86287641 -80.28125 25.02734375 C-75.99507588 20.60495647 -72.55366057 17.9872838 -66.4375 16.6875 C-60.42623701 15.25936964 -55.39059353 12.9589671 -50 10 C-49.31421875 9.69449219 -48.6284375 9.38898438 -47.921875 9.07421875 C-45.6575373 7.80858284 -44.38349427 6.37974296 -42.75 4.375 C-42.22921875 3.74335938 -41.7084375 3.11171875 -41.171875 2.4609375 C-40.78515625 1.97882813 -40.3984375 1.49671875 -40 1 C-37.84463968 1.51389378 -35.73778652 2.08323553 -33.625 2.75390625 C-26.61696258 4.91263206 -20.30635792 5.34427865 -13 5 C-13 4.34 -13 3.68 -13 3 C-8.39772073 0.79090595 -5.22395735 -0.57592267 0 0 Z " fill="#F8F8F8" transform="translate(325,127)"/>
<path d="M0 0 C2.33163378 0.67258667 4.6652039 1.33847444 7 2 C7.71542969 2.30808594 8.43085938 2.61617188 9.16796875 2.93359375 C11.47438027 3.89029801 13.53134038 4.61089428 16 5 C19.41599311 3.68842994 19.41599311 3.68842994 21.59375 2.328125 C31.04742771 -2.88981399 42.26822474 -5.85596584 53 -4 C56.96079804 -2.38306245 60.47541062 -0.41686129 64 2 C64.0745356 0.7763932 64.0745356 0.7763932 63 -1 C77.75080548 -1.88113219 92.72405461 3.00464021 103.875 12.875 C106.57677198 15.83078473 107.49649075 17.86551148 107.625 21.875 C107.41652908 25.02400814 107.29998595 25.70001405 105 28 C102.375 28.125 102.375 28.125 100 28 C100.08701172 28.93005859 100.08701172 28.93005859 100.17578125 29.87890625 C100.62584262 38.71296792 98.07350972 45.86617605 95 54 C101.1532683 51.90768264 103.3754974 48.16778006 106.25 42.5625 C107.27640048 39.05563169 107.63030987 35.63528633 108 32 C111.68418301 35.34925728 112.8360142 37.77010649 113.5 42.75 C113.36219891 48.01597037 110.6134689 51.37818591 107 55 C102.46705905 58.26793418 98.2154232 58.28251833 92.8203125 58.61328125 C89.11364221 59.12153659 86.23873726 60.48741345 82.97265625 62.2578125 C80.57529514 63.15978995 79.37601093 62.83984279 77 62 C77.45890625 61.50371094 77.9178125 61.00742188 78.390625 60.49609375 C82.25719293 56.21525069 85.33517615 52.11646179 88 47 C87.01 47.33 86.02 47.66 85 48 C82.66700175 48.03954234 80.33291811 48.04401732 78 48 C79.95194676 46.69870216 81.91000906 45.40651583 83.875 44.125 C87.90955811 41.38150048 91.27829035 39.08256447 94 35 C94 33.35 94 31.7 94 30 C88.39 29.67 82.78 29.34 77 29 C77 25.7 77 22.4 77 19 C75.02 19 73.04 19 71 19 C70.74863281 19.73992187 70.49726563 20.47984375 70.23828125 21.2421875 C67.60523576 27.10632035 61.78924057 32.2756515 56 35 C55.34 35 54.68 35 54 35 C55.52012833 31.54516288 57.62614635 28.68504536 59.87890625 25.68359375 C61.87403108 22.68743068 62.15833553 19.99973655 62.1875 16.5 C62.20167969 15.7265625 62.21585938 14.953125 62.23046875 14.15625 C62.13661528 11.70319944 62.13661528 11.70319944 60 9 C57.12240932 8.19663887 57.12240932 8.19663887 53.875 7.8125 C52.77929688 7.65394531 51.68359375 7.49539062 50.5546875 7.33203125 C49.71164062 7.22246094 48.86859375 7.11289063 48 7 C49.175625 8.11375 49.175625 8.11375 50.375 9.25 C53.77590714 12.81285509 54.83183985 14.48655866 55.375 19.375 C54.82916922 24.65136422 52.09760824 28.64741144 48 32 C47.34 32 46.68 32 46 32 C46.309375 31.21625 46.61875 30.4325 46.9375 29.625 C48.26335807 25.10148422 48.64811085 20.68568186 49 16 C48.0409375 17.0209375 48.0409375 17.0209375 47.0625 18.0625 C44.74903451 20.3825007 42.28719274 22.38250193 39.6875 24.375 C33.12593845 29.41646646 27.44934138 33.9837309 23 41 C22.34 41 21.68 41 21 41 C21.37833277 27.36110376 23.65032296 22.17183445 32.87890625 12.4296875 C34.93627382 10.07299758 36.48111513 7.72719903 38 5 C34.75491389 6.00443142 31.79397412 7.10301294 28.75 8.625 C26 10 26 10 24 10 C23.731875 10.5775 23.46375 11.155 23.1875 11.75 C21.98280141 14.0325868 20.59201885 15.9737942 19 18 C14.32894208 16.44298069 10.91294315 13.91552627 7 11 C8.07097507 13.22433284 9.08981746 15.11399909 10.625 17.0625 C13.19188985 22.54631013 12.67946041 29.2437849 11 35 C10.34 35 9.68 35 9 35 C8.90203125 34.27554688 8.8040625 33.55109375 8.703125 32.8046875 C7.50321184 24.67356682 7.50321184 24.67356682 3 18 C-0.53231677 15.97014435 -4.20791118 14.475739 -8 13 C-9.78664063 12.29617187 -9.78664063 12.29617187 -11.609375 11.578125 C-14.7321728 10.36446123 -17.86157328 9.17254416 -21 8 C-20.34 7.34 -19.68 6.68 -19 6 C-29.34389358 5.29871908 -38.50552059 7.5527254 -46.625 14.1875 C-48.4241735 15.78324273 -50.21566607 17.387681 -52 19 C-54.01288103 20.65554966 -56.03355373 22.30167856 -58.0625 23.9375 C-60.47400514 25.89922656 -62.80240224 27.80240224 -65 30 C-68.625 30.125 -68.625 30.125 -72 30 C-70.50179841 26.18639594 -68.19998733 24.46073339 -65 22 C-66.72665938 22.32133859 -68.45327545 22.64291142 -70.1796875 22.96557617 C-71.65593067 23.24089421 -73.13250057 23.51446552 -74.609375 23.78637695 C-78.43483696 24.49568136 -82.21520442 25.28357116 -86 26.1875 C-97.29132871 28.43055857 -112.15803442 28.56131038 -122 22 C-123.65549531 21.61500109 -125.3222433 21.27206865 -127 21 C-127 21.66 -127 22.32 -127 23 C-130.46153846 26 -130.46153846 26 -133 26 C-133 26.66 -133 27.32 -133 28 C-133.66 28 -134.32 28 -135 28 C-135.33 28.99 -135.66 29.98 -136 31 C-138.5625 32.1875 -138.5625 32.1875 -141 33 C-141 33.66 -141 34.32 -141 35 C-147.5 39 -147.5 39 -152 39 C-151.98046875 35.7578125 -151.98046875 35.7578125 -151 32 C-148.69352844 30.06417076 -146.08040224 29.01746452 -143.3125 27.875 C-137.76314862 25.46136037 -133.57948735 22.96843131 -129 19 C-128.34 19 -127.68 19 -127 19 C-127 18.34 -127 17.68 -127 17 C-121.57280022 14.22866394 -117.10246958 13.31903773 -111 14 C-110.67 14.33 -110.34 14.66 -110 15 C-108.65252916 15.23075082 -107.29622435 15.41153063 -105.9375 15.5625 C-104.638125 15.706875 -103.33875 15.85125 -102 16 C-104.77049108 19.80942523 -108.64589189 19.99047897 -113 21 C-99.55209194 21.44937317 -86.19438942 21.37393415 -74 15 C-73.34 15 -72.68 15 -72 15 C-71.505 13.515 -71.505 13.515 -71 12 C-68.48828125 9.84375 -68.48828125 9.84375 -65.3125 7.5 C-64.27738281 6.7265625 -63.24226563 5.953125 -62.17578125 5.15625 C-56.43928983 1.26136284 -50.5671634 -0.9810793 -44 -3 C-42.824375 -3.391875 -41.64875 -3.78375 -40.4375 -4.1875 C-27.51862104 -7.21215817 -12.08474336 -5.07849421 0 0 Z " fill="#F2F2F2" transform="translate(289,81)"/>
<path d="M0 0 C3.26699548 0.01866855 4.84687296 0.15349936 7.453125 2.171875 C9.23330094 4.23068717 10.81223986 6.33498368 12.375 8.5625 C13.01308594 9.30371094 13.65117187 10.04492188 14.30859375 10.80859375 C16.45208755 13.66523483 17.91827512 16.49260911 19.46948242 19.69262695 C23.25886568 27.47537858 26.68801814 33.11367748 34.375 37.5625 C42.91001058 42.68350635 49.14538607 51.13318076 52.375 60.5625 C53.11927882 65.88099238 52.94710013 70.73981226 50.375 75.5625 C50.045 75.5625 49.715 75.5625 49.375 75.5625 C49.045 71.9325 48.715 68.3025 48.375 64.5625 C47.715 66.5425 47.055 68.5225 46.375 70.5625 C46.045 70.5625 45.715 70.5625 45.375 70.5625 C45.375 68.5825 45.375 66.6025 45.375 64.5625 C44.075625 64.871875 44.075625 64.871875 42.75 65.1875 C38.88860549 65.61654383 36.85596843 65.26430679 33.375 63.5625 C31.9375 61.4375 31.9375 61.4375 30.375 58.5625 C25.62638281 52.37142651 19.94043906 46.08431302 12.375 43.5625 C12.375 44.8825 12.375 46.2025 12.375 47.5625 C7.84355751 46.2979114 4.6791061 44.95355626 1.375 41.5625 C-2.625 34.25305375 -2.625 34.25305375 -2.625 30.5625 C-3.615 30.5625 -4.605 30.5625 -5.625 30.5625 C-5.50125 31.820625 -5.3775 33.07875 -5.25 34.375 C-5.18039062 35.08269531 -5.11078125 35.79039062 -5.0390625 36.51953125 C-4.69834609 38.86238142 -4.69834609 38.86238142 -2.625 41.5625 C-2.2109375 43.82421875 -2.2109375 43.82421875 -2 46.25 C-1.92523438 47.05824219 -1.85046875 47.86648438 -1.7734375 48.69921875 C-1.69996094 49.62154297 -1.69996094 49.62154297 -1.625 50.5625 C-2.51703125 50.61148438 -3.4090625 50.66046875 -4.328125 50.7109375 C-5.49859375 50.78570312 -6.6690625 50.86046875 -7.875 50.9375 C-9.61523438 51.04191406 -9.61523438 51.04191406 -11.390625 51.1484375 C-14.40807316 51.53472917 -15.98605944 52.21802923 -18.625 53.5625 C-23.51702671 53.66751667 -28.21721514 52.69529912 -32.625 50.5625 C-31.42118552 48.06888429 -30.17071278 45.88106917 -28.625 43.5625 C-23.75 44.4375 -23.75 44.4375 -22.625 45.5625 C-20.29819705 46.23227494 -20.29819705 46.23227494 -17.625 45.5625 C-12.05663129 39.4508758 -10.02958989 31.85430243 -7.5 24.125 C-4.54511229 20.08665346 -0.2783927 19.04669655 4.375 17.5625 C4.87923019 12.26808305 3.56423033 9.74836481 0.375 5.5625 C-1.86571094 6.56695663 -3.50254985 7.44004985 -5.25 9.1875 C-5.930625 9.868125 -5.930625 9.868125 -6.625 10.5625 C-7.285 10.5625 -7.945 10.5625 -8.625 10.5625 C-8.14949439 9.08215236 -7.66948784 7.60324979 -7.1875 6.125 C-6.92066406 5.30128906 -6.65382813 4.47757813 -6.37890625 3.62890625 C-5.07607005 0.05791997 -3.6508521 0.25919947 0 0 Z " fill="#151515" transform="translate(294.625,236.4375)"/>
<path d="M0 0 C0.80099121 0.00676758 1.60198242 0.01353516 2.42724609 0.02050781 C7.87687068 0.11597893 13.01994911 0.37581488 18.1875 2.25 C18.83332031 2.48332031 19.47914063 2.71664062 20.14453125 2.95703125 C26.38730058 5.65361209 31.83146737 10.06505242 36.1875 15.25 C37.26077294 18.21497776 37.30385784 20.05015949 37.1875 23.25 C36.61 22.569375 36.0325 21.88875 35.4375 21.1875 C34.695 20.548125 33.9525 19.90875 33.1875 19.25 C31.15056593 19.29769417 31.15056593 19.29769417 29.1875 20.25 C27.76638062 21.89640486 27.76638062 21.89640486 26.5625 23.9375 C22.93080852 28.96717463 18.96389664 31.95110079 13.1875 34.25 C7.79929922 35.07892675 2.50373412 35.13749709 -2.9375 35.125 C-4.38545261 35.14316428 -5.83337451 35.16397856 -7.28125 35.1875 C-10.79184021 35.23885247 -14.30148453 35.25446613 -17.8125 35.25 C-14.21839158 32.36749481 -11.43131712 31.49514661 -6.875 30.625 C-6.22200928 30.50020264 -5.56901855 30.37540527 -4.89624023 30.24682617 C1.42654611 29.09590951 7.77082218 28.56380043 14.1875 28.25 C14.61675781 27.11498047 14.61675781 27.11498047 15.0546875 25.95703125 C16.39495881 22.75424498 18.20525735 20.09121447 20.1875 17.25 C17.23701052 16.80742658 15.04894457 16.64515594 12.53515625 18.41015625 C11.94605469 18.91417969 11.35695313 19.41820313 10.75 19.9375 C-0.03985557 28.31855017 -11.70423009 28.72302708 -24.8125 28.75 C-25.84106613 28.75673737 -25.84106613 28.75673737 -26.89041138 28.76361084 C-40.61869919 28.80010534 -40.61869919 28.80010534 -46.8125 25.25 C-46.125 23.3125 -46.125 23.3125 -44.8125 21.25 C-40.41725685 19.65172976 -35.43833842 20.15929729 -30.8125 20.25 C-30.8125 19.59 -30.8125 18.93 -30.8125 18.25 C-30.08248779 18.2406543 -29.35247559 18.23130859 -28.6003418 18.22167969 C-25.23292357 18.16737937 -21.866807 18.08385118 -18.5 18 C-17.35208984 17.98582031 -16.20417969 17.97164062 -15.02148438 17.95703125 C-8.10449029 17.76108241 -2.56891983 16.76651959 3.84057617 14.15869141 C6.64091633 13.07444444 9.19403917 12.69168209 12.1875 12.5625 C15.19606272 12.40944812 17.30305741 12.21148086 20.1875 11.25 C16.67554359 10.07934786 13.7749991 10.05553892 10.0703125 9.96875 C9.02905716 9.94113586 9.02905716 9.94113586 7.96676636 9.91296387 C5.74876251 9.85429953 3.53068166 9.80147374 1.3125 9.75 C-1.60171423 9.68205035 -4.51570178 9.60831659 -7.4296875 9.53125 C-8.72503418 9.50095703 -10.02038086 9.47066406 -11.35498047 9.43945312 C-14.29406424 9.27840744 -16.95550307 8.92609891 -19.8125 8.25 C-19.4825 7.26 -19.1525 6.27 -18.8125 5.25 C-16.75 4.5625 -16.75 4.5625 -14.8125 4.25 C-14.8125 3.59 -14.8125 2.93 -14.8125 2.25 C-9.7409909 0.21169012 -5.37376852 -0.06500075 0 0 Z " fill="#F0F0F0" transform="translate(254.8125,99.75)"/>
<path d="M0 0 C1.03930664 0.01353516 1.03930664 0.01353516 2.09960938 0.02734375 C3.79572395 0.05073843 5.49165871 0.08660359 7.1875 0.125 C7.1875 0.785 7.1875 1.445 7.1875 2.125 C5.59421875 2.57939453 5.59421875 2.57939453 3.96875 3.04296875 C-3.64081307 5.27710914 -10.32780187 7.39657428 -16.8125 12.125 C-15.20181641 11.88330078 -15.20181641 11.88330078 -13.55859375 11.63671875 C-8.00242245 10.94601759 -2.46721017 10.94097558 3.125 10.9375 C4.15818359 10.92525391 5.19136719 10.91300781 6.25585938 10.90039062 C14.72573774 10.88429839 22.09637775 12.18776893 30.0625 15.0625 C30.96742188 15.38089844 31.87234375 15.69929688 32.8046875 16.02734375 C35.16855859 17.11627453 36.50423653 18.16862425 38.1875 20.125 C29.25868796 20.4483775 29.25868796 20.4483775 24.875 19.125 C17.4965989 17.12407767 9.96491145 16.79719502 3.0625 20.375 C2.26457031 20.83519531 1.46664062 21.29539062 0.64453125 21.76953125 C-1.93772311 23.19408175 -4.45647091 24.12605531 -7.25 25.0625 C-14.97298938 27.77480516 -21.8559487 31.7145152 -28.5625 36.375 C-32.28725716 38.93159855 -35.41324956 40.1571649 -39.8125 41.125 C-41.2975 41.62 -41.2975 41.62 -42.8125 42.125 C-42.32253543 37.87864041 -39.74901564 35.03108785 -36.8125 32.125 C-34.52886924 30.48598864 -32.13280852 29.20016614 -29.625 27.9375 C-28.96443604 27.59436768 -28.30387207 27.25123535 -27.62329102 26.89770508 C-23.16005078 24.63974114 -18.74484394 22.95273313 -13.890625 21.70703125 C-11.00206172 20.89801635 -8.47523437 19.48732921 -5.8125 18.125 C-2.9375 17.4375 -2.9375 17.4375 -0.8125 17.125 C-10.18068359 16.65659082 -18.31413721 19.01038544 -27.1875 21.8125 C-30.83674722 22.94258946 -33.95969939 23.42916847 -37.8125 23.125 C-37.38965888 18.3328006 -35.30157921 15.27874437 -31.8125 12.125 C-25.89793272 7.9651909 -19.49048818 4.85070946 -12.8125 2.125 C-12.06226563 1.76148438 -11.31203125 1.39796875 -10.5390625 1.0234375 C-7.00323192 -0.14166427 -3.67477209 -0.09142974 0 0 Z " fill="#EDEDED" transform="translate(232.8125,34.875)"/>
<path d="M0 0 C5.6999613 2.98886859 10.94238105 6.44992302 16.06274414 10.34692383 C18.04703228 11.70586055 20.0534987 13.02505183 22.06274414 14.34692383 C21.16785517 9.26133528 18.14022374 7.22098063 14.06274414 4.34692383 C11.18453852 2.69664833 8.27981296 1.14358541 5.32055664 -0.35620117 C3.06274414 -1.65307617 3.06274414 -1.65307617 2.06274414 -3.65307617 C5.75742427 -3.06140142 8.63362824 -2.01986251 11.93774414 -0.27807617 C14.86763849 1.24546889 17.66492396 2.58167189 20.75024414 3.78442383 C28.07731527 7.24058945 31.57847495 11.31954979 34.43383789 18.88208008 C35.06274414 21.34692383 35.06274414 21.34692383 35.06274414 26.34692383 C26.81274414 26.34692383 18.56274414 26.34692383 10.06274414 26.34692383 C10.39274414 25.68692383 10.72274414 25.02692383 11.06274414 24.34692383 C14.69274414 24.34692383 18.32274414 24.34692383 22.06274414 24.34692383 C22.06274414 23.68692383 22.06274414 23.02692383 22.06274414 22.34692383 C21.27899414 22.03754883 20.49524414 21.72817383 19.68774414 21.40942383 C17.06274414 20.34692383 17.06274414 20.34692383 15.06274414 19.34692383 C13.106369 19.24996063 11.14651483 19.21713466 9.18774414 19.22192383 C8.13844727 19.2193457 7.08915039 19.21676758 6.00805664 19.21411133 C2.44206752 19.36248999 2.44206752 19.36248999 -0.93725586 20.34692383 C-1.26725586 21.33692383 -1.59725586 22.32692383 -1.93725586 23.34692383 C-6.11682036 26.13330016 -8.08394263 25.14254895 -12.93725586 24.34692383 C-13.73696293 17.72077956 -13.73696293 17.72077956 -11.87084961 14.51489258 C-7.01487835 9.51287707 -1.4358031 9.56377098 5.24633789 9.35473633 C6.64045898 9.35086914 6.64045898 9.35086914 8.06274414 9.34692383 C3.31980667 6.74960093 -0.45666027 6.14220989 -5.87475586 5.90942383 C-11.05021189 5.6416336 -14.55858123 5.03769959 -18.98413086 2.40161133 C-22.70976654 0.38976806 -26.86719213 -0.5521573 -30.93725586 -1.65307617 C-20.98568882 -8.2874542 -9.80709384 -4.88986362 0 0 Z " fill="#EAEAEA" transform="translate(296.937255859375,39.653076171875)"/>
<path d="M0 0 C0 0.66 0 1.32 0 2 C0.99 2.33 1.98 2.66 3 3 C5.52977574 5.3351776 7.75632491 7.67544774 9.82421875 10.4296875 C12.13162552 13.15549298 14.42228563 14.88171103 17.375 16.875 C22.77542781 20.69428651 27.8381162 24.5143486 30 31 C30.06802967 32.72795352 30.08495645 34.45835365 30.0625 36.1875 C30.05347656 37.08855469 30.04445313 37.98960937 30.03515625 38.91796875 C30.02355469 39.60503906 30.01195312 40.29210937 30 41 C25.71747249 42.25956691 23.03211242 41.92840159 19 40 C17.5625 37.875 17.5625 37.875 16 35 C11.25138281 28.80892651 5.56543906 22.52181302 -2 20 C-2 21.32 -2 22.64 -2 24 C-7.2758272 22.52767613 -11.32619665 20.89826352 -14.1640625 15.984375 C-16.36260677 11.33421663 -17.56463792 7.11550444 -18 2 C-16.906875 1.87625 -15.81375 1.7525 -14.6875 1.625 C-2.5925 -0.425 -2.5925 -0.425 0 0 Z " fill="#F2F2F2" transform="translate(309,260)"/>
<path d="M0 0 C0.70519775 0.35610352 1.41039551 0.71220703 2.13696289 1.07910156 C7.0732986 3.62666898 11.54781203 6.54177451 16.015625 9.84765625 C19.52293404 12.24513498 23.34861519 13.73800489 27.25 15.375 C29.89239158 16.54003194 31.85581334 17.67911778 34.25 19.375 C34.394375 20.32375 34.53875 21.2725 34.6875 22.25 C35.37564569 26.07303163 36.24412111 26.43330079 39.3125 28.625 C40.04597656 29.10453125 40.77945313 29.5840625 41.53515625 30.078125 C42.10105469 30.50609375 42.66695313 30.9340625 43.25 31.375 C43.25 32.035 43.25 32.695 43.25 33.375 C44.9 34.035 46.55 34.695 48.25 35.375 C45.34905209 36.82547396 43.69027404 35.82856803 40.625 34.9375 C39.12066406 34.50630859 39.12066406 34.50630859 37.5859375 34.06640625 C36.81507813 33.83824219 36.04421875 33.61007813 35.25 33.375 C35.58 34.365 35.91 35.355 36.25 36.375 C30.31 36.87 30.31 36.87 24.25 37.375 C24.25 37.705 24.25 38.035 24.25 38.375 C23.44175781 38.43558594 22.63351562 38.49617188 21.80078125 38.55859375 C20.73214844 38.64238281 19.66351563 38.72617188 18.5625 38.8125 C17.50675781 38.89371094 16.45101562 38.97492188 15.36328125 39.05859375 C12.59913703 39.33951681 9.96054259 39.77656852 7.25 40.375 C7.25 39.715 7.25 39.055 7.25 38.375 C5.39375 38.87 5.39375 38.87 3.5 39.375 C0.50408155 40.17391159 -1.55107719 40.375 -4.75 40.375 C-3.3403575 35.44125125 -1.06607652 33.10094306 3.25 30.375 C8.695 29.88 8.695 29.88 14.25 29.375 C5.34 29.045 -3.57 28.715 -12.75 28.375 C-12.42 27.715 -12.09 27.055 -11.75 26.375 C2.11 26.87 2.11 26.87 16.25 27.375 C12.99463172 14.9450585 12.99463172 14.9450585 5.0625 6.75 C1.67076708 5.09181946 -1.79584235 3.71947398 -5.31640625 2.359375 C-7.75 1.375 -7.75 1.375 -11.125 -0.375 C-13.86733604 -1.91162239 -13.86733604 -1.91162239 -17.75 -1.625 C-17.75 -2.285 -17.75 -2.945 -17.75 -3.625 C-11.28840058 -5.86170749 -5.68694608 -2.91931259 0 0 Z " fill="#191919" transform="translate(315.75,38.625)"/>
<path d="M0 0 C8.18997194 2.92604024 14.80910788 8.78919009 21.0625 14.6875 C24.96223491 18.29152041 28.67815769 20.56097463 33.48046875 22.76171875 C40.43444058 26.17940723 46.52768346 30.65219588 51 37 C51.98341205 39.95023614 52.16178164 42.16673295 52.3125 45.25 C52.72800297 50.56702957 54.16582309 53.55978951 57 58 C56.505 58.99 56.505 58.99 56 60 C53.9375 60.625 53.9375 60.625 52 61 C51.01 59.02 50.02 57.04 49 55 C48.89042969 55.58007812 48.78085937 56.16015625 48.66796875 56.7578125 C47.10424332 64.46202071 44.52822282 70.33694248 39 76 C37.68 76 36.36 76 35 76 C35.40515417 72.11051998 35.97319764 68.85474313 37.5 65.25 C39.49225024 60.31310672 39.71898485 55.27145667 40 50 C41.98 49.34 43.96 48.68 46 48 C46.54687456 44.17187806 46.86254084 40.62360628 45.00390625 37.125 C37.66084509 28.8855132 23.89401636 22.79023953 13 22 C9.97769114 21.88218886 7.02683152 21.90236027 4 22 C4.99 23.32 5.98 24.64 7 26 C3.25912846 24.58010715 -0.23068194 22.90233408 -3.75 21 C-4.71421875 20.484375 -5.6784375 19.96875 -6.671875 19.4375 C-9 18 -9 18 -10 16 C-4.06 15.505 -4.06 15.505 2 15 C2 14.34 2 13.68 2 13 C3.093125 13.165 4.18625 13.33 5.3125 13.5 C8.87525873 14.06718184 8.87525873 14.06718184 12 14 C11.21753906 13.40832031 10.43507813 12.81664063 9.62890625 12.20703125 C8.61699219 11.41683594 7.60507812 10.62664062 6.5625 9.8125 C5.55316406 9.03519531 4.54382813 8.25789063 3.50390625 7.45703125 C0.84719705 4.85005763 0.25243272 3.64409288 0 0 Z " fill="#131313" transform="translate(349,59)"/>
<path d="M0 0 C-5.0279273 7.16098736 -11.67865921 10.66240899 -19.11669922 14.91113281 C-21.86855045 16.50216943 -24.56214964 18.17854052 -27.25 19.875 C-28.52617187 20.67550781 -28.52617187 20.67550781 -29.828125 21.4921875 C-32.01656242 22.91255463 -32.01656242 22.91255463 -33.671875 24.6953125 C-35 26 -35 26 -37 26 C-37.25652344 26.51433594 -37.51304687 27.02867187 -37.77734375 27.55859375 C-38.74472917 29.4902739 -39.71716547 31.4194245 -40.69140625 33.34765625 C-41.31515062 34.5859141 -41.93884738 35.82419594 -42.5625 37.0625 C-42.87896484 37.68705078 -43.19542969 38.31160156 -43.52148438 38.95507812 C-44.85837373 41.6146648 -46.05711769 44.17135307 -47 47 C-47.99 46.67 -48.98 46.34 -50 46 C-53.48457248 39.03085504 -54.47781777 31.69690266 -52.10571289 24.15771484 C-50.90309069 21.33223247 -49.58707717 18.60797127 -48.1875 15.875 C-47.73568359 14.93140625 -47.28386719 13.9878125 -46.81835938 13.015625 C-44.3284608 7.97039986 -44.3284608 7.97039986 -43 6 C-42.01 5.67 -41.02 5.34 -40 5 C-39.5875 5.433125 -39.175 5.86625 -38.75 6.3125 C-36.8904347 8.10565225 -35.21428835 9.65800706 -33 11 C-29.78889634 10.50605002 -27.08860523 9.17700809 -24.19140625 7.75 C-23.27939453 7.3065625 -22.36738281 6.863125 -21.42773438 6.40625 C-19.52072546 5.4702947 -17.61447169 4.53279919 -15.70898438 3.59375 C-14.3390332 2.92859375 -14.3390332 2.92859375 -12.94140625 2.25 C-11.69919312 1.63898438 -11.69919312 1.63898438 -10.43188477 1.015625 C-6.54454754 -0.60783879 -4.0503105 -1.3501035 0 0 Z " fill="#F0F0F0" transform="translate(312,392)"/>
<path d="M0 0 C7.91664276 2.32842434 14.54011261 11.45174742 18.5 18.34765625 C19.21771605 19.66499979 19.9298846 20.98537955 20.63671875 22.30859375 C21.00861328 22.97632813 21.38050781 23.6440625 21.76367188 24.33203125 C22.69924388 26.07425099 23.52048974 27.87676108 24.32421875 29.68359375 C23.82921875 31.16859375 23.82921875 31.16859375 23.32421875 32.68359375 C19.12638857 27.48840676 15.83096447 22.16020957 12.81640625 16.19921875 C11.26792075 13.58868299 9.47237448 11.80409082 7.32421875 9.68359375 C7.32421875 9.02359375 7.32421875 8.36359375 7.32421875 7.68359375 C4.29998014 7.03092687 1.42382589 6.54464584 -1.67578125 6.68359375 C-5.42903735 10.15535564 -6.86333731 13.2945668 -7.11328125 18.30859375 C-7.08432614 23.75215395 -5.73760121 28.2641277 -3.86328125 33.30859375 C-3.60281006 34.01967285 -3.34233887 34.73075195 -3.07397461 35.46337891 C-2.22266144 37.70723423 -2.22266144 37.70723423 -0.67578125 40.68359375 C0.31421875 41.01359375 1.30421875 41.34359375 2.32421875 41.68359375 C3.71875 43.90625 3.71875 43.90625 5.13671875 46.74609375 C8.91392606 53.95457602 14.19141187 63.97265812 22.32421875 66.68359375 C22.0156969 64.72462975 21.70227695 62.76643662 21.38671875 60.80859375 C21.21269531 59.71804687 21.03867188 58.6275 20.859375 57.50390625 C20.46870716 54.74537829 20.46870716 54.74537829 19.32421875 52.68359375 C19.20214004 50.89499864 19.14873427 49.10130994 19.13671875 47.30859375 C19.12253906 46.35210937 19.10835937 45.395625 19.09375 44.41015625 C19.32676303 41.65349358 19.91501711 40.0341198 21.32421875 37.68359375 C22.95196981 40.56796862 23.55130867 42.70225002 23.69921875 45.99609375 C24.05949187 50.59127538 25.11271906 54.83389257 26.38671875 59.24609375 C28.00391768 64.8914078 28.73648161 69.80884803 28.32421875 75.68359375 C25.47097438 77.11021594 23.48967326 76.99393243 20.32421875 76.68359375 C16.05347565 73.85706329 13.5567767 70.36972512 10.94921875 66.05859375 C10.16322434 64.79447315 9.37545208 63.5314563 8.5859375 62.26953125 C8.20228027 61.65432617 7.81862305 61.03912109 7.42333984 60.40527344 C5.95318595 58.10240243 4.3664442 55.8942224 2.76171875 53.68359375 C-6.84008863 40.07543783 -13.23134086 27.77400865 -11.67578125 10.68359375 C-10.84121566 7.27720357 -9.31723207 4.73017141 -7.48828125 1.74609375 C-5.05111741 0.3174115 -2.81042021 -0.08831265 0 0 Z " fill="#E5E5E5" transform="translate(146.67578125,169.31640625)"/>
<path d="M0 0 C2.3316712 0.6724569 4.66477651 1.33998474 7 2 C8.96043796 2.66941784 10.87969998 3.40130136 12.80859375 4.15625 C14.41295981 4.77397383 16.03282063 5.35185666 17.66015625 5.90625 C18.55605469 6.2259375 19.45195312 6.545625 20.375 6.875 C21.20773437 7.16117188 22.04046875 7.44734375 22.8984375 7.7421875 C25.64333892 9.38504672 26.09887124 10.9995383 27 14 C25.94026978 13.78718384 25.94026978 13.78718384 24.85913086 13.57006836 C21.99221415 12.99844762 19.12330537 12.43792286 16.25390625 11.87890625 C14.02341289 11.4402293 11.79294498 11.00142291 9.5625 10.5625 C7.88317383 10.23668945 7.88317383 10.23668945 6.16992188 9.90429688 C5.08388672 9.68966797 3.99785156 9.47503906 2.87890625 9.25390625 C1.8947876 9.06127197 0.91066895 8.8686377 -0.10327148 8.67016602 C-8.20394737 6.79605263 -8.20394737 6.79605263 -11 4 C-13.66840261 3.79703425 -16.20769792 3.71691763 -18.875 3.75 C-20.02258789 3.75906372 -20.02258789 3.75906372 -21.19335938 3.76831055 C-35.47230951 4.01517002 -47.05338837 7.70112809 -59.50488281 14.39501953 C-61.30027196 15.33614394 -63.14795536 16.17594418 -65 17 C-65.99 16.67 -66.98 16.34 -68 16 C-63.16163124 8.94404556 -57.50641775 1.55192532 -49 -1 C-47.62261006 -1.51447964 -46.24778285 -2.03585058 -44.875 -2.5625 C-29.99401205 -8.15010832 -14.56537304 -5.12427836 0 0 Z " fill="#EFEFEF" transform="translate(273,65)"/>
<path d="M0 0 C-0.37304833 12.07320059 -0.37304833 12.07320059 -4.2890625 16.7109375 C-10.91471119 22 -10.91471119 22 -14 22 C-14 22.66 -14 23.32 -14 24 C-15.57421875 25.55078125 -15.57421875 25.55078125 -17.6875 27.3125 C-20.19560855 29.42389542 -22.40570578 31.44434443 -24.625 33.875 C-27.43124961 36.38585492 -29.29517494 36.74152383 -33 37 C-33.62600177 28.65330972 -33.15060548 23.62220705 -28 17 C-27.51080078 16.12794922 -27.51080078 16.12794922 -27.01171875 15.23828125 C-22.02377078 6.66825482 -9.72747395 0 0 0 Z " fill="#F0F0F0" transform="translate(247,266)"/>
<path d="M0 0 C0.25652344 0.60585937 0.51304687 1.21171875 0.77734375 1.8359375 C4.84182897 10.73127552 10.56825061 19.3608879 20 23 C23.81713811 23.43420383 23.81713811 23.43420383 27.75 23.3125 C29.72226563 23.30669922 29.72226563 23.30669922 31.734375 23.30078125 C35.08293101 23.34325076 35.08293101 23.34325076 37 21 C37.76570313 20.69964844 38.53140625 20.39929688 39.3203125 20.08984375 C42.21725568 18.91164091 44.36873461 17.42418276 46.875 15.5625 C52.26086426 11.72117036 57.09734106 8.37248555 64 9 C61.05400648 11.39361974 58.06066819 13.69416934 55 15.9375 C52.57158762 17.73951816 50.56390425 19.44673223 48.4375 21.625 C42.34959664 27.55680327 36.36730112 29.28523927 28.02978516 29.32128906 C20.53854557 29.18920621 14.60543984 27.08314302 8.1875 23.375 C3.57531746 18.36748753 0.39374928 12.34173388 -2 6 C-7.15906273 6.93493932 -9.83907157 9.9788621 -13 14 C-16.16193398 19.4523554 -18.71135831 25.13334102 -21 31 C-21.33 31 -21.66 31 -22 31 C-22.3626693 21.16763229 -21.56837634 12.77921339 -15 5 C-10.20308097 0.83796732 -6.29762397 -0.6560025 0 0 Z " fill="#E6E6E6" transform="translate(151,138)"/>
<path d="M0 0 C2.74943389 1.08311032 5.4738644 2.20441209 8.1875 3.375 C8.78820312 3.62636719 9.38890625 3.87773437 10.0078125 4.13671875 C11.41568764 4.74679798 12.80533533 5.39978116 14.1796875 6.08203125 C21.37224078 9.41890433 28.14587857 10.04894999 36 9 C38.00789136 8.2384769 39.98883203 7.40235153 41.9375 6.5 C51.37782701 2.32130164 61.88835136 3.57884329 72 4 C67.7070253 8.2929747 60.69244579 9.08396653 54.9375 10.375 C51.16737219 11.28191991 48.25382068 12.2358927 45.0625 14.4375 C37.3616517 19.7318332 28.20417452 21.62401183 19 21 C19 20.34 19 19.68 19 19 C20.32 19 21.64 19 23 19 C23 18.34 23 17.68 23 17 C21.865625 17.12375 20.73125 17.2475 19.5625 17.375 C13.9180011 17.38502575 10.21440157 14.49953266 6 11 C2.68720729 7.60226389 1.27161688 4.55662716 0 0 Z " fill="#EFEFEF" transform="translate(157,134)"/>
<path d="M0 0 C0.66 0 1.32 0 2 0 C5.37598524 9.84662361 7.35127182 20.91162428 2.91796875 30.71484375 C1.64833457 33.87542245 0.86762552 37.13569604 0.0625 40.4375 C-0.10314453 41.11409668 -0.26878906 41.79069336 -0.43945312 42.48779297 C-0.96554325 44.65715885 -1.48407251 46.82819546 -2 49 C-2.18771973 49.78906738 -2.37543945 50.57813477 -2.56884766 51.39111328 C-3.72410222 56.25807631 -4.8664041 61.12794955 -6 66 C-10.64814171 59.02778744 -8.76735169 46.60013424 -7.43457031 38.61035156 C-6.25080648 32.79603018 -4.86661729 27.03542161 -3.46875 21.26953125 C-1.7643038 14.21961106 -0.70101256 7.21559477 0 0 Z " fill="#E5E5E5" transform="translate(186,241)"/>
<path d="M0 0 C-5.97203554 7.3401746 -13.94334598 12.21693146 -23.4140625 13.44140625 C-26.66256537 13.49846426 -29.77060807 13.34435649 -33 13 C-34.25490234 12.87238281 -34.25490234 12.87238281 -35.53515625 12.7421875 C-41.40907592 11.79510611 -45.67734261 9.0399768 -50 5 C-50 4.67 -50 4.34 -50 4 C-49.21463867 3.98541748 -48.42927734 3.97083496 -47.62011719 3.95581055 C-43.99629708 3.88046959 -40.3733134 3.78409739 -36.75 3.6875 C-35.51507813 3.66494141 -34.28015625 3.64238281 -33.0078125 3.61914062 C-25.86528199 3.41238316 -19.38742511 2.6487404 -12.50317383 0.70532227 C-8.13254069 -0.52619623 -4.40051124 -1.46683708 0 0 Z " fill="#ECECEC" transform="translate(199,121)"/>
<path d="M0 0 C1.62775106 2.88437487 2.22708992 5.01865627 2.375 8.3125 C2.73527312 12.90768163 3.78850031 17.15029882 5.0625 21.5625 C6.67969893 27.20781405 7.41226286 32.12525428 7 38 C4.14675563 39.42662219 2.16545451 39.31033868 -1 39 C-5.45917917 36.06575893 -7.90158815 32.51856525 -10.625 28.0625 C-11.0065625 27.45470703 -11.388125 26.84691406 -11.78125 26.22070312 C-12.86561926 24.48758191 -13.93322114 22.74400364 -15 21 C-15.87205078 19.63101563 -15.87205078 19.63101563 -16.76171875 18.234375 C-18.20661168 15.6271865 -18.25165647 13.93599217 -18 11 C-14.45982626 12.4282246 -13.07687909 14.00789575 -11.125 17.25 C-7.97492259 22.1944253 -4.76376388 27.07874537 1 29 C0.69147815 27.041036 0.3780582 25.08284287 0.0625 23.125 C-0.11152344 22.03445312 -0.28554687 20.94390625 -0.46484375 19.8203125 C-0.85551159 17.06178454 -0.85551159 17.06178454 -2 15 C-2.12207871 13.21140489 -2.17548448 11.41771619 -2.1875 9.625 C-2.20167969 8.66851562 -2.21585938 7.71203125 -2.23046875 6.7265625 C-1.99745572 3.96989983 -1.40920164 2.35052605 0 0 Z " fill="#EAEAEA" transform="translate(168,207)"/>
<path d="M0 0 C0.33 0.99 0.66 1.98 1 3 C1.99 3.33 2.98 3.66 4 4 C10.22897894 13.2541427 14.07898991 22.64632041 12.45605469 33.97363281 C11.46879097 38.3602971 9.5464312 42.36518516 7.57763672 46.38671875 C5.04843728 51.56179008 3.90211054 56.1825693 4 62 C3.34 61.67 2.68 61.34 2 61 C0.68478251 54.90141188 0.81647879 48.7148631 0.8125 42.5 C0.80025391 41.49324219 0.78800781 40.48648438 0.77539062 39.44921875 C0.76446939 33.89395134 1.13629846 29.24488339 3 24 C3.66 24.33 4.32 24.66 5 25 C5.4140625 27.28515625 5.4140625 27.28515625 5.625 30.0625 C5.69976562 30.98160156 5.77453125 31.90070313 5.8515625 32.84765625 C5.90054687 33.55792969 5.94953125 34.26820313 6 35 C8.17436799 27.00919765 7.59583402 21.44396738 3.625 14.0625 C1.83347278 10.96971947 -0.01750324 7.97374514 -2 5 C-1.34 5 -0.68 5 0 5 C0 3.35 0 1.7 0 0 Z " fill="#ECECEC" transform="translate(339,276)"/>
<path d="M0 0 C1.9692868 3.51658358 2.94810114 7.12112296 4 11 C4.37125 12.216875 4.7425 13.43375 5.125 14.6875 C6 18 6 18 6 22 C5.10796875 22.04898437 4.2159375 22.09796875 3.296875 22.1484375 C1.54117187 22.26058594 1.54117187 22.26058594 -0.25 22.375 C-1.99023438 22.47941406 -1.99023438 22.47941406 -3.765625 22.5859375 C-6.78307316 22.97222917 -8.36105944 23.65552923 -11 25 C-15.89202671 25.10501667 -20.59221514 24.13279912 -25 22 C-23.79618552 19.50638429 -22.54571278 17.31856917 -21 15 C-16.125 15.875 -16.125 15.875 -15 17 C-12.67319705 17.66977494 -12.67319705 17.66977494 -10 17 C-6.05137936 13.10910773 -4.03983588 8.05102218 -2 3 C-1.34 2.01 -0.68 1.02 0 0 Z " fill="#EBEBEB" transform="translate(287,265)"/>
<path d="M0 0 C0.99 0 1.98 0 3 0 C3.29132813 0.94359375 3.58265625 1.8871875 3.8828125 2.859375 C4.29445573 4.15701993 4.70871614 5.45383633 5.125 6.75 C5.34365723 7.43231689 5.56231445 8.11463379 5.78759766 8.81762695 C7.25764485 13.23240428 9.06733862 17.12752565 11.375 21.1875 C14.53064187 27.14276261 14.76649325 32.49709671 13 39 C12.01 39.495 12.01 39.495 11 40 C4.73503426 29.2033757 -0.19036961 18.84659129 -0.0625 6.1875 C-0.05347656 5.02605469 -0.04445312 3.86460937 -0.03515625 2.66796875 C-0.02355469 1.78753906 -0.01195312 0.90710938 0 0 Z " fill="#E5E5E5" transform="translate(188,299)"/>
<path d="M0 0 C12.22260302 6.48546283 23.19301942 16.78559125 28 30 C28.76168079 35.3086843 28.5669259 40.18701394 26 45 C25.67 45 25.34 45 25 45 C24.67 41.37 24.34 37.74 24 34 C23.34 35.98 22.68 37.96 22 40 C21.67 40 21.34 40 21 40 C21 38.02 21 36.04 21 34 C20.67 34 20.34 34 20 34 C19.92523438 33.14277344 19.85046875 32.28554688 19.7734375 31.40234375 C18.90019724 23.80857798 17.99280862 18.91251105 12 14 C8.87151861 11.6102439 5.73161754 9.28103965 2.51171875 7.015625 C0 5 0 5 -1 2 C-0.67 1.34 -0.34 0.68 0 0 Z " fill="#191919" transform="translate(319,267)"/>
<path d="M0 0 C4.15178135 2.14015974 8.02634102 4.53597123 11.86279297 7.19750977 C10.30029297 8.38500977 10.30029297 8.38500977 7.86279297 9.19750977 C6.29230226 8.48054662 4.72534201 7.75463456 3.17919922 6.98657227 C0.07819615 5.93024407 -2.80645914 5.89283695 -6.07470703 5.76000977 C-11.25016306 5.49221954 -14.7585324 4.88828553 -19.18408203 2.25219727 C-22.90971772 0.240354 -27.06714331 -0.70157136 -31.13720703 -1.80249023 C-21.01570508 -8.5501582 -9.93531617 -4.89275166 0 0 Z " fill="#E3E3E3" transform="translate(297.13720703125,39.802490234375)"/>
<path d="M0 0 C-1.40664722 3.39939744 -2.83094379 5.11569631 -6 7 C-12.11482137 9.05739968 -18.3037506 9.86886378 -24.6875 10.6875 C-25.71939453 10.82994141 -26.75128906 10.97238281 -27.81445312 11.11914062 C-29.30428711 11.3134668 -29.30428711 11.3134668 -30.82421875 11.51171875 C-31.72229248 11.62990967 -32.62036621 11.74810059 -33.5456543 11.86987305 C-35.95547367 11.99763926 -37.71289318 11.72373426 -40 11 C-27.65426608 4.10294194 -14.27182672 -0.28543653 0 0 Z " fill="#E5E5E5" transform="translate(379,113)"/>
<path d="M0 0 C0.66 0 1.32 0 2 0 C2.08564209 0.8971875 2.17128418 1.794375 2.25952148 2.71875 C2.5810262 6.08098165 2.9035746 9.44310992 3.22680664 12.80517578 C3.36589016 14.25402955 3.50457029 15.70292211 3.64282227 17.15185547 C4.68245286 28.09124876 4.68245286 28.09124876 6 39 C2.803887 37.4019435 1.92061369 34.10689384 0.4375 31 C-1.37296884 26.71419741 -1.37296884 26.71419741 -4 23 C-4.83663541 15.18067675 -3.52978434 7.05956867 0 0 Z " fill="#DADADA" transform="translate(347,252)"/>
<path d="M0 0 C0.66 0.33 1.32 0.66 2 1 C2 1.66 2 2.32 2 3 C2.99 3.33 3.98 3.66 5 4 C5 4.66 5 5.32 5 6 C2.69 5.67 0.38 5.34 -2 5 C-2 5.66 -2 6.32 -2 7 C-5.46153846 10 -5.46153846 10 -8 10 C-8 10.66 -8 11.32 -8 12 C-8.66 12 -9.32 12 -10 12 C-10.33 12.99 -10.66 13.98 -11 15 C-13.5625 16.1875 -13.5625 16.1875 -16 17 C-16 17.66 -16 18.32 -16 19 C-22.5 23 -22.5 23 -27 23 C-26.98046875 19.7578125 -26.98046875 19.7578125 -26 16 C-23.69352844 14.06417076 -21.08040224 13.01746452 -18.3125 11.875 C-12.76314862 9.46136037 -8.57948735 6.96843131 -4 3 C-3.34 3 -2.68 3 -2 3 C-2 2.34 -2 1.68 -2 1 C-1.34 0.67 -0.68 0.34 0 0 Z " fill="#E5E5E5" transform="translate(164,97)"/>
<path d="M0 0 C0.81662109 0.00128906 1.63324219 0.00257812 2.47460938 0.00390625 C9.01953223 0.09777765 15.12158139 0.6643876 20.6875 4.375 C18.96466797 4.43107422 18.96466797 4.43107422 17.20703125 4.48828125 C8.71836508 4.82562781 0.7397271 5.47229442 -7.515625 7.65625 C-10.43250228 8.40583857 -13.33717537 8.91725775 -16.3125 9.375 C-13.65578537 0.68029757 -8.12834687 -0.24037135 0 0 Z " fill="#D7D7D7" transform="translate(327.3125,69.625)"/>
<path d="M0 0 C6.39283679 2.35525566 11.59269307 5.63243548 17.0625 9.625 C18.08162476 10.36230347 18.08162476 10.36230347 19.12133789 11.11450195 C20.7890086 12.35584123 22.40031516 13.67219836 24 15 C24 15.66 24 16.32 24 17 C25.65 17.66 27.3 18.32 29 19 C27 20 27 20 24.75 19.36328125 C22.83790252 18.63266446 20.92788804 17.89658238 19.01953125 17.15625 C17.12212443 16.42968801 15.20339172 15.7545401 13.26171875 15.15625 C7.12984546 13.14640989 4.32162326 10.62630551 0.9609375 5.12109375 C0 3 0 3 0 0 Z " fill="#EEEEED" transform="translate(335,55)"/>
<path d="M0 0 C0.33 0 0.66 0 1 0 C1 3.96 1 7.92 1 12 C1.66 12 2.32 12 3 12 C3 10.35 3 8.7 3 7 C3.33 7 3.66 7 4 7 C4.226875 8.19625 4.45375 9.3925 4.6875 10.625 C5.66784646 15.00854915 6.98053721 19.2545527 8.4375 23.5 C9.05431641 25.30984375 9.05431641 25.30984375 9.68359375 27.15625 C10.11800781 28.0946875 10.55242187 29.033125 11 30 C11.99 30.33 12.98 30.66 14 31 C15.8125 33.75 15.8125 33.75 17 37 C16.1875 39.875 16.1875 39.875 15 42 C7.66302969 35.33599565 1.43044518 23.8541779 0 14 C-0.21093167 9.32026021 -0.18207571 4.68002009 0 0 Z " fill="#979797" transform="translate(135,180)"/>
<path d="M0 0 C0.20364742 4.0617589 0.32774825 8.1222056 0.4375 12.1875 C0.49615234 13.33798828 0.55480469 14.48847656 0.61523438 15.67382812 C0.78438186 24.0103829 0.78438186 24.0103829 -1.51904297 26.91650391 C-3.8970777 28.66442417 -5.98209583 30 -9 30 C-8.42655063 27.13275314 -8.1385485 26.1385485 -6 24 C-5.65783765 19.34805286 -5.65783765 19.34805286 -7 15 C-7.5340875 11.18508925 -7.83229624 7.53105242 -5.953125 4.07421875 C-2.64707637 0 -2.64707637 0 0 0 Z " fill="#E3E3E3" transform="translate(185,175)"/>
<path d="M0 0 C3.68418301 3.34925728 4.8360142 5.77010649 5.5 10.75 C5.37312848 15.96149158 2.62727453 19.44917857 -1 23 C-3.875 24.5 -3.875 24.5 -6 25 C-6 24.01 -6 23.02 -6 22 C-6.99 21.67 -7.98 21.34 -9 21 C-8.38511719 20.22076172 -8.38511719 20.22076172 -7.7578125 19.42578125 C-2.73381823 12.9234346 -0.82783482 8.14037576 0 0 Z " fill="#E5E5E5" transform="translate(397,113)"/>
<path d="M0 0 C1.19496094 -0.00386719 1.19496094 -0.00386719 2.4140625 -0.0078125 C4.375 0.125 4.375 0.125 5.375 1.125 C6.72247084 1.35575082 8.07877565 1.53653063 9.4375 1.6875 C10.736875 1.831875 12.03625 1.97625 13.375 2.125 C10.60420113 5.93484844 6.74631855 6.19340752 2.375 7.125 C7.325 7.455 12.275 7.785 17.375 8.125 C17.375 8.455 17.375 8.785 17.375 9.125 C6.98 9.62 6.98 9.62 -3.625 10.125 C-3.955 8.805 -4.285 7.485 -4.625 6.125 C-6.275 5.795 -7.925 5.465 -9.625 5.125 C-8.8125 3.1875 -8.8125 3.1875 -7.625 1.125 C-4.78285932 0.17761977 -2.94891609 -0.00960559 0 0 Z " fill="#E6E6E6" transform="translate(173.625,94.875)"/>
<path d="M0 0 C0.33 0.99 0.66 1.98 1 3 C1.99 3.33 2.98 3.66 4 4 C11.03950045 14.45830182 13.19143679 23.55610465 12 36 C11.67 36 11.34 36 11 36 C10.67 33.69 10.34 31.38 10 29 C9.34 29.33 8.68 29.66 8 30 C7.979375 28.783125 7.95875 27.56625 7.9375 26.3125 C7.10849242 18.41180657 2.32406223 11.48609334 -2 5 C-1.34 5 -0.68 5 0 5 C0 3.35 0 1.7 0 0 Z " fill="#E2E2E1" transform="translate(339,276)"/>
<path d="M0 0 C0 0.99 0 1.98 0 3 C0.99 3.33 1.98 3.66 3 4 C3 7.96 3 11.92 3 16 C-2.37297924 14.92540415 -4.35398585 13.99325359 -8 10 C-8.06328571 6.32942871 -7.7562602 4.1163841 -5.6875 1.0625 C-4 0 -4 0 0 0 Z " fill="#DCDCDB" transform="translate(256,242)"/>
<path d="M0 0 C2.84867427 0.41892269 5.4621204 1.14747326 8.20703125 2.0234375 C12.13563748 3.03492211 15.51287798 3.30003962 19.5625 3.3125 C20.82191406 3.32925781 22.08132813 3.34601563 23.37890625 3.36328125 C27.2623738 2.97367771 29.57509476 1.78152234 33 0 C35.84734441 -0.09046746 38.1712322 0.46350956 41 1 C39.68 1.33 38.36 1.66 37 2 C36.67 3.32 36.34 4.64 36 6 C36 5.01 36 4.02 36 3 C35.37996094 3.28875 34.75992188 3.5775 34.12109375 3.875 C25.46674389 7.5030244 16.27414546 8.81687027 7.11328125 6.1640625 C3.8678109 4.77389324 1.50434257 3.50434257 -1 1 C-0.67 0.67 -0.34 0.34 0 0 Z " fill="#D0D0D0" transform="translate(307,201)"/>
<path d="M0 0 C2.32475975 1.88194837 3.0748362 3.20372076 4.125 6.0625 C6.64073357 12.42662601 12.24046899 17.24046899 17 22 C16.625 24.125 16.625 24.125 16 26 C8.45711085 23.6293777 4.63543313 17.62123561 1 11 C-0.09395019 8.69006534 -1.05849506 6.3785388 -2 4 C-1.01 4 -0.02 4 1 4 C0.67 2.68 0.34 1.36 0 0 Z " fill="#D8D8D8" transform="translate(150,138)"/>
<path d="M0 0 C1.76953125 1.60546875 1.76953125 1.60546875 3 3 C1.58297487 2.85769192 0.1663904 2.71099254 -1.25 2.5625 C-2.43335938 2.44068359 -2.43335938 2.44068359 -3.640625 2.31640625 C-6 2 -6 2 -7.7890625 1.48046875 C-17.36932859 -0.60146187 -27.94829496 0.55428191 -37 4 C-38.32875941 4.35112295 -39.66103053 4.69008122 -41 5 C-31.88730811 -5.57072259 -11.94229665 -5.70133219 0 0 Z " fill="#C8C8C8" transform="translate(344,192)"/>
<path d="M0 0 C1.155 0.33 2.31 0.66 3.5 1 C13.61491967 3.25308637 24.80867393 2.37190928 35 1 C28.86177773 6.75458338 21.8529188 7.45605098 13.7578125 7.33203125 C9.3917092 6.80636725 5.82347955 5.09240969 2 3 C1.34 2.67 0.68 2.34 0 2 C0 1.34 0 0.68 0 0 Z " fill="#B3B3B1" transform="translate(210,201)"/>
<path d="M0 0 C2.4921875 1.6875 2.4921875 1.6875 4.125 3 C2.125 4 2.125 4 0.23876953 3.44799805 C-0.53869629 3.15965088 -1.31616211 2.87130371 -2.1171875 2.57421875 C-8.7372347 0.48148343 -15.1162979 0.66878245 -22 0.8125 C-23.24265625 0.82603516 -24.4853125 0.83957031 -25.765625 0.85351562 C-28.80254831 0.88855705 -31.83853467 0.93768567 -34.875 1 C-34.875 0.34 -34.875 -0.32 -34.875 -1 C-24.78404906 -5.19188582 -9.63097765 -5.33795363 0 0 Z " fill="#ACACAC" transform="translate(244.875,193)"/>
<path d="M0 0 C4.87688098 4.71956224 4.87688098 4.71956224 5.3125 9.25 C4.88396522 14.39241735 2.67519163 17.06708658 -0.625 20.875 C-2 22 -2 22 -4 22 C-3.690625 21.21625 -3.38125 20.4325 -3.0625 19.625 C-1.73664193 15.10148422 -1.35188915 10.68568186 -1 6 C-1.66 5.67 -2.32 5.34 -3 5 C-2.01 3.35 -1.02 1.7 0 0 Z " fill="#E2E2E0" transform="translate(339,91)"/>
<path d="M0 0 C1.06879395 0.09849243 1.06879395 0.09849243 2.15917969 0.19897461 C9.85305904 0.87795634 17.53211986 1.28458342 25.25 1.5625 C26.38824219 1.60568359 27.52648437 1.64886719 28.69921875 1.69335938 C31.46606496 1.79798801 34.23297726 1.9001689 37 2 C32.05975131 4.48577455 28.12778848 6.28161679 22.5 6.25 C21.5821875 6.25515625 20.664375 6.2603125 19.71875 6.265625 C16.79531551 5.98000209 14.69433213 5.13713545 12 4 C9.41094552 3.44104371 6.81881549 3.00106047 4.20703125 2.5625 C2 2 2 2 0 0 Z " fill="#2E2E2E" transform="translate(252,156)"/>
<path d="M0 0 C0.66 0.33 1.32 0.66 2 1 C1.72285156 1.75925781 1.44570312 2.51851563 1.16015625 3.30078125 C0.79792969 4.29464844 0.43570313 5.28851563 0.0625 6.3125 C-0.29714844 7.29863281 -0.65679687 8.28476562 -1.02734375 9.30078125 C-2.66603894 13.84832492 -3.28916395 17.88843593 -3.5625 22.6875 C-3.62727539 23.7403418 -3.62727539 23.7403418 -3.69335938 24.81445312 C-3.7991736 26.54275206 -3.90006581 28.2713511 -4 30 C-4.66 30 -5.32 30 -6 30 C-8.08109103 24.92734061 -9.05387121 20.39334089 -8 15 C-2.95588235 2.95588235 -2.95588235 2.95588235 0 0 Z " fill="#484848" transform="translate(245,321)"/>
<path d="M0 0 C7.41083038 3.93227734 13.18195963 9.00565538 19 15 C18.34 16.32 17.68 17.64 17 19 C16.03900391 18.11248047 16.03900391 18.11248047 15.05859375 17.20703125 C9.23919271 11.86688404 9.23919271 11.86688404 2.9375 7.125 C0 5 0 5 -1 2 C-0.67 1.34 -0.34 0.68 0 0 Z " fill="#1F1F1F" transform="translate(319,267)"/>
<path d="M0 0 C0.66 0.66 1.32 1.32 2 2 C0.125 4.0625 0.125 4.0625 -3 6 C-6.40453547 6.0571754 -9.65331142 5.59785505 -13 5 C-13 5.99 -13 6.98 -13 8 C-9.37 8 -5.74 8 -2 8 C-2 8.33 -2 8.66 -2 9 C-17.345 9.495 -17.345 9.495 -33 10 C-28.91232808 6.93424606 -26.95050606 6.30849119 -22.0625 5.375 C-21.08301392 5.18780396 -21.08301392 5.18780396 -20.08374023 4.99682617 C-13.76095389 3.84590951 -7.41667782 3.31380043 -1 3 C-0.67 2.01 -0.34 1.02 0 0 Z " fill="#C8C8C8" transform="translate(270,125)"/>
<path d="M0 0 C-1.59949052 2.55918483 -2.65676273 4.18859861 -5 6 C-11.56913862 7.39521528 -18.58700425 5.52820324 -25 4 C-21.49741264 1.93147447 -18.19295993 1.42179085 -14.1875 0.875 C-13.00542969 0.70742187 -11.82335937 0.53984375 -10.60546875 0.3671875 C-7.04202276 0.00427967 -3.57905598 -0.06415721 0 0 Z " fill="#D1D1D1" transform="translate(363,179)"/>
<path d="M0 0 C0 0.33 0 0.66 0 1 C-4.27081914 1.02897435 -8.54161309 1.04678996 -12.8125 1.0625 C-14.63491211 1.07506836 -14.63491211 1.07506836 -16.49414062 1.08789062 C-18.23920898 1.09272461 -18.23920898 1.09272461 -20.01953125 1.09765625 C-21.09307861 1.10289307 -22.16662598 1.10812988 -23.27270508 1.11352539 C-26 1 -26 1 -29 0 C-29 -0.66 -29 -1.32 -29 -2 C-19.19053498 -4.28212695 -9.36095646 -3.62359605 0 0 Z " fill="#CDCDCD" transform="translate(224,180)"/>
<path d="M0 0 C0.33 1.32 0.66 2.64 1 4 C-0.2684375 4.556875 -0.2684375 4.556875 -1.5625 5.125 C-5.54683878 7.2982757 -8.66636184 9.95238405 -12 13 C-12.33 12.01 -12.66 11.02 -13 10 C-13.66 9.34 -14.32 8.68 -15 8 C-13.50437457 6.77026353 -12.00859866 5.54070916 -10.51171875 4.3125 C-8.91664378 2.99998289 -8.91664378 2.99998289 -7.5 1.1875 C-5.14396325 -0.67769576 -2.88996449 -0.1926643 0 0 Z " fill="#EDEDED" transform="translate(150,138)"/>
<path d="M0 0 C-0.33 0.99 -0.66 1.98 -1 3 C0.99616554 4.99616554 4.81701963 4.40983427 7.5625 4.5625 C8.62887695 4.62727539 8.62887695 4.62727539 9.71679688 4.69335938 C11.47761912 4.79971777 13.2387832 4.90038846 15 5 C15 5.33 15 5.66 15 6 C14.38068604 6.02505615 13.76137207 6.0501123 13.12329102 6.07592773 C10.26955112 6.19322658 7.41603559 6.31533586 4.5625 6.4375 C3.10166992 6.49647461 3.10166992 6.49647461 1.61132812 6.55664062 C-4.30061599 6.81368167 -10.12645997 7.27719621 -16 8 C-12.59491053 4.04570255 -5.45732508 -2.72866254 0 0 Z " fill="#464646" transform="translate(231,40)"/>
<path d="M0 0 C4.93387358 4.77471637 4.93387358 4.77471637 5.1328125 8.4609375 C5.13023437 9.42257813 5.12765625 10.38421875 5.125 11.375 C5.12757813 12.33148438 5.13015625 13.28796875 5.1328125 14.2734375 C5.01551878 16.68140854 4.68675951 18.69990068 4 21 C3.34 21 2.68 21 2 21 C1.87882812 20.27554688 1.75765625 19.55109375 1.6328125 18.8046875 C0.55966678 12.59091322 0.55966678 12.59091322 -1.25 6.5625 C-2 4 -2 4 -1.125 1.625 C-0.75375 1.08875 -0.3825 0.5525 0 0 Z " fill="#E2E2E2" transform="translate(296,95)"/>
<path d="M0 0 C2.9375 0.375 2.9375 0.375 6 1 C6.495 1.99 6.495 1.99 7 3 C1.06 3.495 1.06 3.495 -5 4 C-5 4.33 -5 4.66 -5 5 C-5.80824219 5.06058594 -6.61648438 5.12117188 -7.44921875 5.18359375 C-9.05216797 5.30927734 -9.05216797 5.30927734 -10.6875 5.4375 C-11.74324219 5.51871094 -12.79898437 5.59992188 -13.88671875 5.68359375 C-16.65086297 5.96451681 -19.28945741 6.40156852 -22 7 C-22 6.34 -22 5.68 -22 5 C-23.32 4.67 -24.64 4.34 -26 4 C-17.33829426 2.14520646 -8.82641419 1.45263663 0 1 C0 0.67 0 0.34 0 0 Z " fill="#3F3F3F" transform="translate(345,72)"/>
<path d="M0 0 C-0.33 0.33 -0.66 0.66 -1 1 C-0.01 1.66 0.98 2.32 2 3 C1.30132812 3.19335938 0.60265625 3.38671875 -0.1171875 3.5859375 C-1.02726562 3.84632812 -1.93734375 4.10671875 -2.875 4.375 C-3.77992188 4.63023438 -4.68484375 4.88546875 -5.6171875 5.1484375 C-8.14569726 5.8604315 -8.14569726 5.8604315 -10 8 C-12.625 8.625 -12.625 8.625 -15 9 C-15 8.34 -15 7.68 -15 7 C-15.99 6.67 -16.98 6.34 -18 6 C-16.08588443 5.01585567 -14.1686033 4.03786651 -12.25 3.0625 C-11.18265625 2.51722656 -10.1153125 1.97195312 -9.015625 1.41015625 C-2.89959839 -1.4497992 -2.89959839 -1.4497992 0 0 Z " fill="#232323" transform="translate(233,58)"/>
<path d="M0 0 C1.71806687 3.01878957 2.30972753 5.42223561 2.5625 8.875 C2.87337504 12.62770582 3.31709049 16.29277694 4 20 C3.67 19.34 3.34 18.68 3 18 C2.34 18 1.68 18 1 18 C0.67 18.66 0.34 19.32 0 20 C-1.67451765 16.33865386 -2.27236525 13.4576529 -2.25 9.4375 C-2.25773438 8.04337891 -2.25773438 8.04337891 -2.265625 6.62109375 C-1.99438101 3.9445538 -1.36116595 2.29561718 0 0 Z " fill="#E4E4E4" transform="translate(168,207)"/>
<path d="M0 0 C8.79995866 -0.34509642 14.16342455 1.34554134 21 7 C21 7.33 21 7.66 21 8 C13.54993365 7.57829813 5.41134194 5.41134194 0 0 Z " fill="#CBCBCB" transform="translate(258,43)"/>
<path d="M0 0 C0 0.66 0 1.32 0 2 C-2.45492196 2.72273858 -4.91262973 3.42852666 -7.375 4.125 C-8.07367188 4.33253906 -8.77234375 4.54007813 -9.4921875 4.75390625 C-11.30535289 5.25950045 -13.15263686 5.63883013 -15 6 C-15.66 5.34 -16.32 4.68 -17 4 C-20.59679066 4.32326553 -20.59679066 4.32326553 -24 5 C-22.59928816 2.19857632 -20.58919909 1.63530333 -17.7421875 0.59765625 C-11.95449147 -0.66376468 -5.89227135 -0.20715016 0 0 Z " fill="#CBCBCB" transform="translate(240,35)"/>
<path d="M0 0 C0.33 0.66 0.66 1.32 1 2 C1.66 2 2.32 2 3 2 C3.33 1.34 3.66 0.68 4 0 C4.66 5.61 5.32 11.22 6 17 C5.67 16.01 5.34 15.02 5 14 C4.34 14 3.68 14 3 14 C3 16.31 3 18.62 3 21 C2.67 21 2.34 21 2 21 C0.79556805 13.94546999 -0.28100502 7.16562789 0 0 Z " fill="#141514" transform="translate(350,267)"/>
<path d="M0 0 C4.75598791 6.05307552 5.64191641 10.3587258 5 18 C4 21.125 4 21.125 3 23 C2.67 23 2.34 23 2 23 C1.93941406 22.21753906 1.87882812 21.43507813 1.81640625 20.62890625 C1.73261719 19.61699219 1.64882813 18.60507812 1.5625 17.5625 C1.48128906 16.55316406 1.40007812 15.54382813 1.31640625 14.50390625 C1.26788532 12.06359221 1.26788532 12.06359221 0 11 C-0.07226502 9.14712498 -0.0838122 7.29166122 -0.0625 5.4375 C-0.05347656 4.42558594 -0.04445313 3.41367187 -0.03515625 2.37109375 C-0.02355469 1.58863281 -0.01195312 0.80617188 0 0 Z " fill="#2C2C2C" transform="translate(342,289)"/>
<path d="M0 0 C0.66 0.33 1.32 0.66 2 1 C2 1.66 2 2.32 2 3 C2.99 3.33 3.98 3.66 5 4 C5 4.66 5 5.32 5 6 C2.69 5.67 0.38 5.34 -2 5 C-2 5.66 -2 6.32 -2 7 C-5.46153846 10 -5.46153846 10 -8 10 C-8 10.66 -8 11.32 -8 12 C-8.66 12 -9.32 12 -10 12 C-10.33 12.66 -10.66 13.32 -11 14 C-11 13.01 -11 12.02 -11 11 C-12.32 11.33 -13.64 11.66 -15 12 C-13.6022795 9.204559 -11.37337262 8.47112063 -8.71484375 7.01953125 C-6.84285028 5.9065693 -5.49379755 4.57241848 -4 3 C-3.34 3 -2.68 3 -2 3 C-2 2.34 -2 1.68 -2 1 C-1.34 0.67 -0.68 0.34 0 0 Z " fill="#D5D5D5" transform="translate(164,97)"/>
<path d="M0 0 C5.26736675 2.26591678 8.91228221 6.23609255 12 11 C12.65776185 14.3087414 12.43145849 16.60226436 12 20 C7.95861832 16.82462868 6.75131589 13.14043469 5.015625 8.484375 C3.71109537 5.29329484 2.03908249 2.76732623 0 0 Z " fill="#383837" transform="translate(297,313)"/>
<path d="M0 0 C4.8274799 1.41292095 8.7162359 3.42974154 13 6 C13 7.98 13 9.96 13 12 C12.41992188 11.60167969 11.83984375 11.20335937 11.2421875 10.79296875 C6.9360712 7.87248393 2.725837 5.18115554 -2 3 C-1.34 2.01 -0.68 1.02 0 0 Z " fill="#17171A" transform="translate(337,52)"/>
<path d="M0 0 C0.66 0 1.32 0 2 0 C2 0.66 2 1.32 2 2 C3.32 2.33 4.64 2.66 6 3 C5.4375 4.875 5.4375 4.875 4 7 C0.5625 8.1875 0.5625 8.1875 -3 9 C-3.99 9.33 -4.98 9.66 -6 10 C-5.49259538 5.60249328 -2.91706686 3.13051078 0 0 Z " fill="#DCDCDC" transform="translate(196,67)"/>
<path d="M0 0 C0.433125 0.474375 0.86625 0.94875 1.3125 1.4375 C3.02309613 3.23686957 3.02309613 3.23686957 6 4 C7.8125 6.75 7.8125 6.75 9 10 C8.1875 12.875 8.1875 12.875 7 15 C3.02527913 11.29939781 0.12867164 8.27319898 -0.1875 2.6875 C-0.125625 1.800625 -0.06375 0.91375 0 0 Z " fill="#B2B2B2" transform="translate(143,207)"/>
<path d="M0 0 C11.385 0.99 11.385 0.99 23 2 C17.6442662 6.01680035 13.51356835 5.80676531 7 5 C4.25492431 3.94138149 2.40181322 2.74677325 0 1 C0 0.67 0 0.34 0 0 Z " fill="#BBBBBB" transform="translate(159,168)"/>
<path d="M0 0 C-3.6702763 2.98209949 -7.42644077 5.82525074 -11.23046875 8.6328125 C-13.10949864 10.02468088 -13.10949864 10.02468088 -15 12 C-15 9.69 -15 7.38 -15 5 C-13.44424022 4.15415002 -11.8800388 3.32381601 -10.3125 2.5 C-9.44238281 2.0359375 -8.57226562 1.571875 -7.67578125 1.09375 C-4.88211171 -0.04818792 -2.98370887 -0.21504208 0 0 Z " fill="#CCCCCC" transform="translate(215,147)"/>
<path d="M0 0 C0.99 0.66 1.98 1.32 3 2 C3 2.66 3 3.32 3 4 C3.66 4.33 4.32 4.66 5 5 C-3.261959 12.66742597 -3.261959 12.66742597 -8 14 C-6.47987167 10.54516288 -4.37385365 7.68504536 -2.12109375 4.68359375 C-0.81448821 2.88113235 -0.81448821 2.88113235 0 0 Z " fill="#D5D5D5" transform="translate(351,102)"/>
<path d="M0 0 C3.66060821 0.58536753 5.54535164 2.083239 8.25 4.5625 C8.95640625 5.20316406 9.6628125 5.84382813 10.390625 6.50390625 C10.92171875 6.99761719 11.4528125 7.49132813 12 8 C11.67 9.32 11.34 10.64 11 12 C9.37327315 10.87749844 7.74867418 9.75191267 6.125 8.625 C4.76761719 7.68527344 4.76761719 7.68527344 3.3828125 6.7265625 C1 5 1 5 -1 3 C-0.34 2.67 0.32 2.34 1 2 C0.67 1.34 0.34 0.68 0 0 Z " fill="#1A1A19" transform="translate(308,43)"/>
<path d="M0 0 C2.6460081 3.32384351 4.70236112 6.84375088 6.75 10.5625 C7.38421875 11.69816406 8.0184375 12.83382812 8.671875 14.00390625 C10 17 10 17 9 20 C0.70820118 9.60761214 0.70820118 9.60761214 -1 4 C-0.59765625 1.765625 -0.59765625 1.765625 0 0 Z " fill="#C2C2C1" transform="translate(161,182)"/>
<path d="M0 0 C1.54204102 0.00966797 1.54204102 0.00966797 3.11523438 0.01953125 C4.18708984 0.03628906 5.25894531 0.05304688 6.36328125 0.0703125 C7.44673828 0.07933594 8.53019531 0.08835938 9.64648438 0.09765625 C12.32313835 0.1212391 14.99934922 0.15415124 17.67578125 0.1953125 C15.51478752 2.35630623 14.15473945 2.91094966 11.30078125 3.8828125 C10.52992188 4.15480469 9.7590625 4.42679688 8.96484375 4.70703125 C6.47522817 5.23809259 5.06025107 5.00646776 2.67578125 4.1953125 C3.33578125 3.5353125 3.99578125 2.8753125 4.67578125 2.1953125 C0.38578125 2.1953125 -3.90421875 2.1953125 -8.32421875 2.1953125 C-4.97302356 -0.03881763 -3.90644325 -0.04316512 0 0 Z " fill="#D9D9D9" transform="translate(211.32421875,137.8046875)"/>
<path d="M0 0 C-0.99 0 -1.98 0 -3 0 C-3 0.66 -3 1.32 -3 2 C-4.98 2.33 -6.96 2.66 -9 3 C-8.67 3.66 -8.34 4.32 -8 5 C-12 7 -16 9 -20 11 C-20 10.01 -20 9.02 -20 8 C-20.99 7.67 -21.98 7.34 -23 7 C-21.5459375 6.6596875 -21.5459375 6.6596875 -20.0625 6.3125 C-16.02122727 5.17666367 -12.61748097 3.24316624 -9.015625 1.12109375 C-5.59114996 -0.78360458 -3.68626921 -1.14401458 0 0 Z " fill="#2C2C2C" transform="translate(216,144)"/>
<path d="M0 0 C0.33 0.66 0.66 1.32 1 2 C1.99 2.33 2.98 2.66 4 3 C3.34 5.97 2.68 8.94 2 12 C0.68 12.33 -0.64 12.66 -2 13 C-2.99 11.68 -3.98 10.36 -5 9 C-3.68 9.33 -2.36 9.66 -1 10 C-1 9.34 -1 8.68 -1 8 C-1.99 7.67 -2.98 7.34 -4 7 C-3.67 6.34 -3.34 5.68 -3 5 C-2.34 5.33 -1.68 5.66 -1 6 C-0.67 4.02 -0.34 2.04 0 0 Z " fill="#19191A" transform="translate(266,433)"/>
<path d="M0 0 C0.33 0.99 0.66 1.98 1 3 C1.99 3.33 2.98 3.66 4 4 C5.71054387 6.21593183 6.75321724 8.46190652 8 11 C7.67 11.66 7.34 12.32 7 13 C5.68 13 4.36 13 3 13 C1.03937887 10.42318365 -0.5535447 7.8929106 -2 5 C-1.34 5 -0.68 5 0 5 C0 3.35 0 1.7 0 0 Z " fill="#D5D5D5" transform="translate(339,276)"/>
<path d="M0 0 C1.43861294 0.08746284 2.87597508 0.19565348 4.3125 0.3125 C5.11300781 0.37050781 5.91351563 0.42851563 6.73828125 0.48828125 C9.42130337 1.0953208 10.35584035 1.82148846 12 4 C12.6875 7.1875 12.6875 7.1875 13 10 C9.74035658 8.51222697 7.06830707 6.64333184 4.25 4.4375 C3.45078125 3.81746094 2.6515625 3.19742188 1.828125 2.55859375 C1.22484375 2.04425781 0.6215625 1.52992187 0 1 C0 0.67 0 0.34 0 0 Z " fill="#2D2D2D" transform="translate(365,88)"/>
<path d="M0 0 C5.94 0.33 11.88 0.66 18 1 C17.01 1.66 16.02 2.32 15 3 C14.67 3.99 14.34 4.98 14 6 C14 5.34 14 4.68 14 4 C13.15695312 4.09539062 12.31390625 4.19078125 11.4453125 4.2890625 C10.34960938 4.39992188 9.25390625 4.51078125 8.125 4.625 C6.48917969 4.79902344 6.48917969 4.79902344 4.8203125 4.9765625 C3.42425781 4.98816406 3.42425781 4.98816406 2 5 C1.34 4.34 0.68 3.68 0 3 C0 2.01 0 1.02 0 0 Z " fill="#3C3C3C" transform="translate(365,109)"/>
<path d="M0 0 C3.96 0.33 7.92 0.66 12 1 C12 1.33 12 1.66 12 2 C10.35 2.33 8.7 2.66 7 3 C7.33 3.66 7.66 4.32 8 5 C0.74 4.34 -6.52 3.68 -14 3 C-14 2.67 -14 2.34 -14 2 C-9.38 2 -4.76 2 0 2 C0 1.34 0 0.68 0 0 Z " fill="#2E2E2E" transform="translate(270,73)"/>
<path d="M0 0 C5.94 0 11.88 0 18 0 C18.33 0.66 18.66 1.32 19 2 C9.595 2.99 9.595 2.99 0 4 C-0.33 3.34 -0.66 2.68 -1 2 C-0.67 1.34 -0.34 0.68 0 0 Z " fill="#FBFBFB" transform="translate(320,71)"/>
<path d="M0 0 C3.75409842 0.59770082 6.69658253 1.6843096 10.0625 3.4375 C10.89910156 3.86933594 11.73570312 4.30117188 12.59765625 4.74609375 C13.39042969 5.15988281 14.18320312 5.57367188 15 6 C16.33197833 6.66936982 17.66482167 7.33703616 19 8 C18.34 9.32 17.68 10.64 17 12 C16.401875 11.46375 15.80375 10.9275 15.1875 10.375 C11.43284528 7.57741413 7.48228198 5.51091022 3.328125 3.3671875 C1 2 1 2 0 0 Z " fill="#D0D0CF" transform="translate(299,36)"/>
<path d="M0 0 C0.66 0 1.32 0 2 0 C2 6.27 2 12.54 2 19 C-0.10827055 15.83759418 -0.33817465 14.49342531 -0.625 10.8125 C-0.69976562 9.91144531 -0.77453125 9.01039063 -0.8515625 8.08203125 C-0.92503906 7.05142578 -0.92503906 7.05142578 -1 6 C-1.99 6.66 -2.98 7.32 -4 8 C-3.40312566 4.65750371 -2.26396123 2.53563658 0 0 Z " fill="#3E3E3E" transform="translate(266,333)"/>
<path d="M0 0 C2.48627517 3.0622744 4.09989404 6.1457054 5.6875 9.75 C6.12449219 10.73484375 6.56148438 11.7196875 7.01171875 12.734375 C7.33785156 13.48203125 7.66398437 14.2296875 8 15 C7.01 15 6.02 15 5 15 C4.67 15.66 4.34 16.32 4 17 C0.92291196 11.06561592 -0.48736475 6.70126536 0 0 Z " fill="#262625" transform="translate(345,277)"/>
<path d="M0 0 C-2.61478952 2.56761548 -3.94528576 2.9956345 -7.671875 3.29296875 C-9.03156035 3.27316751 -10.3910934 3.23759202 -11.75 3.1875 C-12.44738281 3.17396484 -13.14476562 3.16042969 -13.86328125 3.14648438 C-15.57585541 3.1112945 -17.28802941 3.05749155 -19 3 C-16.34152245 -0.04293431 -14.25473713 -0.56622617 -10.20703125 -0.94921875 C-6.71976303 -1.02945678 -3.4414611 -0.55309196 0 0 Z " fill="#1E1E1E" transform="translate(338,202)"/>
<path d="M0 0 C-1.40200667 4.4609303 -3.59783406 6.84677303 -7 10 C-7.556875 10.598125 -8.11375 11.19625 -8.6875 11.8125 C-10 13 -10 13 -12 13 C-10.48665656 7.61922331 -5.99032955 0 0 0 Z " fill="#C8C8C7" transform="translate(374,183)"/>
<path d="M0 0 C1.32 0 2.64 0 4 0 C4.34731345 4.86238823 3.52309739 7.82718509 1 12 C0.01 12.495 0.01 12.495 -1 13 C-1.0272415 11.58344207 -1.04650467 10.16672955 -1.0625 8.75 C-1.07410156 7.96109375 -1.08570313 7.1721875 -1.09765625 6.359375 C-1.00385306 4.09308998 -0.63241063 2.1711105 0 0 Z " fill="#D0D0D0" transform="translate(370,167)"/>
<path d="M0 0 C0.68707555 2.49064888 1 4.37886292 1 7 C1.66 7.66 2.32 8.32 3 9 C2.04882866 10.1725131 1.08882991 11.33787015 0.125 12.5 C-0.40867187 13.1496875 -0.94234375 13.799375 -1.4921875 14.46875 C-1.98976563 14.9740625 -2.48734375 15.479375 -3 16 C-3.66 16 -4.32 16 -5 16 C-3.71291613 10.45563871 -2.08135307 5.29798964 0 0 Z " fill="#D6D6D6" transform="translate(317,369)"/>
<path d="M0 0 C-1.32338632 0.68620031 -2.65949948 1.34786461 -4 2 C-4.721875 2.37125 -5.44375 2.7425 -6.1875 3.125 C-10.04179042 4.32411257 -14.0038767 4.73013648 -18 4 C-18.66 3.01 -19.32 2.02 -20 1 C-13.31184516 0.37577221 -6.71884955 -0.12920865 0 0 Z " fill="#171717" transform="translate(289,158)"/>
<path d="M0 0 C1.60568666 0.28317926 3.20952047 0.57687791 4.8125 0.875 C6.15248047 1.11863281 6.15248047 1.11863281 7.51953125 1.3671875 C10 2 10 2 13 4 C13 4.99 13 5.98 13 7 C9.14394242 7.35870303 7.47467396 7.33442938 4.25 5.0625 C3.5075 4.381875 2.765 3.70125 2 3 C1.34 2.67 0.68 2.34 0 2 C0 1.34 0 0.68 0 0 Z " fill="#D6D6D6" transform="translate(369,149)"/>
<path d="M0 0 C0.90105469 0.01804688 1.80210937 0.03609375 2.73046875 0.0546875 C3.41753906 0.07789063 4.10460937 0.10109375 4.8125 0.125 C3.8125 2.125 3.8125 2.125 1.95703125 2.90625 C0.80267578 3.26203125 0.80267578 3.26203125 -0.375 3.625 C-1.18195313 3.87894531 -1.98890625 4.13289063 -2.8203125 4.39453125 C-3.99207031 4.75611328 -3.99207031 4.75611328 -5.1875 5.125 C-6.9509375 5.7128125 -6.9509375 5.7128125 -8.75 6.3125 C-9.554375 6.580625 -10.35875 6.84875 -11.1875 7.125 C-8.24345159 1.79767431 -6.18303156 -0.16059822 0 0 Z " fill="#303030" transform="translate(228.1875,50.875)"/>
<path d="M0 0 C3.32532111 2.69192661 4.52454943 6.06546515 6 10 C6 10.99 6 11.98 6 13 C5.34 12.67 4.68 12.34 4 12 C3.67 12.66 3.34 13.32 3 14 C1.35 10.7 -0.3 7.4 -2 4 C-1.01 4 -0.02 4 1 4 C0.67 2.68 0.34 1.36 0 0 Z " fill="#D5D5D4" transform="translate(150,138)"/>
<path d="M0 0 C0.92232422 0.00451172 1.84464844 0.00902344 2.79492188 0.01367188 C5.05085048 0.02536062 7.30663967 0.04174545 9.5625 0.0625 C9.5625 0.3925 9.5625 0.7225 9.5625 1.0625 C6.56301609 1.40115141 3.56305074 1.73355073 0.5625 2.0625 C-0.69626953 2.20558594 -0.69626953 2.20558594 -1.98046875 2.3515625 C-7.16890945 2.91464909 -12.21876961 3.15914316 -17.4375 3.0625 C-17.4375 2.4025 -17.4375 1.7425 -17.4375 1.0625 C-11.58861957 0.04355924 -5.92830831 -0.05548453 0 0 Z " fill="#E0E0E0" transform="translate(227.4375,190.9375)"/>
<path d="M0 0 C1.1055189 0.93590504 2.20935453 1.87379858 3.3125 2.8125 C3.92738281 3.33457031 4.54226562 3.85664063 5.17578125 4.39453125 C6.85424679 5.87172469 8.43882034 7.40039131 10 9 C9.67 9.99 9.34 10.98 9 12 C6.95880212 10.38405168 4.95927063 8.7143618 3 7 C3 6.34 3 5.68 3 5 C2.360625 4.896875 1.72125 4.79375 1.0625 4.6875 C0.381875 4.460625 -0.29875 4.23375 -1 4 C-1.33 3.01 -1.66 2.02 -2 1 C-1.34 0.67 -0.68 0.34 0 0 Z " fill="#E1E1E1" transform="translate(151,172)"/>
<path d="M0 0 C0.66 0 1.32 0 2 0 C2 3.3 2 6.6 2 10 C2.99 10.33 3.98 10.66 5 11 C3.71480435 13.86697492 2.42870746 15.97607712 0 18 C-0.66 18 -1.32 18 -2 18 C-1.690625 17.21625 -1.38125 16.4325 -1.0625 15.625 C0.26335807 11.10148422 0.64811085 6.68568186 1 2 C0.34 1.67 -0.32 1.34 -1 1 C-0.67 0.67 -0.34 0.34 0 0 Z " fill="#BBBBB9" transform="translate(337,95)"/>
<path d="M0 0 C0 0.66 0 1.32 0 2 C-3.6678852 3.96189209 -6.87248551 5.39301257 -11 6 C-11 5.01 -11 4.02 -11 3 C-11.66 3 -12.32 3 -13 3 C-12.67 2.34 -12.34 1.68 -12 1 C-7.96960118 0.06269795 -4.12580711 -0.0982335 0 0 Z " fill="#181818" transform="translate(323,77)"/>
<path d="M0 0 C5.39795989 1.15058556 10.70987333 2.42421759 16 4 C16 4.33 16 4.66 16 5 C3.98010109 5.5683665 3.98010109 5.5683665 0 2 C0 1.34 0 0.68 0 0 Z " fill="#CFCFCF" transform="translate(210,201)"/>
<path d="M0 0 C0.79921875 0.11085937 1.5984375 0.22171875 2.421875 0.3359375 C3.02515625 0.43132812 3.6284375 0.52671875 4.25 0.625 C4.25 0.955 4.25 1.285 4.25 1.625 C3.35796875 1.81835938 2.4659375 2.01171875 1.546875 2.2109375 C0.37640625 2.47132813 -0.7940625 2.73171875 -2 3 C-3.16015625 3.25523437 -4.3203125 3.51046875 -5.515625 3.7734375 C-8.66169922 4.47435664 -8.66169922 4.47435664 -10.984375 5.7890625 C-12.75 6.625 -12.75 6.625 -15.75 5.625 C-10.671875 2.6953125 -10.671875 2.6953125 -8.75 1.625 C-8.110625 1.2434375 -7.47125 0.861875 -6.8125 0.46875 C-4.27510965 -0.56927332 -2.69422719 -0.39620988 0 0 Z " fill="#B5B5B5" transform="translate(318.75,190.375)"/>
<path d="M0 0 C0 0.66 0 1.32 0 2 C0.66 2 1.32 2 2 2 C0.60667426 5.36720387 -0.9789286 6.9859524 -4 9 C-4.33 8.01 -4.66 7.02 -5 6 C-5.66 5.34 -6.32 4.68 -7 4 C-2.25 0 -2.25 0 0 0 Z " fill="#F3F3F3" transform="translate(142,142)"/>
<path d="M0 0 C2.70583756 0.25560029 5.37210774 0.56759978 8.0625 0.9375 C9.20041992 1.08735352 9.20041992 1.08735352 10.36132812 1.24023438 C12.24154246 1.48856457 14.12086128 1.74365751 16 2 C16 2.33 16 2.66 16 3 C13.36 3.33 10.72 3.66 8 4 C8 4.66 8 5.32 8 6 C4.22454612 4.90931332 1.52956528 4.0916909 -1 1 C-0.67 0.67 -0.34 0.34 0 0 Z " fill="#363636" transform="translate(158,132)"/>
<path d="M0 0 C-2.82254213 2.70028512 -4.39646601 3.92924572 -8.33203125 4.390625 C-9.48058594 4.34421875 -10.62914062 4.2978125 -11.8125 4.25 C-13.55466797 4.19585937 -13.55466797 4.19585937 -15.33203125 4.140625 C-16.21246094 4.09421875 -17.09289062 4.0478125 -18 4 C-18 3.67 -18 3.34 -18 3 C-16.12743583 2.49095343 -14.25180659 1.99317545 -12.375 1.5 C-11.33085937 1.2215625 -10.28671875 0.943125 -9.2109375 0.65625 C-6.04312582 0.00881404 -3.22258533 -0.1161292 0 0 Z " fill="#DFDFDE" transform="translate(245,202)"/>
<path d="M0 0 C0.33 0 0.66 0 1 0 C1.33 1.98 1.66 3.96 2 6 C2.66 5.01 3.32 4.02 4 3 C4 6.96 4 10.92 4 15 C3.34 15 2.68 15 2 15 C-0.10428384 9.87080814 -0.21755666 5.4389165 0 0 Z " fill="#515150" transform="translate(237,336)"/>
<path d="M0 0 C1.9453125 -0.29296875 1.9453125 -0.29296875 4.125 -0.1875 C5.40375 -0.125625 6.6825 -0.06375 8 0 C2.85714286 5.57142857 2.85714286 5.57142857 -1 6 C-1.33 5.01 -1.66 4.02 -2 3 C-1.34 2.01 -0.68 1.02 0 0 Z " fill="#F4F4F4" transform="translate(209,139)"/>
<path d="M0 0 C2 3 2 3 1.625 5.1875 C1.41875 5.785625 1.2125 6.38375 1 7 C-1.31 7 -3.62 7 -6 7 C-4.60667426 3.63279613 -3.0210714 2.0140476 0 0 Z " fill="#D7D7D7" transform="translate(223,104)"/>
<path d="M0 0 C-1.75 3.875 -1.75 3.875 -4 5 C-6.3329866 5.04022391 -8.66706666 5.04320247 -11 5 C-7.8797251 0.39387991 -5.45124506 -0.14733095 0 0 Z " fill="#F6F6F6" transform="translate(227,47)"/>
<path d="M0 0 C2.4375 1 2.4375 1 3.75 3.5625 C4.0903125 4.7690625 4.0903125 4.7690625 4.4375 6 C0.87969804 5.39009109 -2.2453589 4.4216319 -5.5625 3 C-3.73879759 0.60039156 -3.08644033 0 0 0 Z " fill="#D2D2D2" transform="translate(295.5625,73)"/>
<path d="M0 0 C3.86848614 1.11756266 6.28922757 2.02873292 9 5 C-1.55808656 5.18451025 -1.55808656 5.18451025 -6 4 C-6 3.67 -6 3.34 -6 3 C-3.69 3 -1.38 3 1 3 C0.67 2.01 0.34 1.02 0 0 Z " fill="#AEAEAE" transform="translate(262,50)"/>
<path d="M0 0 C-1.375 2 -1.375 2 -3 4 C-3.66 4 -4.32 4 -5 4 C-5.33 4.99 -5.66 5.98 -6 7 C-6.99 7 -7.98 7 -9 7 C-8.34 4.69 -7.68 2.38 -7 0 C-3.98968256 -0.93423645 -3.13349732 -1.04449911 0 0 Z " fill="#D5D5D4" transform="translate(340,361)"/>
<path d="M0 0 C0.99 0 1.98 0 3 0 C3 3.63 3 7.26 3 11 C2.01 11 1.02 11 0 11 C0 7.37 0 3.74 0 0 Z " fill="#909090" transform="translate(360,202)"/>
<path d="M0 0 C0.33 0 0.66 0 1 0 C1.1546875 1.423125 1.1546875 1.423125 1.3125 2.875 C1.68539295 6.29107501 1.68539295 6.29107501 5 8 C3.7260411 10.03833424 2.38938077 12.03852126 1 14 C0.34 14 -0.32 14 -1 14 C-0.67 9.38 -0.34 4.76 0 0 Z " fill="#CACACA" transform="translate(311,108)"/>
<path d="M0 0 C3.29148243 1.13499394 3.9959869 1.99283376 5.75 5.125 C6.1625 6.07375 6.575 7.0225 7 8 C6.34 8 5.68 8 5 8 C4.34 8.66 3.68 9.32 3 10 C0.59185923 6.48812804 -0.36629408 4.27343092 0 0 Z " fill="#D4D4D4" transform="translate(150,218)"/>
<path d="M0 0 C3.68754757 0.49831724 5.60490662 1.10067643 8 4 C5.64561267 5.42944945 4.51967567 6.08661261 1.75 5.625 C1.1725 5.41875 0.595 5.2125 0 5 C0 3.35 0 1.7 0 0 Z " fill="#F1F1F1" transform="translate(166,160)"/>
<path d="M0 0 C2.475 0.99 2.475 0.99 5 2 C5 2.66 5 3.32 5 4 C7.475 4.99 7.475 4.99 10 6 C8 7 8 7 5.3984375 6.22265625 C3.90183594 5.64837891 3.90183594 5.64837891 2.375 5.0625 C1.37210937 4.68222656 0.36921875 4.30195312 -0.6640625 3.91015625 C-1.43492187 3.60980469 -2.20578125 3.30945313 -3 3 C-2.01 2.67 -1.02 2.34 0 2 C0 1.34 0 0.68 0 0 Z " fill="#B5B5B5" transform="translate(354,68)"/>
<path d="M0 0 C1.65 1.32 3.3 2.64 5 4 C4.67 4.66 4.34 5.32 4 6 C2.741875 5.87625 1.48375 5.7525 0.1875 5.625 C-0.87404297 5.52058594 -0.87404297 5.52058594 -1.95703125 5.4140625 C-4 5 -4 5 -7 3 C-5.35 3 -3.7 3 -2 3 C-2 2.34 -2 1.68 -2 1 C-1.34 0.67 -0.68 0.34 0 0 Z " fill="#DBDBDA" transform="translate(350,64)"/>
<path d="M0 0 C0 0.66 0 1.32 0 2 C-3.96 2.66 -7.92 3.32 -12 4 C-9 0 -9 0 -6 -0.8125 C-3 -1 -3 -1 0 0 Z " fill="#232323" transform="translate(227,44)"/>
<path d="M0 0 C2 2 2 2 2 5 C1.13375 4.690625 0.2675 4.38125 -0.625 4.0625 C-3.76150738 3.07508101 -6.75067413 2.46418941 -10 2 C-10 1.34 -10 0.68 -10 0 C-6.4195345 -1.2393919 -3.65498696 -0.87401862 0 0 Z " fill="#2B2B2B" transform="translate(308,35)"/>
<path d="M0 0 C0.33 0 0.66 0 1 0 C0.49202991 4.3177458 -0.19682779 8.03302114 -2 12 C-2.99 12 -3.98 12 -5 12 C-5 8.55639368 -4.20408468 7.25204608 -2.5 4.3125 C-2.0359375 3.50425781 -1.571875 2.69601562 -1.09375 1.86328125 C-0.7328125 1.24839844 -0.371875 0.63351562 0 0 Z " fill="#4B4B4B" transform="translate(334,354)"/>
<path d="M0 0 C0.66 0 1.32 0 2 0 C4.42857143 7.42857143 4.42857143 7.42857143 3 11 C2.34 10.34 1.68 9.68 1 9 C0.01 9.495 0.01 9.495 -1 10 C-0.67 6.7 -0.34 3.4 0 0 Z " fill="#B4B4B4" transform="translate(186,241)"/>
<path d="M0 0 C1.99097846 2.98646769 2.94124926 5.59687262 4 9 C3.01 9.99 2.02 10.98 1 12 C-0.625 9.9375 -0.625 9.9375 -2 7 C-1.1875 3.1875 -1.1875 3.1875 0 0 Z " fill="#A0A0A0" transform="translate(141,199)"/>
<path d="M0 0 C4.13347071 0.47239665 7.35761877 2.05174957 11 4 C11 4.33 11 4.66 11 5 C6.75519536 5.33292585 4.64457375 5.43885872 1.0625 3 C0.381875 2.34 -0.29875 1.68 -1 1 C-0.67 0.67 -0.34 0.34 0 0 Z " fill="#DBDBDB" transform="translate(307,201)"/>
<path d="M0 0 C3.3 0 6.6 0 10 0 C10 0.99 10 1.98 10 3 C6.7 3 3.4 3 0 3 C0 2.01 0 1.02 0 0 Z " fill="#F9F9F9" transform="translate(257,130)"/>
<path d="M0 0 C0.33 0 0.66 0 1 0 C1.33 3.3 1.66 6.6 2 10 C2.33 10 2.66 10 3 10 C3 12.97 3 15.94 3 19 C2.67 18.01 2.34 17.02 2 16 C1.01 15.67 0.02 15.34 -1 15 C-0.67 10.05 -0.34 5.1 0 0 Z " fill="#3F3F3F" transform="translate(147,195)"/>
<path d="M0 0 C2.4375 0.75 2.4375 0.75 5 2 C5.8125 4.125 5.8125 4.125 6 6 C4.125 6.625 4.125 6.625 2 7 C0 5 0 5 -0.125 2.375 C-0.08375 1.59125 -0.0425 0.8075 0 0 Z " fill="#EEEEEC" transform="translate(154,150)"/>
<path d="M0 0 C1.98 0 3.96 0 6 0 C6 0.66 6 1.32 6 2 C7.32 2.66 8.64 3.32 10 4 C7.69 4.66 5.38 5.32 3 6 C2.814375 5.071875 2.814375 5.071875 2.625 4.125 C2.12802644 1.80879168 2.12802644 1.80879168 0 0 Z " fill="#DEDEDE" transform="translate(230,50)"/>
<path d="M0 0 C3.99500618 1.3697164 6.80009492 3.25722422 10 6 C7.83032311 6.95465783 6.43671207 7.14401212 4.17578125 6.3984375 C2.4315257 5.64129615 0.71372869 4.82390802 -1 4 C-0.34 3.67 0.32 3.34 1 3 C0.67 2.01 0.34 1.02 0 0 Z " fill="#CBCBCB" transform="translate(299,42)"/>
<path d="M0 0 C0.66 0.33 1.32 0.66 2 1 C2 6.61 2 12.22 2 18 C1.01 17.67 0.02 17.34 -1 17 C-1.33 16.01 -1.66 15.02 -2 14 C-1.34 14 -0.68 14 0 14 C0 9.38 0 4.76 0 0 Z " fill="#A9A9A9" transform="translate(243,351)"/>
<path d="M0 0 C0.33 0.99 0.66 1.98 1 3 C0.01 4.485 0.01 4.485 -1 6 C-0.34 6.33 0.32 6.66 1 7 C-0.75 8.0625 -0.75 8.0625 -3 9 C-4.32 8.67 -5.64 8.34 -7 8 C-4.69 5.36 -2.38 2.72 0 0 Z " fill="#CBCBCB" transform="translate(373,135)"/>
<path d="M0 0 C0.66 0 1.32 0 2 0 C2.14285714 7.42857143 2.14285714 7.42857143 1 11 C0.34 11 -0.32 11 -1 11 C-1.02688151 9.35425434 -1.04634123 7.70838587 -1.0625 6.0625 C-1.07410156 5.14597656 -1.08570313 4.22945313 -1.09765625 3.28515625 C-1 1 -1 1 0 0 Z " fill="#DCDCDC" transform="translate(299,105)"/>
<path d="M0 0 C3.32382587 4.33542505 4.12018668 6.47141274 4 12 C1.99869084 9.45287926 0.14272344 7.0472625 -1 4 C-0.625 1.75 -0.625 1.75 0 0 Z " fill="#CECECB" transform="translate(161,182)"/>
<path d="M0 0 C3.3 0 6.6 0 10 0 C9.67 1.65 9.34 3.3 9 5 C6.69 5 4.38 5 2 5 C3.32 4.01 4.64 3.02 6 2 C3.03 1.505 3.03 1.505 0 1 C0 0.67 0 0.34 0 0 Z " fill="#5D5D5D" transform="translate(270,182)"/>
<path d="M0 0 C0.66 0.33 1.32 0.66 2 1 C0.02 1.99 0.02 1.99 -2 3 C-1.01 3.66 -0.02 4.32 1 5 C-2.63 5.33 -6.26 5.66 -10 6 C-6.77413155 2.77413155 -4.2488305 1.54502927 0 0 Z " fill="#B7B7B7" transform="translate(349,119)"/>
<path d="M0 0 C0.66 0.33 1.32 0.66 2 1 C-1.96 4.96 -5.92 8.92 -10 13 C-10 8.41771462 -7.08388033 6.1816619 -4 3 C-1.625 1.0625 -1.625 1.0625 0 0 Z " fill="#111111" transform="translate(159,72)"/>
<path d="M0 0 C0.33 0 0.66 0 1 0 C1.06058594 0.65226563 1.12117187 1.30453125 1.18359375 1.9765625 C1.63519991 6.68716217 2.14195039 11.34201638 3 16 C2.67 15.34 2.34 14.68 2 14 C1.34 14 0.68 14 0 14 C-0.33 14.66 -0.66 15.32 -1 16 C-0.67 10.72 -0.34 5.44 0 0 Z " fill="#D2D2D2" transform="translate(169,211)"/>
<path d="M0 0 C0.66 0.33 1.32 0.66 2 1 C1.16855469 1.81404297 1.16855469 1.81404297 0.3203125 2.64453125 C-0.76636719 3.71767578 -0.76636719 3.71767578 -1.875 4.8125 C-2.59429687 5.52019531 -3.31359375 6.22789063 -4.0546875 6.95703125 C-6.15358937 9.04399194 -6.15358937 9.04399194 -8 12 C-8.33 11.01 -8.66 10.02 -9 9 C-6.34691575 5.36148445 -3.76827587 2.51218391 0 0 Z " fill="#D3D3D3" transform="translate(205,44)"/>
<path d="M0 0 C1.42944945 2.35438733 2.08661261 3.48032433 1.625 6.25 C1.41875 6.8275 1.2125 7.405 1 8 C1 7.34 1 6.68 1 6 C-0.65 6.66 -2.3 7.32 -4 8 C-2.87548273 5.0280615 -1.77706209 2.66559313 0 0 Z " fill="#CECECE" transform="translate(287,265)"/>
<path d="M0 0 C4.24480464 -0.33292585 6.35542625 -0.43885872 9.9375 2 C10.618125 2.66 11.29875 3.32 12 4 C9.03 3.67 6.06 3.34 3 3 C3 2.34 3 1.68 3 1 C2.01 0.67 1.02 0.34 0 0 Z " fill="#D5D5D5" transform="translate(335,191)"/>
<path d="M0 0 C-2 2 -2 2 -4.3828125 2.1953125 C-5.28773438 2.17210937 -6.19265625 2.14890625 -7.125 2.125 C-8.49011719 2.09792969 -8.49011719 2.09792969 -9.8828125 2.0703125 C-10.58148438 2.04710937 -11.28015625 2.02390625 -12 2 C-12 1.34 -12 0.68 -12 0 C-3.42857143 -1.28571429 -3.42857143 -1.28571429 0 0 Z " fill="#EFEFEF" transform="translate(210,179)"/>
<path d="M0 0 C0.556875 0.391875 1.11375 0.78375 1.6875 1.1875 C0.6975 1.5175 -0.2925 1.8475 -1.3125 2.1875 C-1.3125 2.8475 -1.3125 3.5075 -1.3125 4.1875 C-1.9725 4.1875 -2.6325 4.1875 -3.3125 4.1875 C-3.6425 4.8475 -3.9725 5.5075 -4.3125 6.1875 C-4.3125 5.1975 -4.3125 4.2075 -4.3125 3.1875 C-5.6325 3.5175 -6.9525 3.8475 -8.3125 4.1875 C-6.5910452 0.7445904 -3.76755157 -1.32373434 0 0 Z " fill="#CBCBCB" transform="translate(157.3125,104.8125)"/>
<path d="M0 0 C-1.32 0.33 -2.64 0.66 -4 1 C-4.33 2.32 -4.66 3.64 -5 5 C-5 4.01 -5 3.02 -5 2 C-7.64 2 -10.28 2 -13 2 C-7.89905865 -1.40062757 -5.96067238 -0.86525889 0 0 Z " fill="#A9A9A9" transform="translate(348,202)"/>
<path d="M0 0 C7.42857143 -0.28571429 7.42857143 -0.28571429 11 2 C10.67 2.99 10.34 3.98 10 5 C9.34 5 8.68 5 8 5 C7.67 4.34 7.34 3.68 7 3 C5.67203709 2.64587656 4.33783393 2.31478446 3 2 C2.01 1.34 1.02 0.68 0 0 Z " fill="#545454" transform="translate(240,201)"/>
<path d="M0 0 C0.66 0 1.32 0 2 0 C2 0.66 2 1.32 2 2 C3.65 2 5.3 2 7 2 C5 4 5 4 2.8359375 4.1953125 C1.61777344 4.16050781 1.61777344 4.16050781 0.375 4.125 C-0.44226563 4.10695312 -1.25953125 4.08890625 -2.1015625 4.0703125 C-2.72804687 4.04710937 -3.35453125 4.02390625 -4 4 C-4 3.34 -4 2.68 -4 2 C-2.68 2 -1.36 2 0 2 C0 1.34 0 0.68 0 0 Z " fill="#BFBFBF" transform="translate(180,151)"/>
<path d="M0 0 C0.66 0 1.32 0 2 0 C2 2.64 2 5.28 2 8 C0.35 8.33 -1.3 8.66 -3 9 C-2.01 6.03 -1.02 3.06 0 0 Z " fill="#474747" transform="translate(268,172)"/>
<path d="M0 0 C0.66 0.66 1.32 1.32 2 2 C0.1875 4.0625 0.1875 4.0625 -3 6 C-6.73030079 6.05763105 -10.32162911 5.59266221 -14 5 C-14 4.67 -14 4.34 -14 4 C-7.565 3.505 -7.565 3.505 -1 3 C-0.67 2.01 -0.34 1.02 0 0 Z " fill="#A9A9A9" transform="translate(270,125)"/>
<path d="M0 0 C3.3 0 6.6 0 10 0 C9.67 1.32 9.34 2.64 9 4 C7.35 4 5.7 4 4 4 C4 3.01 4 2.02 4 1 C2.68 0.67 1.36 0.34 0 0 Z " fill="#414141" transform="translate(261,86)"/>
<path d="M0 0 C0.66 0.33 1.32 0.66 2 1 C0.7625 2.299375 0.7625 2.299375 -0.5 3.625 C-2.65865899 6.17890641 -2.9876294 6.86639751 -3.3125 10.375 C-3.209375 11.24125 -3.10625 12.1075 -3 13 C-3.66 13 -4.32 13 -5 13 C-5.61538462 5.73846154 -5.61538462 5.73846154 -2.5 2 C-1.675 1.34 -0.85 0.68 0 0 Z " fill="#C6C6C6" transform="translate(289,51)"/>
<path d="M0 0 C2.64 0 5.28 0 8 0 C6.35 1.32 4.7 2.64 3 4 C1.68 3.34 0.36 2.68 -1 2 C-0.67 1.34 -0.34 0.68 0 0 Z M1 4 C3.97 4.495 3.97 4.495 7 5 C7 5.33 7 5.66 7 6 C5.02 6 3.04 6 1 6 C1 5.34 1 4.68 1 4 Z " fill="#C9C9C9" transform="translate(214,47)"/>
<path d="M0 0 C0.99 0.33 1.98 0.66 3 1 C3.6875 3.0625 3.6875 3.0625 4 5 C3.34 5 2.68 5 2 5 C1.67 7.31 1.34 9.62 1 12 C0.67 12 0.34 12 0 12 C0 8.04 0 4.08 0 0 Z " fill="#262626" transform="translate(244,352)"/>
<path d="M0 0 C0.33 0 0.66 0 1 0 C0.88637738 1.4800841 0.75877092 2.95910074 0.625 4.4375 C0.52058594 5.67306641 0.52058594 5.67306641 0.4140625 6.93359375 C0.27742187 7.61550781 0.14078125 8.29742187 0 9 C-0.99 9.495 -0.99 9.495 -2 10 C-2.1953125 3.9453125 -2.1953125 3.9453125 -2 2 C-1.34 1.34 -0.68 0.68 0 0 Z " fill="#070706" transform="translate(240,333)"/>
<path d="M0 0 C0.66 0.33 1.32 0.66 2 1 C1.67 1.66 1.34 2.32 1 3 C0.34 3 -0.32 3 -1 3 C-1.2475 3.61875 -1.495 4.2375 -1.75 4.875 C-3.20628639 7.35068687 -4.37812506 7.95125002 -7 9 C-3.375 2.25 -3.375 2.25 0 0 Z " fill="#D2D2D2" transform="translate(227,274)"/>
<path d="M0 0 C3.96 0.33 7.92 0.66 12 1 C10 3 10 3 7.125 3.3125 C4 3 4 3 0 0 Z " fill="#595959" transform="translate(252,156)"/>
<path d="M0 0 C-0.33 1.32 -0.66 2.64 -1 4 C-3.31 4 -5.62 4 -8 4 C-4.5 0 -4.5 0 0 0 Z " fill="#D0D0D0" transform="translate(392,144)"/>
<path d="M0 0 C2 1.1875 2 1.1875 4 3 C4.25 5.6875 4.25 5.6875 4 8 C1.69 6.35 -0.62 4.7 -3 3 C-2.01 2.01 -1.02 1.02 0 0 Z " fill="#363636" transform="translate(346,56)"/>
<path d="M0 0 C1.32 0 2.64 0 4 0 C4 2.64 4 5.28 4 8 C1.10067643 5.60490662 0.49831724 3.68754757 0 0 Z " fill="#0B0B0A" transform="translate(305,325)"/>
<path d="M0 0 C3 4 3 4 3.07421875 6.140625 C2.71614583 8.09375 2.35807292 10.046875 2 12 C1.34 11.67 0.68 11.34 0 11 C0 7.37 0 3.74 0 0 Z " fill="#464645" transform="translate(342,289)"/>
<path d="M0 0 C2 2 2 2 3 5 C3.99 5.66 4.98 6.32 6 7 C6 7.66 6 8.32 6 9 C4.125 8.6875 4.125 8.6875 2 8 C-0.1519437 4.77208445 -0.20086443 3.71599191 0 0 Z " fill="#9D9D9D" transform="translate(161,262)"/>
<path d="M0 0 C1.65 1.65 3.3 3.3 5 5 C4.34 5.66 3.68 6.32 3 7 C3 6.34 3 5.68 3 5 C2.360625 4.896875 1.72125 4.79375 1.0625 4.6875 C0.381875 4.460625 -0.29875 4.23375 -1 4 C-1.33 3.01 -1.66 2.02 -2 1 C-1.34 0.67 -0.68 0.34 0 0 Z " fill="#D2D2D2" transform="translate(151,172)"/>
<path d="M0 0 C0.33 0.66 0.66 1.32 1 2 C3.02463255 2.65213292 3.02463255 2.65213292 5 3 C0.9472484 3.98248524 -2.83861737 4.08159574 -7 4 C-4.68143083 2.45428722 -2.49361571 1.20381448 0 0 Z " fill="#9E9E9E" transform="translate(374,125)"/>
<path d="M0 0 C2.97 0.33 5.94 0.66 9 1 C9 1.33 9 1.66 9 2 C7.3603125 2.2165625 7.3603125 2.2165625 5.6875 2.4375 C2.06877013 2.88288104 2.06877013 2.88288104 -1 4 C-0.67 2.68 -0.34 1.36 0 0 Z " fill="#E8E8E8" transform="translate(267,114)"/>
<path d="M0 0 C0.33 0 0.66 0 1 0 C1 3.96 1 7.92 1 12 C0.01 12 -0.98 12 -2 12 C-2.33 11.01 -2.66 10.02 -3 9 C-2.34 8.67 -1.68 8.34 -1 8 C-0.53476937 6.10466658 -0.53476937 6.10466658 -0.375 3.9375 C-0.25125 2.638125 -0.1275 1.33875 0 0 Z " fill="#EAEAEA" transform="translate(242,353)"/>
<path d="M0 0 C2.3125 0.1875 2.3125 0.1875 4 1 C1.75 3.5625 1.75 3.5625 -1 6 C-3.3125 5.8125 -3.3125 5.8125 -5 5 C-2.75 2.4375 -2.75 2.4375 0 0 Z " fill="#BCBCBC" transform="translate(285,128)"/>
<path d="M0 0 C6.625 0.75 6.625 0.75 10 3 C7.03 3 4.06 3 1 3 C0.67 2.01 0.34 1.02 0 0 Z " fill="#E5E5E5" transform="translate(338,71)"/>
<path d="M0 0 C0.33 0 0.66 0 1 0 C1.144375 1.11375 1.28875 2.2275 1.4375 3.375 C1.78372035 6.82142047 1.78372035 6.82142047 3 9 C2.01 9.495 2.01 9.495 1 10 C0.34 11.32 -0.32 12.64 -1 14 C-0.67 9.38 -0.34 4.76 0 0 Z " fill="#393938" transform="translate(340,330)"/>
<path d="M0 0 C4.95 0.99 4.95 0.99 10 2 C8.68 2.33 7.36 2.66 6 3 C5.67 3.66 5.34 4.32 5 5 C2.5 3.625 2.5 3.625 0 2 C0 1.34 0 0.68 0 0 Z " fill="#B8B8B8" transform="translate(369,149)"/>
<path d="M0 0 C1.33332095 2.6666419 0.67102033 4.16680303 0 7 C-1.65 7.33 -3.3 7.66 -5 8 C-3.35 5.36 -1.7 2.72 0 0 Z " fill="#C6C6C6" transform="translate(210,74)"/>
<path d="M0 0 C0.6875 1.8125 0.6875 1.8125 1 4 C-0.4375 5.75 -0.4375 5.75 -2 7 C-2.66 5.02 -3.32 3.04 -4 1 C-2 0 -2 0 0 0 Z " fill="#BABABA" transform="translate(151,215)"/>
<path d="M0 0 C1.65 0.33 3.3 0.66 5 1 C4.67 1.99 4.34 2.98 4 4 C2.35 4 0.7 4 -1 4 C-0.67 2.68 -0.34 1.36 0 0 Z " fill="#F3F3F3" transform="translate(146,171)"/>
<path d="M0 0 C-1.65 1.32 -3.3 2.64 -5 4 C-5.33 3.34 -5.66 2.68 -6 2 C-6.99 1.67 -7.98 1.34 -9 1 C-3.375 -1.125 -3.375 -1.125 0 0 Z " fill="#313131" transform="translate(225,103)"/>
<path d="M0 0 C0 0.66 0 1.32 0 2 C-1.65 2.33 -3.3 2.66 -5 3 C-5 2.34 -5 1.68 -5 1 C-6.32 0.67 -7.64 0.34 -9 0 C-5.62182575 -0.84454356 -3.32534757 -1.10844919 0 0 Z " fill="#373737" transform="translate(328,76)"/>
<path d="M0 0 C-0.33 0.33 -0.66 0.66 -1 1 C-0.01 1.66 0.98 2.32 2 3 C0.02 3.33 -1.96 3.66 -4 4 C-4 3.01 -4 2.02 -4 1 C-4.66 0.67 -5.32 0.34 -6 0 C-2.25 -1.125 -2.25 -1.125 0 0 Z " fill="#313131" transform="translate(233,58)"/>
<path d="M0 0 C1.32 0.33 2.64 0.66 4 1 C4.33 2.65 4.66 4.3 5 6 C2.5 4.6875 2.5 4.6875 0 3 C0 2.01 0 1.02 0 0 Z " fill="#363636" transform="translate(315,49)"/>
<path d="M0 0 C0.33 0.66 0.66 1.32 1 2 C1.66 2 2.32 2 3 2 C3.33 1.34 3.66 0.68 4 0 C4 1.32 4 2.64 4 4 C3.01 4.495 3.01 4.495 2 5 C1.34 5.99 0.68 6.98 0 8 C0 5.36 0 2.72 0 0 Z " fill="#2A2A2A" transform="translate(350,267)"/>
<path d="M0 0 C1.32 0 2.64 0 4 0 C3.67 0.99 3.34 1.98 3 3 C2.01 3 1.02 3 0 3 C-0.33 3.66 -0.66 4.32 -1 5 C-1.66 5 -2.32 5 -3 5 C-1.125 1.125 -1.125 1.125 0 0 Z " fill="#C7C7C5" transform="translate(252,242)"/>
<path d="M0 0 C0.99 0.66 1.98 1.32 3 2 C2.319375 2.5878125 2.319375 2.5878125 1.625 3.1875 C-0.27642919 5.30832487 -1.06204028 7.33042235 -2 10 C-2.6875 8.375 -2.6875 8.375 -3 6 C-1.5625 2.75 -1.5625 2.75 0 0 Z " fill="#C3C3C3" transform="translate(242,156)"/>
</svg>
